G04 Layer_Physical_Order=1*
G04 Layer_Color=1754623*
%FSLAX25Y25*%
%MOIN*%
G70*
G01*
G75*
%ADD10R,0.03543X0.02756*%
%ADD11R,0.05315X0.02953*%
%ADD12R,0.02953X0.05315*%
G04:AMPARAMS|DCode=13|XSize=78.74mil|YSize=49.21mil|CornerRadius=0.25mil|HoleSize=0mil|Usage=FLASHONLY|Rotation=90.000|XOffset=0mil|YOffset=0mil|HoleType=Round|Shape=RoundedRectangle|*
%AMROUNDEDRECTD13*
21,1,0.07874,0.04872,0,0,90.0*
21,1,0.07825,0.04921,0,0,90.0*
1,1,0.00049,0.02436,0.03912*
1,1,0.00049,0.02436,-0.03912*
1,1,0.00049,-0.02436,-0.03912*
1,1,0.00049,-0.02436,0.03912*
%
%ADD13ROUNDEDRECTD13*%
G04:AMPARAMS|DCode=14|XSize=157.48mil|YSize=98.43mil|CornerRadius=0.49mil|HoleSize=0mil|Usage=FLASHONLY|Rotation=90.000|XOffset=0mil|YOffset=0mil|HoleType=Round|Shape=RoundedRectangle|*
%AMROUNDEDRECTD14*
21,1,0.15748,0.09744,0,0,90.0*
21,1,0.15650,0.09843,0,0,90.0*
1,1,0.00098,0.04872,0.07825*
1,1,0.00098,0.04872,-0.07825*
1,1,0.00098,-0.04872,-0.07825*
1,1,0.00098,-0.04872,0.07825*
%
%ADD14ROUNDEDRECTD14*%
G04:AMPARAMS|DCode=15|XSize=53.15mil|YSize=15.75mil|CornerRadius=0.08mil|HoleSize=0mil|Usage=FLASHONLY|Rotation=90.000|XOffset=0mil|YOffset=0mil|HoleType=Round|Shape=RoundedRectangle|*
%AMROUNDEDRECTD15*
21,1,0.05315,0.01559,0,0,90.0*
21,1,0.05299,0.01575,0,0,90.0*
1,1,0.00016,0.00780,0.02650*
1,1,0.00016,0.00780,-0.02650*
1,1,0.00016,-0.00780,-0.02650*
1,1,0.00016,-0.00780,0.02650*
%
%ADD15ROUNDEDRECTD15*%
G04:AMPARAMS|DCode=16|XSize=49.21mil|YSize=78.74mil|CornerRadius=1.23mil|HoleSize=0mil|Usage=FLASHONLY|Rotation=180.000|XOffset=0mil|YOffset=0mil|HoleType=Round|Shape=RoundedRectangle|*
%AMROUNDEDRECTD16*
21,1,0.04921,0.07628,0,0,180.0*
21,1,0.04675,0.07874,0,0,180.0*
1,1,0.00246,-0.02338,0.03814*
1,1,0.00246,0.02338,0.03814*
1,1,0.00246,0.02338,-0.03814*
1,1,0.00246,-0.02338,-0.03814*
%
%ADD16ROUNDEDRECTD16*%
%ADD17R,0.01575X0.03937*%
%ADD18R,0.04331X0.01102*%
%ADD19R,0.01102X0.04331*%
%ADD20R,0.03347X0.01378*%
%ADD21R,0.01378X0.03347*%
%ADD22R,0.04724X0.04724*%
%ADD23R,0.02756X0.03543*%
%ADD24R,0.05354X0.02559*%
%ADD25R,0.01969X0.01969*%
%ADD26R,0.08661X0.05906*%
%ADD27R,0.07874X0.07874*%
%ADD28R,0.03937X0.01575*%
%ADD29R,0.00984X0.05118*%
%ADD30R,0.05118X0.00984*%
%ADD31R,0.03937X0.05906*%
%ADD32R,0.02756X0.05906*%
%ADD33R,0.05906X0.02756*%
%ADD34R,0.01102X0.05906*%
%ADD35R,0.05906X0.01102*%
%ADD36R,0.04724X0.07087*%
%ADD37R,0.05906X0.04921*%
%ADD38R,0.02559X0.05354*%
%ADD39R,0.05512X0.04724*%
G04:AMPARAMS|DCode=40|XSize=39.37mil|YSize=78.74mil|CornerRadius=0mil|HoleSize=0mil|Usage=FLASHONLY|Rotation=315.000|XOffset=0mil|YOffset=0mil|HoleType=Round|Shape=Rectangle|*
%AMROTATEDRECTD40*
4,1,4,-0.04176,-0.01392,0.01392,0.04176,0.04176,0.01392,-0.01392,-0.04176,-0.04176,-0.01392,0.0*
%
%ADD40ROTATEDRECTD40*%

%ADD41P,0.11136X4X360.0*%
%ADD42R,0.03937X0.01575*%
%ADD43R,0.02953X0.06890*%
%ADD44C,0.02500*%
%ADD45C,0.01200*%
%ADD46C,0.02000*%
%ADD47C,0.01000*%
%ADD48C,0.00800*%
%ADD49C,0.00600*%
%ADD50C,0.01600*%
%ADD51C,0.02362*%
%ADD52R,0.08721X0.10961*%
%ADD53R,0.13100X0.12000*%
%ADD54R,0.41800X0.12400*%
%ADD55R,0.07354X0.03898*%
%ADD56R,0.08268X0.05118*%
%ADD57O,0.01969X0.02362*%
%ADD58C,0.11811*%
G04:AMPARAMS|DCode=59|XSize=157.48mil|YSize=157.48mil|CornerRadius=0.79mil|HoleSize=0mil|Usage=FLASHONLY|Rotation=0.000|XOffset=0mil|YOffset=0mil|HoleType=Round|Shape=RoundedRectangle|*
%AMROUNDEDRECTD59*
21,1,0.15748,0.15590,0,0,0.0*
21,1,0.15590,0.15748,0,0,0.0*
1,1,0.00158,0.07795,-0.07795*
1,1,0.00158,-0.07795,-0.07795*
1,1,0.00158,-0.07795,0.07795*
1,1,0.00158,0.07795,0.07795*
%
%ADD59ROUNDEDRECTD59*%
%ADD60C,0.03937*%
%ADD61O,0.05906X0.03543*%
%ADD62C,0.01000*%
%ADD63O,0.16535X0.13780*%
%ADD64O,0.15748X0.13780*%
%ADD65O,0.07874X0.03543*%
%ADD66C,0.02362*%
%ADD67C,0.02756*%
%ADD68C,0.03150*%
G36*
X405947Y257917D02*
X405512Y256634D01*
X405508Y256606D01*
X405496Y256581D01*
X404722Y253695D01*
X404720Y253658D01*
X404706Y253623D01*
X404187Y250680D01*
X404188Y250643D01*
X404178Y250607D01*
X403917Y247631D01*
X403920Y247603D01*
X403914Y247575D01*
X403882Y246081D01*
X403883Y246072D01*
X403882Y246063D01*
Y242126D01*
X403884Y242116D01*
X403882Y242105D01*
X403923Y240425D01*
X403930Y240394D01*
X403927Y240363D01*
X404256Y237017D01*
X404268Y236978D01*
Y236936D01*
X404924Y233639D01*
X404940Y233600D01*
X404944Y233559D01*
X405920Y230342D01*
X405940Y230305D01*
X405948Y230264D01*
X407234Y227159D01*
X407257Y227124D01*
X407270Y227084D01*
X408854Y224120D01*
X408881Y224087D01*
X408897Y224049D01*
X410764Y221254D01*
X410794Y221224D01*
X410813Y221187D01*
X412946Y218589D01*
X412978Y218563D01*
X413001Y218528D01*
X415378Y216151D01*
X415413Y216128D01*
X415439Y216095D01*
X418038Y213963D01*
X418075Y213943D01*
X418104Y213914D01*
X420899Y212046D01*
X420938Y212030D01*
X420970Y212004D01*
X423934Y210419D01*
X423974Y210407D01*
X424009Y210384D01*
X427115Y209098D01*
X427156Y209089D01*
X427193Y209070D01*
X430409Y208094D01*
X430451Y208090D01*
X430489Y208074D01*
X433786Y207418D01*
X433828D01*
X433868Y207406D01*
X437213Y207076D01*
X437244Y207080D01*
X437275Y207073D01*
X438956Y207031D01*
X438966Y207033D01*
X438976Y207031D01*
X448076D01*
X453882Y201226D01*
Y159449D01*
X453946Y159126D01*
X454128Y158853D01*
X454402Y158670D01*
X454725Y158606D01*
X470123D01*
X471598Y157131D01*
Y112205D01*
X471598Y110602D01*
X471284Y107412D01*
X470659Y104269D01*
X469728Y101201D01*
X468502Y98240D01*
X466991Y95414D01*
X465210Y92748D01*
X463177Y90271D01*
X460910Y88004D01*
X460599Y87749D01*
X460204Y88072D01*
X460741Y89077D01*
X461136Y90379D01*
X461270Y91732D01*
X461136Y93086D01*
X460741Y94388D01*
X460100Y95587D01*
X459237Y96639D01*
X458186Y97502D01*
X456986Y98143D01*
X455684Y98538D01*
X454331Y98671D01*
X452977Y98538D01*
X451675Y98143D01*
X450476Y97502D01*
X449424Y96639D01*
X448561Y95587D01*
X447920Y94388D01*
X447525Y93086D01*
X447392Y91732D01*
X447525Y90379D01*
X447920Y89077D01*
X448561Y87877D01*
X449424Y86826D01*
X450476Y85963D01*
X451675Y85322D01*
X452977Y84927D01*
X454331Y84793D01*
X455684Y84927D01*
X456206Y85085D01*
X456422Y84628D01*
X455767Y84190D01*
X452941Y82679D01*
X449980Y81453D01*
X446912Y80523D01*
X443769Y79897D01*
X440579Y79583D01*
X438976Y79583D01*
X434666D01*
X434597Y80083D01*
X435724Y81008D01*
X436710Y82210D01*
X437443Y83580D01*
X437894Y85067D01*
X437997Y86114D01*
X429134D01*
X420271D01*
X420374Y85067D01*
X420825Y83580D01*
X421558Y82210D01*
X422544Y81008D01*
X423671Y80083D01*
X423602Y79583D01*
X400449D01*
Y98425D01*
X400385Y98748D01*
X400202Y99021D01*
X394297Y104927D01*
X394023Y105110D01*
X393701Y105174D01*
X375984D01*
X375573Y105602D01*
Y109180D01*
X375472Y109687D01*
X375184Y110117D01*
X373292Y112010D01*
X373708Y112633D01*
X373877Y113484D01*
X373708Y114335D01*
X373226Y115057D01*
X372505Y115539D01*
X371654Y115708D01*
X370802Y115539D01*
X370081Y115057D01*
X369916Y114810D01*
X369384D01*
X368877Y114709D01*
X368447Y114421D01*
X368051Y114025D01*
X338144D01*
X336876Y115294D01*
X336947Y115465D01*
X337049Y116240D01*
X336947Y117015D01*
X336648Y117737D01*
X336172Y118357D01*
X335552Y118833D01*
X335483Y118862D01*
Y128654D01*
X335483Y128654D01*
X335776Y129011D01*
X339739D01*
Y136365D01*
X338887D01*
Y136740D01*
X338779Y137286D01*
X338469Y137750D01*
X338469Y137750D01*
X337909Y138309D01*
X337446Y138619D01*
X336980Y138712D01*
X336873Y138873D01*
X336151Y139355D01*
X335300Y139524D01*
X334449Y139355D01*
X333927Y139006D01*
X333427Y139255D01*
Y157384D01*
X333427Y157384D01*
X333319Y157930D01*
X333009Y158394D01*
X329009Y162394D01*
X328966Y162423D01*
X325681Y165708D01*
Y169764D01*
X326067Y170081D01*
X326100Y170074D01*
X328065D01*
Y167743D01*
X332638D01*
Y165800D01*
X332762Y165176D01*
X333116Y164646D01*
X335506Y162257D01*
Y155363D01*
X335630Y154739D01*
X335983Y154209D01*
X340597Y149597D01*
X341126Y149243D01*
X341750Y149119D01*
X345438D01*
X345776Y148893D01*
X346400Y148769D01*
X352316D01*
X352949Y148345D01*
X353800Y148176D01*
X354651Y148345D01*
X355373Y148828D01*
X355855Y149549D01*
X356024Y150400D01*
X355855Y151251D01*
X355373Y151972D01*
X354651Y152454D01*
X353800Y152624D01*
X352949Y152454D01*
X352316Y152031D01*
X347012D01*
X346674Y152257D01*
X346050Y152381D01*
X342426D01*
X338768Y156039D01*
Y162932D01*
X338644Y163557D01*
X338291Y164086D01*
X335901Y166476D01*
Y176569D01*
X336155Y176949D01*
X336324Y177800D01*
X336155Y178651D01*
X335672Y179373D01*
X334951Y179855D01*
X334100Y180024D01*
X333249Y179855D01*
X332527Y179373D01*
X332045Y178651D01*
X331876Y177800D01*
X332045Y176949D01*
X332527Y176227D01*
X332638Y176154D01*
Y175057D01*
X328065D01*
Y172725D01*
X326779D01*
Y179574D01*
X326678Y180081D01*
X326426Y180459D01*
Y184547D01*
X326887Y184738D01*
X328516Y183109D01*
X328728Y182968D01*
Y181767D01*
X336082D01*
Y185507D01*
Y187287D01*
X328695D01*
X328266Y187109D01*
X327525Y187849D01*
Y202681D01*
X328228Y202821D01*
X328728Y202541D01*
Y200665D01*
X331905D01*
Y202944D01*
X332405D01*
Y203444D01*
X336082D01*
Y205359D01*
X336084D01*
X336592Y205460D01*
X336710Y205539D01*
X337363Y205463D01*
X339751Y203074D01*
Y200665D01*
X347106D01*
X347401Y200525D01*
X347456Y200008D01*
X346216Y198768D01*
X345413D01*
Y199909D01*
X340657D01*
Y194365D01*
X341797D01*
Y193806D01*
X339751D01*
Y190684D01*
X339289Y190493D01*
X337102Y192680D01*
X336572Y193034D01*
X336082Y193131D01*
Y193806D01*
X334921D01*
X334646Y194306D01*
X334684Y194365D01*
X335448D01*
Y197137D01*
Y199909D01*
X333570D01*
Y197997D01*
X333070Y197690D01*
X332400Y197824D01*
X331549Y197654D01*
X330827Y197172D01*
X330345Y196451D01*
X330176Y195600D01*
X330345Y194749D01*
X330641Y194306D01*
X330394Y193806D01*
X328728D01*
Y189247D01*
Y188287D01*
X336082D01*
Y188433D01*
X336544Y188624D01*
X339606Y185562D01*
Y185263D01*
X339730Y184638D01*
X339751Y184607D01*
Y181767D01*
X347106D01*
Y186326D01*
X342851D01*
X342745Y186862D01*
X342391Y187391D01*
X340997Y188785D01*
X341188Y189247D01*
X347106D01*
Y193806D01*
X345060D01*
Y194365D01*
X345413D01*
Y195506D01*
X346892D01*
X347516Y195630D01*
X348046Y195984D01*
X350309Y198247D01*
X350662Y198776D01*
X350786Y199400D01*
Y205791D01*
X351287Y205943D01*
X351564Y205527D01*
X352285Y205045D01*
X352346Y205033D01*
Y199785D01*
X354930D01*
X355082Y199285D01*
X354824Y199113D01*
X352413Y196702D01*
X352362Y196712D01*
X351511Y196543D01*
X350790Y196061D01*
X350308Y195339D01*
X350138Y194488D01*
X350308Y193637D01*
X350790Y192916D01*
X351511Y192434D01*
X352061Y192324D01*
X352346Y191943D01*
X352346Y191790D01*
Y185022D01*
X355890D01*
Y184198D01*
X355449Y183963D01*
X355182Y184141D01*
X354331Y184310D01*
X353480Y184141D01*
X352758Y183659D01*
X352276Y182938D01*
X352107Y182087D01*
X352276Y181236D01*
X352699Y180602D01*
Y178740D01*
X352823Y178116D01*
X353177Y177587D01*
X354358Y176406D01*
X354888Y176052D01*
X355512Y175928D01*
X357071D01*
Y171045D01*
X353665Y167639D01*
X353220Y167782D01*
X353165Y167823D01*
Y167831D01*
X351189D01*
Y164173D01*
Y160516D01*
X353104D01*
Y159858D01*
X352075D01*
Y157087D01*
Y154315D01*
X353953D01*
Y154315D01*
X354237Y154548D01*
X354634Y154469D01*
X355485Y154638D01*
X355784Y154838D01*
X356283Y154571D01*
Y154315D01*
X361039D01*
Y154792D01*
X362386D01*
Y152752D01*
X362192Y152623D01*
X360108Y150539D01*
X359148D01*
X358368Y150384D01*
X357706Y149942D01*
X356582Y148818D01*
X356140Y148156D01*
X355987Y147389D01*
X352080D01*
Y145751D01*
X347512D01*
X346731Y145596D01*
X346070Y145154D01*
X343941Y143025D01*
X343479Y143217D01*
Y147389D01*
X338920D01*
Y140035D01*
X338920D01*
X339179Y139719D01*
X339076Y139200D01*
X339245Y138349D01*
X339727Y137627D01*
X340449Y137145D01*
X341300Y136976D01*
X342151Y137145D01*
X342474Y137361D01*
X342514Y137345D01*
X342901Y137045D01*
Y136365D01*
X342661D01*
Y129011D01*
X347220D01*
Y136365D01*
X346979D01*
Y137050D01*
X347169Y137275D01*
X347775Y137307D01*
X349091Y135991D01*
X349091Y135991D01*
X349554Y135681D01*
X350100Y135573D01*
X350100Y135573D01*
X352080D01*
Y129011D01*
X352080D01*
X352255Y128798D01*
X352136Y128200D01*
X352209Y127831D01*
X352079Y127672D01*
X352079D01*
Y122128D01*
X356835D01*
Y127672D01*
X356835D01*
X356548Y128021D01*
X356584Y128200D01*
X356499Y128624D01*
X356816Y129011D01*
X357600D01*
Y132688D01*
X358600D01*
Y129011D01*
X363173D01*
Y127672D01*
X362043D01*
Y124900D01*
Y122128D01*
X363173D01*
Y120900D01*
X363173Y120900D01*
X363281Y120354D01*
X363591Y119891D01*
X365790Y117692D01*
X365790Y117691D01*
X366253Y117382D01*
X366799Y117273D01*
X373818D01*
X377373Y113719D01*
Y110469D01*
X377227Y110372D01*
X376745Y109651D01*
X376576Y108800D01*
X376745Y107949D01*
X377227Y107228D01*
X377949Y106746D01*
X378800Y106576D01*
X379651Y106746D01*
X380373Y107228D01*
X380855Y107949D01*
X381024Y108800D01*
X380855Y109651D01*
X380373Y110372D01*
X380227Y110469D01*
Y114310D01*
X380227Y114310D01*
X380119Y114857D01*
X379809Y115320D01*
X379809Y115320D01*
X375419Y119710D01*
X374956Y120020D01*
X374410Y120128D01*
X374409Y120128D01*
X367390D01*
X366027Y121491D01*
Y135794D01*
X365919Y136340D01*
X365609Y136803D01*
X365609Y136803D01*
X362840Y139573D01*
X363031Y140035D01*
X364120D01*
Y147389D01*
X363379D01*
X363188Y147851D01*
X364479Y149142D01*
X380981D01*
X381762Y149297D01*
X382423Y149739D01*
X382938Y150254D01*
X383380Y150916D01*
X383476Y151400D01*
X383551Y151511D01*
X383720Y152362D01*
X383551Y153213D01*
X383535Y153236D01*
Y188890D01*
X383551Y188913D01*
X383720Y189764D01*
X383551Y190615D01*
X383069Y191336D01*
X382347Y191818D01*
X381496Y191988D01*
X380645Y191818D01*
X379924Y191336D01*
X379441Y190615D01*
X379272Y189764D01*
X379441Y188913D01*
X379457Y188890D01*
Y172358D01*
X378811D01*
Y175591D01*
X378656Y176371D01*
X378214Y177032D01*
X371521Y183725D01*
X370859Y184167D01*
X370079Y184323D01*
X367732D01*
Y185022D01*
X369406D01*
Y190146D01*
X369867Y190337D01*
X370654Y189551D01*
Y185022D01*
X378559D01*
Y191943D01*
X374029D01*
X371223Y194749D01*
X370562Y195191D01*
X369781Y195346D01*
X360630D01*
X359850Y195191D01*
X359188Y194749D01*
X356382Y191943D01*
X353309D01*
X353213Y192434D01*
X353935Y192916D01*
X354417Y193637D01*
X354586Y194488D01*
X354576Y194539D01*
X356539Y196502D01*
X359842D01*
X360428Y196618D01*
X360924Y196950D01*
X363759Y199785D01*
X369406D01*
Y206707D01*
X361500D01*
Y201852D01*
X360714Y201066D01*
X360252Y201257D01*
Y206707D01*
X356125D01*
X355268Y207564D01*
X355191Y207951D01*
X354709Y208672D01*
X354294Y208950D01*
X354445Y209450D01*
X376994D01*
X382212Y204232D01*
Y198118D01*
X382197Y198095D01*
X382027Y197244D01*
X382197Y196393D01*
X382679Y195671D01*
X383400Y195189D01*
X384251Y195020D01*
X385102Y195189D01*
X385824Y195671D01*
X386306Y196393D01*
X386475Y197244D01*
X386306Y198095D01*
X386290Y198118D01*
Y203655D01*
X390196Y207561D01*
X411900D01*
X412680Y207716D01*
X413342Y208158D01*
X414924Y209740D01*
X414951Y209745D01*
X415672Y210227D01*
X416155Y210949D01*
X416324Y211800D01*
X416155Y212651D01*
X415672Y213372D01*
X414951Y213855D01*
X414100Y214024D01*
X413249Y213855D01*
X412528Y213372D01*
X412045Y212651D01*
X412040Y212624D01*
X411055Y211639D01*
X389351D01*
X388571Y211484D01*
X387909Y211042D01*
X383963Y207096D01*
X378824Y212235D01*
X378294Y212588D01*
X377670Y212712D01*
X351487D01*
X350863Y212588D01*
X350334Y212235D01*
X350155Y212056D01*
X347106D01*
Y212704D01*
X340086D01*
X339878Y213204D01*
X342709Y216034D01*
X343000Y215976D01*
X343851Y216145D01*
X344572Y216628D01*
X344745Y216885D01*
X345242Y216934D01*
X346095Y216082D01*
X346525Y215794D01*
X347032Y215693D01*
X347032Y215693D01*
X355219D01*
X355726Y215794D01*
X356156Y216082D01*
X356398Y216323D01*
X356860Y216132D01*
Y215703D01*
X358349D01*
X358407Y215412D01*
X358694Y214982D01*
X359114Y214563D01*
X359543Y214275D01*
X360051Y214175D01*
X397562D01*
X398070Y214275D01*
X398499Y214563D01*
X399160Y215223D01*
X399447Y215653D01*
X399457Y215703D01*
X405572D01*
Y220459D01*
X404015D01*
X403737Y220875D01*
X402675Y221937D01*
X402245Y222225D01*
X401917Y222290D01*
X401967Y222790D01*
X405572D01*
Y227546D01*
X402371D01*
X402031Y227995D01*
X402046Y228031D01*
X402046D01*
Y233968D01*
X401584D01*
Y234500D01*
X401484Y235007D01*
X401196Y235437D01*
X399615Y237018D01*
X399806Y237480D01*
X402046D01*
Y243417D01*
X401612D01*
X401578Y243587D01*
X401268Y244050D01*
X400709Y244609D01*
X400246Y244919D01*
X399700Y245027D01*
X399700Y245027D01*
X395571D01*
Y245728D01*
X396521D01*
Y251272D01*
X391765D01*
Y245728D01*
X392716D01*
Y245027D01*
X384591D01*
X384009Y245609D01*
X383546Y245919D01*
X383000Y246027D01*
X383000Y246027D01*
X380059D01*
X379513Y245919D01*
X379050Y245609D01*
X379050Y245609D01*
X378468Y245027D01*
X360800D01*
X360800Y245027D01*
X360254Y244919D01*
X359791Y244609D01*
X359791Y244609D01*
X357609Y242427D01*
X343900D01*
X343387Y242325D01*
X342198D01*
X341691Y242225D01*
X341261Y241937D01*
X338371Y239047D01*
X338083Y238617D01*
X338015Y238272D01*
X337529Y238202D01*
X337219Y238571D01*
X337324Y239100D01*
X337155Y239951D01*
X336672Y240672D01*
X335951Y241155D01*
X335100Y241324D01*
X335061Y241316D01*
X334924Y241407D01*
X334365Y241518D01*
Y246014D01*
X334277Y246452D01*
X334029Y246824D01*
X333658Y247072D01*
X333220Y247159D01*
X328544D01*
X328106Y247072D01*
X327735Y246824D01*
X327486Y246452D01*
X327399Y246014D01*
Y238386D01*
X327087Y238005D01*
X327043D01*
Y233053D01*
X332294D01*
X332343Y232553D01*
X331849Y232455D01*
X331128Y231973D01*
X330645Y231251D01*
X330476Y230400D01*
X330626Y229647D01*
X330358Y229147D01*
X327043D01*
Y226387D01*
X326581Y226196D01*
X324771Y228005D01*
Y234114D01*
X325018Y234278D01*
X325500Y235000D01*
X325669Y235851D01*
X325500Y236702D01*
X325018Y237423D01*
X324767Y237591D01*
X324718Y238088D01*
X324937Y238307D01*
X325225Y238737D01*
X325325Y239244D01*
Y244900D01*
X325225Y245407D01*
X324937Y245837D01*
X323591Y247184D01*
Y247728D01*
X323943D01*
Y250500D01*
X324443D01*
Y251000D01*
X326821D01*
Y253272D01*
X325399D01*
X325208Y253734D01*
X328023Y256549D01*
X333815D01*
X334290Y256375D01*
X334307Y256290D01*
X334308Y256204D01*
X334533Y255117D01*
X334560Y255053D01*
X334572Y254985D01*
X335369Y252913D01*
X335406Y252855D01*
X335429Y252790D01*
X336553Y250875D01*
X336598Y250823D01*
X336631Y250762D01*
X338051Y249056D01*
X338105Y249012D01*
X338147Y248957D01*
X339826Y247504D01*
X339886Y247470D01*
X339936Y247423D01*
X341828Y246261D01*
X341893Y246237D01*
X341951Y246199D01*
X344007Y245360D01*
X344075Y245347D01*
X344138Y245319D01*
X346302Y244826D01*
X346371Y244824D01*
X346438Y244806D01*
X348654Y244671D01*
X348723Y244680D01*
X348792Y244673D01*
X351000Y244900D01*
X351066Y244920D01*
X351135Y244925D01*
X353278Y245507D01*
X353340Y245538D01*
X353407Y245554D01*
X355426Y246476D01*
X355482Y246517D01*
X355546Y246543D01*
X357389Y247782D01*
X357438Y247831D01*
X357496Y247867D01*
X359113Y249389D01*
X359154Y249445D01*
X359205Y249491D01*
X360554Y251254D01*
X360584Y251316D01*
X360628Y251370D01*
X361672Y253329D01*
X361692Y253396D01*
X361726Y253455D01*
X362438Y255558D01*
X362447Y255627D01*
X362472Y255692D01*
X362832Y257882D01*
X362830Y257951D01*
X362843Y258019D01*
X362843Y260239D01*
X362830Y260307D01*
X362832Y260376D01*
X362472Y262567D01*
X362447Y262632D01*
X362438Y262700D01*
X361726Y264803D01*
X361692Y264863D01*
X361672Y264929D01*
X360628Y266889D01*
X360584Y266942D01*
X360554Y267004D01*
X359205Y268768D01*
X359154Y268814D01*
X359113Y268870D01*
X357496Y270391D01*
X357438Y270428D01*
X357389Y270477D01*
X355546Y271715D01*
X355482Y271742D01*
X355426Y271782D01*
X353407Y272705D01*
X353340Y272721D01*
X353278Y272751D01*
X351135Y273334D01*
X351066Y273338D01*
X351000Y273359D01*
X348792Y273585D01*
X348723Y273579D01*
X348654Y273588D01*
X346438Y273453D01*
X346371Y273435D01*
X346302Y273433D01*
X344138Y272939D01*
X344075Y272911D01*
X344007Y272898D01*
X341951Y272059D01*
X341893Y272021D01*
X341828Y271997D01*
X339936Y270836D01*
X339886Y270789D01*
X339826Y270755D01*
X338147Y269301D01*
X338105Y269247D01*
X338051Y269203D01*
X336631Y267496D01*
X336598Y267435D01*
X336553Y267384D01*
X335429Y265469D01*
X335406Y265404D01*
X335369Y265345D01*
X334572Y263273D01*
X334560Y263205D01*
X334533Y263141D01*
X334308Y262054D01*
X334307Y261968D01*
X334290Y261883D01*
X333963Y261605D01*
X333842Y261562D01*
X326725D01*
X326218Y261461D01*
X325788Y261174D01*
X317886Y253272D01*
X314979D01*
Y248191D01*
X314479Y247984D01*
X310681Y251781D01*
X310185Y252113D01*
X309600Y252229D01*
X305577D01*
X305207Y252729D01*
X305223Y252813D01*
Y256886D01*
X310552D01*
X310961Y256967D01*
X311308Y257199D01*
X311540Y257546D01*
X311621Y257956D01*
Y265280D01*
X305679D01*
X299738D01*
Y261682D01*
X299307D01*
X298907Y261603D01*
X298904Y261601D01*
X298524Y261676D01*
X298191Y261899D01*
X297798Y261977D01*
X296239D01*
X295845Y261899D01*
X295739Y261828D01*
X295632Y261899D01*
X295239Y261977D01*
X293679D01*
X293286Y261899D01*
X293179Y261828D01*
X293073Y261899D01*
X292680Y261977D01*
X291121D01*
X290727Y261899D01*
X290620Y261828D01*
X290514Y261899D01*
X290121Y261977D01*
X288561D01*
X288168Y261899D01*
X288061Y261828D01*
X287955Y261899D01*
X287561Y261977D01*
X287282D01*
Y258300D01*
Y254623D01*
X287561D01*
X287955Y254701D01*
X288061Y254772D01*
X288168Y254701D01*
X288561Y254623D01*
X290121D01*
X290473Y254334D01*
Y252762D01*
X290473Y252762D01*
X290581Y252215D01*
X290891Y251752D01*
X296804Y245838D01*
X296486Y245450D01*
X296323Y245559D01*
X295472Y245728D01*
X294621Y245559D01*
X293900Y245076D01*
X293418Y244355D01*
X292966Y244168D01*
X292869Y244232D01*
X292323Y244341D01*
X292323Y244341D01*
X287890D01*
X287793Y244486D01*
X287071Y244968D01*
X286221Y245137D01*
X285369Y244968D01*
X284648Y244486D01*
X284166Y243764D01*
X283997Y242913D01*
X284166Y242062D01*
X284648Y241341D01*
X285369Y240859D01*
X286221Y240690D01*
X287071Y240859D01*
X287793Y241341D01*
X287890Y241486D01*
X291732D01*
X292076Y241141D01*
Y240945D01*
X292076Y240945D01*
X292185Y240399D01*
X292495Y239935D01*
X294517Y237913D01*
Y235618D01*
X294017Y235351D01*
X293764Y235519D01*
X292913Y235688D01*
X292062Y235519D01*
X291341Y235037D01*
X290859Y234316D01*
X290690Y233465D01*
X290773Y233043D01*
X290302Y232848D01*
X290155Y233069D01*
X289434Y233551D01*
X288583Y233720D01*
X287732Y233551D01*
X287010Y233069D01*
X286528Y232347D01*
X286481Y232108D01*
X286091Y232186D01*
X285240Y232017D01*
X284518Y231535D01*
X284036Y230813D01*
X283867Y229962D01*
X284036Y229111D01*
X284518Y228390D01*
X285240Y227908D01*
X285539Y227848D01*
X285631Y227616D01*
X285685Y227309D01*
X285245Y226651D01*
X285076Y225800D01*
X285245Y224949D01*
X285728Y224227D01*
X286449Y223745D01*
X287300Y223576D01*
X287629Y223642D01*
X288016Y223324D01*
Y220654D01*
X289515D01*
X289753Y220153D01*
X289483Y219802D01*
X289224Y219176D01*
X289135Y218504D01*
X289224Y217832D01*
X289483Y217205D01*
X289896Y216668D01*
X290434Y216255D01*
X291060Y215995D01*
X291732Y215907D01*
X292404Y215995D01*
X293031Y216255D01*
X293569Y216668D01*
X293804Y216974D01*
X294882D01*
X295467Y217091D01*
X295835Y217337D01*
X295862Y217342D01*
X296253Y217264D01*
X296420Y217172D01*
X296569Y216811D01*
X296982Y216273D01*
X297520Y215861D01*
X298146Y215601D01*
X298818Y215513D01*
X299490Y215601D01*
X300117Y215861D01*
X300655Y216273D01*
X301067Y216811D01*
X301327Y217438D01*
X301415Y218110D01*
X301327Y218782D01*
X301067Y219408D01*
X300660Y219939D01*
X300822Y220182D01*
X300916Y220654D01*
X300961D01*
Y224606D01*
X301795D01*
Y220654D01*
X312772D01*
Y226501D01*
X313745Y227475D01*
X314001Y227731D01*
X314422Y227460D01*
X316647Y225235D01*
X316549Y224744D01*
X316418Y224690D01*
X315880Y224277D01*
X315468Y223739D01*
X315208Y223113D01*
X315120Y222441D01*
X315208Y221769D01*
X315468Y221142D01*
X315880Y220605D01*
X316187Y220369D01*
Y219858D01*
X313567D01*
Y216756D01*
X317520D01*
Y215921D01*
X313567D01*
Y214787D01*
Y210850D01*
Y206913D01*
Y202976D01*
Y199039D01*
Y195102D01*
X317864D01*
Y191409D01*
X317864Y191409D01*
X317973Y190862D01*
X318282Y190399D01*
X319573Y189109D01*
Y178654D01*
X319573Y178654D01*
X319681Y178107D01*
X319991Y177644D01*
X320226Y177409D01*
Y163450D01*
X319764Y163259D01*
X317509Y165514D01*
Y184931D01*
X317855Y185449D01*
X318024Y186300D01*
X317855Y187151D01*
X317372Y187873D01*
X316651Y188355D01*
X315800Y188524D01*
X314949Y188355D01*
X314228Y187873D01*
X313745Y187151D01*
X313708Y186965D01*
X313230Y186820D01*
X312772Y187278D01*
Y194307D01*
X300008D01*
X299674Y194807D01*
X299753Y194997D01*
X299841Y195669D01*
X299753Y196342D01*
X299493Y196968D01*
X299080Y197506D01*
X298543Y197918D01*
X297916Y198178D01*
X297244Y198266D01*
X296572Y198178D01*
X295946Y197918D01*
X295408Y197506D01*
X294995Y196968D01*
X294736Y196342D01*
X294647Y195669D01*
X294736Y194997D01*
X294814Y194807D01*
X294480Y194307D01*
X288016D01*
Y187278D01*
X287967Y187230D01*
X287658Y186767D01*
X287549Y186221D01*
X287549Y186220D01*
Y184252D01*
X287549Y184252D01*
X287658Y183706D01*
X287967Y183243D01*
X289673Y181537D01*
Y157967D01*
X289173Y157918D01*
X289035Y158608D01*
X288510Y159395D01*
X287723Y159920D01*
X286795Y160105D01*
X285868Y159920D01*
X285195Y159471D01*
X284800Y159612D01*
X284695Y159693D01*
Y195102D01*
X287221D01*
Y197071D01*
Y201008D01*
Y205659D01*
X287720Y205965D01*
X287960Y205842D01*
X288105Y205493D01*
X288518Y204955D01*
X289056Y204542D01*
X289682Y204283D01*
X290354Y204194D01*
X291026Y204283D01*
X291653Y204542D01*
X292191Y204955D01*
X292603Y205493D01*
X292863Y206119D01*
X292951Y206791D01*
X292863Y207464D01*
X292603Y208090D01*
X292191Y208628D01*
X291653Y209040D01*
X291026Y209300D01*
X290354Y209388D01*
X289682Y209300D01*
X289147Y209078D01*
X288680Y209546D01*
X288184Y209877D01*
X287598Y209994D01*
X287221D01*
Y211057D01*
X287348Y211083D01*
X287811Y211392D01*
X288329Y211910D01*
X288500Y211876D01*
X289351Y212045D01*
X290072Y212527D01*
X290555Y213249D01*
X290724Y214100D01*
X290555Y214951D01*
X290072Y215672D01*
X289351Y216155D01*
X288500Y216324D01*
X287720Y216169D01*
X287334Y216323D01*
X287221Y216384D01*
Y219858D01*
X281533D01*
X281118Y220063D01*
Y224819D01*
X270850D01*
Y220063D01*
X271565D01*
X271975Y219563D01*
X271902Y219197D01*
Y218803D01*
X272056Y218029D01*
X272486Y217385D01*
Y216929D01*
X272603Y216344D01*
X272934Y215848D01*
X273541Y215241D01*
X274037Y214910D01*
X274622Y214793D01*
X274664D01*
X275043Y214293D01*
X274941Y213779D01*
X275110Y212928D01*
X275592Y212207D01*
X276314Y211724D01*
X277165Y211555D01*
X278016Y211724D01*
X278737Y212207D01*
X278834Y212352D01*
X279315D01*
Y210824D01*
X278815Y210557D01*
X278794Y210571D01*
X278248Y210679D01*
X278248Y210679D01*
X276339D01*
X276339Y210679D01*
X275793Y210571D01*
X275329Y210261D01*
X275329Y210261D01*
X273976Y208908D01*
X273667Y208445D01*
X273632Y208268D01*
X273196Y207962D01*
X273092Y207980D01*
X272342Y208129D01*
X271492Y207960D01*
X270770Y207478D01*
X270288Y206756D01*
X270188Y206254D01*
X230948D01*
X228329Y208873D01*
X227833Y209204D01*
X227772Y209217D01*
Y210917D01*
X222228D01*
Y209417D01*
X221728Y209322D01*
X221276Y209691D01*
Y210917D01*
X219004D01*
Y209039D01*
X220343D01*
X220550Y208539D01*
X218719Y206709D01*
X215732D01*
Y201953D01*
X216974D01*
Y200016D01*
X215067D01*
Y196063D01*
X214067D01*
Y200016D01*
X211130D01*
Y196063D01*
X210130D01*
Y200016D01*
X207193D01*
Y196063D01*
X206193D01*
Y200016D01*
X202665D01*
Y196063D01*
X202165D01*
Y195563D01*
X199197D01*
Y192126D01*
X198031D01*
X197693Y192486D01*
Y274748D01*
X249980D01*
X250049Y274248D01*
X248922Y273322D01*
X247936Y272121D01*
X247203Y270750D01*
X246752Y269263D01*
X246649Y268216D01*
X255906D01*
X265162D01*
X265059Y269263D01*
X264608Y270750D01*
X263875Y272121D01*
X262889Y273322D01*
X261762Y274248D01*
X261831Y274748D01*
X272194D01*
X272276Y274642D01*
X272416Y274248D01*
X272260Y274014D01*
X272179Y273605D01*
Y266280D01*
X278120D01*
X284062D01*
Y273605D01*
X283981Y274014D01*
X283825Y274248D01*
X283965Y274642D01*
X284047Y274748D01*
X299753D01*
X299835Y274642D01*
X299975Y274248D01*
X299819Y274014D01*
X299738Y273605D01*
Y266280D01*
X305679D01*
X311621D01*
Y273605D01*
X311540Y274014D01*
X311384Y274248D01*
X311524Y274642D01*
X311606Y274748D01*
X318533D01*
X318607Y274248D01*
X318211Y274127D01*
X317011Y273486D01*
X315960Y272623D01*
X315097Y271572D01*
X314455Y270372D01*
X314061Y269070D01*
X313977Y268216D01*
X320866D01*
X327756D01*
X327672Y269070D01*
X327277Y270372D01*
X326636Y271572D01*
X325773Y272623D01*
X324721Y273486D01*
X323521Y274127D01*
X323125Y274248D01*
X323199Y274748D01*
X375964D01*
X376033Y274248D01*
X374906Y273322D01*
X373920Y272121D01*
X373187Y270750D01*
X372736Y269263D01*
X372633Y268216D01*
X381890D01*
X391146D01*
X391043Y269263D01*
X390592Y270750D01*
X389860Y272121D01*
X388874Y273322D01*
X387746Y274248D01*
X387816Y274748D01*
X405947D01*
Y257917D01*
D02*
G37*
G36*
X358527Y238228D02*
X359249Y237745D01*
X360100Y237576D01*
X360951Y237745D01*
X361113Y237853D01*
X361554Y237618D01*
Y237480D01*
X362016D01*
Y237059D01*
X362116Y236552D01*
X362404Y236122D01*
X364095Y234430D01*
X363904Y233968D01*
X361554D01*
Y232378D01*
X361254Y232319D01*
X360791Y232009D01*
X360791Y232009D01*
X357654Y228873D01*
X357487D01*
X357487Y228873D01*
X356941Y228764D01*
X356478Y228455D01*
X356478Y228455D01*
X355491Y227468D01*
X355181Y227005D01*
X355073Y226459D01*
X355073Y226459D01*
Y223009D01*
X354811Y222841D01*
X354585Y222790D01*
X352137Y225237D01*
X351725Y225513D01*
Y226087D01*
X350082D01*
Y228443D01*
X349996Y228876D01*
X350212Y229376D01*
X351725D01*
Y230663D01*
X348757D01*
Y231663D01*
X351725D01*
Y233512D01*
X351921Y233707D01*
X351994Y233756D01*
X352462Y234225D01*
X352750Y234655D01*
X352851Y235162D01*
Y236451D01*
X354874Y238474D01*
X358363D01*
X358527Y238228D01*
D02*
G37*
G36*
X337246Y227463D02*
X337676Y227175D01*
X338184Y227075D01*
X340451D01*
X340938Y226587D01*
X340745Y226087D01*
X339808D01*
Y224300D01*
X339308D01*
Y223800D01*
X336339D01*
Y222214D01*
X335463Y221337D01*
X335175Y220907D01*
X335074Y220400D01*
Y217800D01*
X335175Y217293D01*
X335463Y216863D01*
X335756Y216570D01*
Y212704D01*
X333332D01*
X333140Y213166D01*
X333618Y213644D01*
X333906Y214074D01*
X334007Y214581D01*
Y222838D01*
X335095Y223926D01*
X335382Y224356D01*
X335483Y224863D01*
Y228519D01*
X335983Y228726D01*
X337246Y227463D01*
D02*
G37*
G36*
X272075Y196091D02*
X272604Y195737D01*
X273228Y195613D01*
X273712D01*
X274346Y195189D01*
X275197Y195020D01*
X276048Y195189D01*
X276247Y195322D01*
X276688Y195087D01*
Y193504D01*
X276688Y193504D01*
X276796Y192958D01*
X277106Y192495D01*
X279064Y190536D01*
Y162069D01*
X277106Y160111D01*
X276796Y159648D01*
X276688Y159101D01*
X276688Y159101D01*
Y156906D01*
X272291Y152509D01*
X271981Y152046D01*
X271873Y151500D01*
X271873Y151500D01*
Y143803D01*
X271828Y143772D01*
X271345Y143051D01*
X271176Y142200D01*
X271345Y141349D01*
X271828Y140628D01*
X272372Y140264D01*
X272375Y140235D01*
X272065Y139772D01*
X271957Y139226D01*
X271957Y139226D01*
Y137008D01*
X271920Y136963D01*
X271641D01*
Y134191D01*
Y131420D01*
X272059D01*
Y130827D01*
X271957Y130315D01*
Y129100D01*
X271957Y129100D01*
X272065Y128554D01*
X272375Y128091D01*
X278102Y122364D01*
X278102Y122364D01*
X278565Y122055D01*
X279111Y121946D01*
X279111Y121946D01*
X281465D01*
Y119854D01*
X281712D01*
X282119Y119354D01*
X282098Y119247D01*
X277236Y114386D01*
X273114D01*
Y111209D01*
X272992Y111087D01*
X252983D01*
X252476Y110986D01*
X252046Y110699D01*
X243473Y102126D01*
X238049D01*
X233332Y106843D01*
X232902Y107130D01*
X232395Y107231D01*
X224803D01*
X224296Y107130D01*
X223866Y106843D01*
X221763Y104740D01*
X218488D01*
Y99197D01*
X219136D01*
X219439Y98819D01*
X219547Y98273D01*
X219857Y97810D01*
X220260Y97407D01*
Y96145D01*
X223819D01*
Y95169D01*
X220260D01*
Y94201D01*
X223819D01*
Y93201D01*
X220260D01*
Y92209D01*
X219788Y92142D01*
X218488D01*
Y86598D01*
X223244D01*
Y87943D01*
X224295D01*
Y85811D01*
X224504D01*
X224563Y85516D01*
X224850Y85086D01*
X225441Y84496D01*
X225871Y84209D01*
X226378Y84108D01*
X232077D01*
X232584Y84209D01*
X233014Y84496D01*
X234402Y85883D01*
X234689Y86313D01*
X234790Y86821D01*
Y90396D01*
X235377Y90983D01*
X243309D01*
X243816Y91084D01*
X244246Y91371D01*
X255648Y102774D01*
X268140D01*
X269895Y101018D01*
X270325Y100731D01*
X270832Y100630D01*
X273114D01*
Y100575D01*
X280429D01*
Y102136D01*
X280816Y102453D01*
X281110Y102394D01*
X281961Y102564D01*
X282683Y103046D01*
X283165Y103767D01*
X283334Y104618D01*
X283169Y105449D01*
X283856Y105908D01*
X284338Y106629D01*
X284507Y107480D01*
X284338Y108331D01*
X283856Y109053D01*
X283169Y109512D01*
X283334Y110343D01*
X283165Y111194D01*
X282683Y111915D01*
X281961Y112397D01*
X281110Y112566D01*
X280703Y112988D01*
X280692Y113228D01*
X284157Y116693D01*
X284252Y116674D01*
X285103Y116843D01*
X285824Y117325D01*
X286307Y118047D01*
X286476Y118898D01*
X286385Y119354D01*
X286792Y119854D01*
X287606D01*
Y117377D01*
X289158D01*
Y116877D01*
X289575D01*
Y113712D01*
X292677D01*
Y116877D01*
X293512D01*
Y113712D01*
X295604D01*
Y111123D01*
X292238Y107757D01*
X289158D01*
Y100442D01*
X290192D01*
Y93980D01*
X290192Y93980D01*
X290301Y93434D01*
X290610Y92971D01*
X291520Y92062D01*
Y87351D01*
X293685D01*
Y83115D01*
X293223Y82923D01*
X286614Y89532D01*
X286614Y110436D01*
Y115748D01*
X285039D01*
Y108861D01*
X285039Y87995D01*
X292235Y80800D01*
X305603Y80800D01*
X315748Y90945D01*
X315748Y98818D01*
X315965Y99228D01*
X317843D01*
Y102000D01*
X318343D01*
Y102500D01*
X320721D01*
Y104142D01*
X321605D01*
Y111458D01*
X320721D01*
Y113100D01*
X318343D01*
Y113600D01*
X317843D01*
Y116372D01*
X315965D01*
X315596Y116687D01*
X312831Y119453D01*
X312598Y119854D01*
X312598D01*
X312598Y119854D01*
Y121844D01*
X314579D01*
X315552Y120871D01*
X316049Y120539D01*
X316634Y120423D01*
X323454D01*
X323535Y120015D01*
X324017Y119293D01*
X324739Y118811D01*
X325590Y118642D01*
X326441Y118811D01*
X327162Y119293D01*
X327644Y120015D01*
X327814Y120866D01*
X327644Y121717D01*
X327282Y122260D01*
X327557Y122443D01*
X328039Y123165D01*
X328208Y124016D01*
X328039Y124867D01*
X327557Y125588D01*
X326835Y126070D01*
X325984Y126240D01*
X325133Y126070D01*
X324412Y125588D01*
X324383Y125545D01*
X318085D01*
X317223Y126407D01*
X317212Y126526D01*
X320420Y129734D01*
X320420Y129734D01*
X320729Y130197D01*
X320838Y130743D01*
X320838Y130743D01*
Y131680D01*
X321547D01*
Y134452D01*
Y137224D01*
X320838D01*
Y141420D01*
X320838Y141420D01*
X320729Y141966D01*
X320420Y142429D01*
X320420Y142429D01*
X318232Y144617D01*
X318411Y145145D01*
X319126Y145239D01*
X320088Y145637D01*
X320914Y146271D01*
X321547Y147096D01*
X321946Y148058D01*
X322081Y149090D01*
X321946Y150122D01*
X321547Y151083D01*
X320914Y151909D01*
X320088Y152542D01*
X319126Y152941D01*
X318481Y153026D01*
X318252Y153560D01*
X318402Y153785D01*
X318510Y154331D01*
Y155774D01*
X318797Y155966D01*
X319323Y156753D01*
X319507Y157680D01*
X319323Y158608D01*
X318797Y159395D01*
X318010Y159920D01*
X317083Y160105D01*
X316155Y159920D01*
X315368Y159395D01*
X315132Y159041D01*
X314632D01*
X314396Y159395D01*
X314207Y159521D01*
Y164586D01*
X314207Y164586D01*
X314098Y165132D01*
X313789Y165595D01*
X313789Y165595D01*
X306841Y172543D01*
Y176646D01*
X307341Y177016D01*
X307874Y176910D01*
X308725Y177079D01*
X309086Y177321D01*
X309451Y176774D01*
X310173Y176292D01*
X311024Y176123D01*
X311660Y176249D01*
X311725Y175921D01*
X312207Y175199D01*
X312929Y174717D01*
X313779Y174548D01*
X314154Y174622D01*
X314654Y174212D01*
Y164923D01*
X314654Y164923D01*
X314762Y164377D01*
X315072Y163914D01*
X324558Y154427D01*
Y145270D01*
X324545Y145251D01*
X324376Y144400D01*
X324545Y143549D01*
X325027Y142827D01*
X325749Y142345D01*
X326600Y142176D01*
X326926Y142241D01*
X327313Y141924D01*
Y128896D01*
X327313Y128896D01*
X327421Y128350D01*
X327731Y127887D01*
X329043Y126574D01*
Y119448D01*
X325391Y115795D01*
X325081Y115332D01*
X324973Y114786D01*
X324973Y114786D01*
Y109722D01*
X324903Y109693D01*
X324283Y109217D01*
X323807Y108597D01*
X323508Y107875D01*
X323406Y107100D01*
X323508Y106325D01*
X323807Y105603D01*
X324283Y104983D01*
X324903Y104507D01*
X325625Y104208D01*
X326400Y104106D01*
X327175Y104208D01*
X327897Y104507D01*
X328517Y104983D01*
X328993Y105603D01*
X329064Y105774D01*
X329539D01*
X329807Y105274D01*
X329775Y105228D01*
X329679Y104740D01*
X329428Y104572D01*
X328945Y103851D01*
X328776Y103000D01*
X328945Y102149D01*
X329428Y101427D01*
X330149Y100945D01*
X331000Y100776D01*
X331851Y100945D01*
X332573Y101427D01*
X333055Y102149D01*
X333224Y103000D01*
X333055Y103851D01*
X332634Y104480D01*
X335910Y107756D01*
X370685D01*
X370722Y107719D01*
Y105497D01*
X370645Y105404D01*
X370222Y105145D01*
X370079Y105174D01*
X366142D01*
X365819Y105110D01*
X365546Y104927D01*
X365363Y104653D01*
X365299Y104331D01*
Y79583D01*
X265768D01*
X265699Y80083D01*
X266826Y81008D01*
X267812Y82210D01*
X268545Y83580D01*
X268996Y85067D01*
X269099Y86114D01*
X259842D01*
X250586D01*
X250689Y85067D01*
X251140Y83580D01*
X251873Y82210D01*
X252859Y81008D01*
X253986Y80083D01*
X253917Y79583D01*
X197693D01*
Y161845D01*
X198031Y162205D01*
X199197D01*
Y158768D01*
X202165D01*
Y158268D01*
X202665D01*
Y154315D01*
X206193D01*
Y158268D01*
X207193D01*
Y154315D01*
X218004D01*
Y158268D01*
Y162221D01*
X216732D01*
Y192110D01*
X233752D01*
Y196063D01*
X234752D01*
Y192110D01*
X237689D01*
Y196063D01*
X238689D01*
Y192110D01*
X252378D01*
Y196006D01*
X257071D01*
Y195260D01*
X262614D01*
Y196794D01*
X271372D01*
X272075Y196091D01*
D02*
G37*
G36*
X297573Y108401D02*
Y105591D01*
X297572Y105591D01*
X297681Y105045D01*
X297991Y104582D01*
X298016Y104557D01*
Y100442D01*
X297544Y100375D01*
X295776D01*
Y97013D01*
X294776D01*
Y100375D01*
X294583D01*
X294110Y100442D01*
Y105591D01*
X297111Y108592D01*
X297573Y108401D01*
D02*
G37*
G36*
X314961Y116142D02*
X314961Y91539D01*
X313076Y89654D01*
X312676Y89820D01*
X309842D01*
Y90320D01*
X309343D01*
Y92698D01*
X307693D01*
Y94076D01*
X307693D01*
Y95028D01*
X312614D01*
Y99228D01*
X313635D01*
Y104772D01*
X312747D01*
Y110828D01*
X313635D01*
Y116372D01*
X309554D01*
X309447Y116533D01*
X308725Y117015D01*
X307874Y117184D01*
X307023Y117015D01*
X306898Y116931D01*
X306457Y117167D01*
Y119854D01*
X311249D01*
X314961Y116142D01*
D02*
G37*
G36*
X394826Y96108D02*
Y83026D01*
X391383Y79583D01*
X385501D01*
X385447Y80061D01*
X385447D01*
Y84592D01*
X385907Y84687D01*
Y84687D01*
X388080D01*
Y86376D01*
X388580D01*
Y86876D01*
X391253D01*
Y88560D01*
X391640Y88877D01*
X391929Y88819D01*
X392780Y88989D01*
X393502Y89471D01*
X393984Y90192D01*
X394153Y91043D01*
X393984Y91894D01*
X393502Y92616D01*
X392780Y93098D01*
X392317Y93190D01*
X392087Y93745D01*
X392212Y93932D01*
X392381Y94784D01*
X392212Y95635D01*
X391730Y96356D01*
X391008Y96838D01*
X390158Y97007D01*
X389306Y96838D01*
X388611Y96373D01*
X385447D01*
Y97415D01*
X382707D01*
X382620Y97852D01*
X382332Y98282D01*
X382040Y98575D01*
X381610Y98862D01*
X381102Y98963D01*
X376369D01*
X376246Y99051D01*
X376242Y99077D01*
X376553Y99551D01*
X391383D01*
X394826Y96108D01*
D02*
G37*
%LPC*%
G36*
X327756Y267216D02*
X321366D01*
Y260827D01*
X322220Y260911D01*
X323521Y261306D01*
X324721Y261947D01*
X325773Y262810D01*
X326636Y263861D01*
X327277Y265061D01*
X327672Y266363D01*
X327756Y267216D01*
D02*
G37*
G36*
X320366D02*
X313977D01*
X314061Y266363D01*
X314455Y265061D01*
X315097Y263861D01*
X315960Y262810D01*
X317011Y261947D01*
X318211Y261306D01*
X319512Y260911D01*
X320366Y260827D01*
Y267216D01*
D02*
G37*
G36*
X391146D02*
X382390D01*
Y259789D01*
X383268D01*
X384814Y259941D01*
X386302Y260392D01*
X387672Y261125D01*
X388874Y262111D01*
X389860Y263312D01*
X390592Y264683D01*
X391043Y266170D01*
X391146Y267216D01*
D02*
G37*
G36*
X381390D02*
X372633D01*
X372736Y266170D01*
X373187Y264683D01*
X373920Y263312D01*
X374906Y262111D01*
X376107Y261125D01*
X377478Y260392D01*
X378965Y259941D01*
X380512Y259789D01*
X381390D01*
Y267216D01*
D02*
G37*
G36*
X265162D02*
X256405D01*
Y259789D01*
X257283D01*
X258830Y259941D01*
X260317Y260392D01*
X261688Y261125D01*
X262889Y262111D01*
X263875Y263312D01*
X264608Y264683D01*
X265059Y266170D01*
X265162Y267216D01*
D02*
G37*
G36*
X255405D02*
X246649D01*
X246752Y266170D01*
X247203Y264683D01*
X247936Y263312D01*
X248922Y262111D01*
X250123Y261125D01*
X251494Y260392D01*
X252981Y259941D01*
X254528Y259789D01*
X255405D01*
Y267216D01*
D02*
G37*
G36*
X401378Y266181D02*
X399016D01*
X398292Y266086D01*
X397618Y265807D01*
X397039Y265363D01*
X396595Y264784D01*
X396316Y264109D01*
X396220Y263386D01*
X396316Y262662D01*
X396595Y261988D01*
X397039Y261409D01*
X397259Y261240D01*
Y260610D01*
X397039Y260441D01*
X396595Y259862D01*
X396316Y259188D01*
X396220Y258465D01*
X396316Y257741D01*
X396595Y257067D01*
X397039Y256488D01*
X397618Y256044D01*
X398292Y255764D01*
X399016Y255669D01*
X401378D01*
X402102Y255764D01*
X402776Y256044D01*
X403355Y256488D01*
X403799Y257067D01*
X404078Y257741D01*
X404174Y258465D01*
X404078Y259188D01*
X403799Y259862D01*
X403355Y260441D01*
X403135Y260610D01*
Y261240D01*
X403355Y261409D01*
X403799Y261988D01*
X404078Y262662D01*
X404174Y263386D01*
X404078Y264109D01*
X403799Y264784D01*
X403355Y265363D01*
X402776Y265807D01*
X402102Y266086D01*
X401378Y266181D01*
D02*
G37*
G36*
X284062Y265280D02*
X278120D01*
X272179D01*
Y257956D01*
X272260Y257546D01*
X272492Y257199D01*
X272839Y256967D01*
X273248Y256886D01*
X278577D01*
Y252813D01*
X278656Y252413D01*
X278883Y252074D01*
X279222Y251848D01*
X279622Y251768D01*
X281557D01*
Y256725D01*
X282558D01*
Y251768D01*
X284493D01*
X284893Y251848D01*
X285232Y252074D01*
X285459Y252413D01*
X285538Y252813D01*
Y254205D01*
X286002Y254623D01*
X286282D01*
Y258300D01*
Y261977D01*
X286002D01*
X285609Y261899D01*
X285276Y261676D01*
X284896Y261601D01*
X284893Y261603D01*
X284493Y261682D01*
X284062D01*
Y265280D01*
D02*
G37*
G36*
X389435Y251272D02*
X387557D01*
Y249000D01*
X389435D01*
Y251272D01*
D02*
G37*
G36*
X386557D02*
X384679D01*
Y249000D01*
X386557D01*
Y251272D01*
D02*
G37*
G36*
X326821Y250000D02*
X324943D01*
Y247728D01*
X326821D01*
Y250000D01*
D02*
G37*
G36*
X389435Y248000D02*
X387557D01*
Y245728D01*
X389435D01*
Y248000D01*
D02*
G37*
G36*
X386557D02*
X384679D01*
Y245728D01*
X386557D01*
Y248000D01*
D02*
G37*
G36*
X281118Y231906D02*
X278847D01*
Y230028D01*
X281118D01*
Y231906D01*
D02*
G37*
G36*
X273122D02*
X270850D01*
Y230028D01*
X273122D01*
Y231906D01*
D02*
G37*
G36*
X281118Y229028D02*
X278847D01*
Y227150D01*
X281118D01*
Y229028D01*
D02*
G37*
G36*
X277847Y231906D02*
X274122D01*
Y229528D01*
Y227150D01*
X277847D01*
Y229528D01*
Y231906D01*
D02*
G37*
G36*
X273122Y229028D02*
X270850D01*
Y227150D01*
X273122D01*
Y229028D01*
D02*
G37*
G36*
X227772Y213795D02*
X225500D01*
Y211917D01*
X227772D01*
Y213795D01*
D02*
G37*
G36*
X224500D02*
X222228D01*
Y211917D01*
X224500D01*
Y213795D01*
D02*
G37*
G36*
X221276D02*
X219004D01*
Y211917D01*
X221276D01*
Y213795D01*
D02*
G37*
G36*
X218004D02*
X215732D01*
Y211917D01*
X218004D01*
Y213795D01*
D02*
G37*
G36*
Y210917D02*
X215732D01*
Y209039D01*
X218004D01*
Y210917D01*
D02*
G37*
G36*
X378559Y206707D02*
X375106D01*
Y203746D01*
X378559D01*
Y206707D01*
D02*
G37*
G36*
X374106D02*
X370654D01*
Y203746D01*
X374106D01*
Y206707D01*
D02*
G37*
G36*
X336082Y202444D02*
X332905D01*
Y200665D01*
X336082D01*
Y202444D01*
D02*
G37*
G36*
X378559Y202746D02*
X375106D01*
Y199785D01*
X378559D01*
Y202746D01*
D02*
G37*
G36*
X374106D02*
X370654D01*
Y199785D01*
X374106D01*
Y202746D01*
D02*
G37*
G36*
X338326Y199909D02*
X336448D01*
Y197637D01*
X338326D01*
Y199909D01*
D02*
G37*
G36*
X201665Y200016D02*
X199197D01*
Y196563D01*
X201665D01*
Y200016D01*
D02*
G37*
G36*
X338326Y196637D02*
X336448D01*
Y194365D01*
X338326D01*
Y196637D01*
D02*
G37*
G36*
X418091Y191438D02*
X414953Y188301D01*
X418091Y185163D01*
X421228Y188301D01*
X418091Y191438D01*
D02*
G37*
G36*
X421935Y187594D02*
X418798Y184456D01*
X421935Y181319D01*
X425073Y184456D01*
X421935Y187594D01*
D02*
G37*
G36*
X412100Y206924D02*
X411249Y206755D01*
X410528Y206273D01*
X410045Y205551D01*
X409876Y204700D01*
X410045Y203849D01*
X410291Y203482D01*
X410127Y203373D01*
X409645Y202651D01*
X409476Y201800D01*
X409495Y201704D01*
X409042Y201614D01*
X408320Y201132D01*
X407838Y200410D01*
X407669Y199559D01*
X407838Y198708D01*
X408320Y197987D01*
X408697Y197735D01*
Y197134D01*
X408270Y196848D01*
X407788Y196127D01*
X407619Y195276D01*
X407788Y194425D01*
X408270Y193703D01*
X408991Y193221D01*
X409842Y193052D01*
X410694Y193221D01*
X411415Y193703D01*
X411512Y193848D01*
X414651D01*
X414740Y193759D01*
X414740Y193759D01*
X415203Y193450D01*
X415749Y193341D01*
X419340D01*
X419532Y192879D01*
X418798Y192145D01*
X422289Y188654D01*
X425780Y185163D01*
X428091Y187475D01*
X428742Y186824D01*
Y185183D01*
X428355Y184865D01*
X427781Y184980D01*
X426815Y184787D01*
X425996Y184240D01*
X425449Y183421D01*
X425257Y182455D01*
X425449Y181489D01*
X425996Y180669D01*
X426815Y180122D01*
X427781Y179930D01*
X428355Y180044D01*
X428359Y180041D01*
X428603Y179584D01*
X426647Y177627D01*
X424171D01*
X423625Y177519D01*
X423162Y177209D01*
X423162Y177209D01*
X421633Y175680D01*
X420543Y176770D01*
X413561Y169788D01*
X417528Y165821D01*
X421495Y161854D01*
X425694Y157656D01*
X432676Y164638D01*
X431586Y165728D01*
X433779Y167920D01*
X434088Y168383D01*
X434197Y168930D01*
X434197Y168930D01*
Y186231D01*
X434659Y186423D01*
X440591Y180491D01*
X440591Y180491D01*
X441054Y180181D01*
X441600Y180073D01*
X441600Y180073D01*
X443086D01*
X445598Y177561D01*
X452580Y184543D01*
X448382Y188741D01*
X446868Y190255D01*
X443377Y186764D01*
X442670Y187471D01*
X446161Y190962D01*
X444415Y192708D01*
X440448Y196675D01*
X437966Y194193D01*
X437580Y194580D01*
X437117Y194889D01*
X436571Y194998D01*
X436570Y194998D01*
X431959D01*
X425979Y200978D01*
X425516Y201287D01*
X424970Y201396D01*
X424970Y201396D01*
X424961D01*
X424803Y201427D01*
X424803Y201427D01*
X418463D01*
X415781Y204109D01*
X415318Y204419D01*
X414772Y204527D01*
X414772Y204527D01*
X414324Y204700D01*
X414155Y205551D01*
X413672Y206273D01*
X412951Y206755D01*
X412100Y206924D01*
D02*
G37*
G36*
X353165Y176098D02*
X351189D01*
Y172941D01*
X353165D01*
Y176098D01*
D02*
G37*
G36*
X350189D02*
X348213D01*
Y172941D01*
X350189D01*
Y176098D01*
D02*
G37*
G36*
X405512Y205567D02*
X389764D01*
X389441Y205503D01*
X389168Y205321D01*
X388985Y205047D01*
X388921Y204724D01*
Y149606D01*
X388985Y149284D01*
X389168Y149010D01*
X389441Y148828D01*
X389764Y148763D01*
X405512D01*
X405834Y148828D01*
X406108Y149010D01*
X406291Y149284D01*
X406355Y149606D01*
Y167951D01*
X406855Y168197D01*
X407103Y168007D01*
X407825Y167708D01*
X408600Y167606D01*
X409375Y167708D01*
X410097Y168007D01*
X410717Y168483D01*
X411193Y169103D01*
X411492Y169825D01*
X411594Y170600D01*
X411492Y171375D01*
X411231Y172006D01*
X411390Y172247D01*
X411590Y172398D01*
X411828Y172300D01*
X412603Y172198D01*
X413378Y172300D01*
X414100Y172599D01*
X414720Y173075D01*
X415196Y173695D01*
X415495Y174417D01*
X415597Y175192D01*
X415495Y175967D01*
X415196Y176689D01*
X414720Y177309D01*
X414100Y177785D01*
X413378Y178084D01*
X412603Y178186D01*
X411828Y178084D01*
X411106Y177785D01*
X410486Y177309D01*
X410010Y176689D01*
X409711Y175967D01*
X409609Y175192D01*
X409711Y174417D01*
X409973Y173786D01*
X409813Y173546D01*
X409613Y173394D01*
X409375Y173492D01*
X408600Y173594D01*
X407825Y173492D01*
X407103Y173193D01*
X406855Y173003D01*
X406355Y173249D01*
Y204724D01*
X406291Y205047D01*
X406108Y205321D01*
X405834Y205503D01*
X405512Y205567D01*
D02*
G37*
G36*
X341876Y175057D02*
X339900D01*
Y171900D01*
X341876D01*
Y175057D01*
D02*
G37*
G36*
X338900D02*
X336924D01*
Y171900D01*
X338900D01*
Y175057D01*
D02*
G37*
G36*
X353165Y171941D02*
X351189D01*
Y168783D01*
X353165D01*
Y171941D01*
D02*
G37*
G36*
X350189D02*
X348213D01*
Y168783D01*
X350189D01*
Y171941D01*
D02*
G37*
G36*
X341876Y170900D02*
X339900D01*
Y167743D01*
X341876D01*
Y170900D01*
D02*
G37*
G36*
X338900D02*
X336924D01*
Y167743D01*
X338900D01*
Y170900D01*
D02*
G37*
G36*
X350189Y167831D02*
X348213D01*
Y164673D01*
X350189D01*
Y167831D01*
D02*
G37*
G36*
X438360Y174969D02*
X437560Y174864D01*
X436814Y174555D01*
X436173Y174063D01*
X435681Y173423D01*
X435372Y172677D01*
X435267Y171876D01*
X435372Y171075D01*
X435681Y170329D01*
X436173Y169689D01*
X436814Y169197D01*
X437560Y168888D01*
X438360Y168783D01*
X439161Y168888D01*
X439527Y169040D01*
X439811Y168616D01*
X437224Y166030D01*
X440362Y162892D01*
X443853Y166383D01*
X447344Y169874D01*
X444206Y173012D01*
X441620Y170426D01*
X441196Y170709D01*
X441348Y171075D01*
X441454Y171876D01*
X441348Y172677D01*
X441039Y173423D01*
X440548Y174063D01*
X439907Y174555D01*
X439161Y174864D01*
X438360Y174969D01*
D02*
G37*
G36*
X448051Y169167D02*
X444913Y166030D01*
X448051Y162892D01*
X451188Y166030D01*
X448051Y169167D01*
D02*
G37*
G36*
X350189Y163673D02*
X348213D01*
Y160516D01*
X350189D01*
Y163673D01*
D02*
G37*
G36*
X444206Y165323D02*
X441069Y162185D01*
X444206Y159048D01*
X447344Y162185D01*
X444206Y165323D01*
D02*
G37*
G36*
X351075Y159858D02*
X349197D01*
Y157587D01*
X351075D01*
Y159858D01*
D02*
G37*
G36*
Y156587D02*
X349197D01*
Y154315D01*
X351075D01*
Y156587D01*
D02*
G37*
G36*
X466535Y153776D02*
X447083Y153776D01*
X446692Y153698D01*
X446573Y153618D01*
X446453Y153698D01*
X446063Y153776D01*
X431102D01*
X430712Y153698D01*
X430381Y153477D01*
X430160Y153146D01*
X430083Y152756D01*
Y144504D01*
X429709D01*
Y143169D01*
X427567D01*
Y140791D01*
Y138413D01*
X428632D01*
X428824Y137951D01*
X426955Y136083D01*
X424378D01*
X424295Y136083D01*
Y136083D01*
X423878D01*
Y136083D01*
X418335D01*
Y131879D01*
X417971Y131636D01*
X417445Y130849D01*
X417339Y130314D01*
X416796Y130149D01*
X416467Y130478D01*
Y131890D01*
X416293Y132768D01*
X415795Y133512D01*
X413719Y135588D01*
X412975Y136085D01*
X412097Y136260D01*
X405500D01*
X404622Y136085D01*
X403892Y135597D01*
X397025D01*
X390369Y142253D01*
X389839Y142607D01*
X389215Y142731D01*
X385784D01*
X385151Y143155D01*
X384300Y143324D01*
X383449Y143155D01*
X382728Y142673D01*
X382443Y142247D01*
X382433Y142243D01*
X381939Y142393D01*
Y143100D01*
X381784Y143880D01*
X381342Y144542D01*
X380347Y145536D01*
X379686Y145978D01*
X378906Y146134D01*
X378264D01*
Y147772D01*
X373705D01*
Y140417D01*
X378018D01*
X378458Y139758D01*
X380968Y137248D01*
X380761Y136748D01*
X380224D01*
Y133571D01*
X382301D01*
X382466Y133639D01*
X385299Y130806D01*
X385266Y130307D01*
X385031Y130126D01*
X384587Y129547D01*
X384308Y128873D01*
X384212Y128150D01*
X384308Y127426D01*
X384587Y126752D01*
X385031Y126173D01*
X385251Y126004D01*
Y125374D01*
X385031Y125205D01*
X384587Y124626D01*
X384308Y123952D01*
X384212Y123228D01*
X384308Y122505D01*
X384587Y121831D01*
X385031Y121252D01*
X385610Y120807D01*
X385895Y120689D01*
Y119291D01*
X386069Y118413D01*
X386567Y117669D01*
X392691Y111545D01*
X393435Y111048D01*
X394313Y110873D01*
X397902D01*
X402922Y105853D01*
Y105232D01*
X402740D01*
Y96342D01*
X402922D01*
Y93602D01*
X403097Y92725D01*
X403316Y92396D01*
X403307Y92323D01*
X403402Y91599D01*
X403681Y90925D01*
X404126Y90346D01*
X404346Y90177D01*
Y89547D01*
X404126Y89378D01*
X403681Y88799D01*
X403402Y88125D01*
X403307Y87402D01*
X403402Y86678D01*
X403681Y86004D01*
X404126Y85425D01*
X404705Y84980D01*
X405379Y84701D01*
X406102Y84606D01*
X410433D01*
X411157Y84701D01*
X411831Y84980D01*
X412061Y85157D01*
X412689Y85282D01*
X413433Y85779D01*
X420028Y92374D01*
X420525Y93118D01*
X420700Y93996D01*
Y96342D01*
X420882D01*
Y97017D01*
X439468D01*
X440346Y97192D01*
X441091Y97689D01*
X444308Y100906D01*
X450100D01*
X450978Y101081D01*
X451098Y101161D01*
X453500D01*
X454280Y101316D01*
X454942Y101758D01*
X457142Y103958D01*
X457584Y104620D01*
X457739Y105400D01*
Y117400D01*
X457584Y118180D01*
X457142Y118842D01*
X454642Y121342D01*
X453980Y121784D01*
X453200Y121939D01*
X445374D01*
X445351Y121955D01*
X444500Y122124D01*
X443649Y121955D01*
X443626Y121939D01*
X443200D01*
X443200Y121939D01*
X442420Y121784D01*
X441758Y121342D01*
X441176Y120760D01*
X441149Y120755D01*
X440427Y120273D01*
X439945Y119551D01*
X439940Y119524D01*
X439723Y119307D01*
X434827D01*
Y119240D01*
X434571Y119093D01*
X434071Y119378D01*
Y122903D01*
X437795D01*
X438673Y123077D01*
X439417Y123575D01*
X440545Y124702D01*
X440954Y124871D01*
X442511D01*
X443029Y124657D01*
X443701Y124568D01*
X444373Y124657D01*
X444999Y124916D01*
X445537Y125329D01*
X445950Y125867D01*
X446209Y126493D01*
X446298Y127165D01*
X446209Y127838D01*
X445950Y128464D01*
X445537Y129002D01*
X444999Y129414D01*
X444373Y129674D01*
X443701Y129762D01*
X443029Y129674D01*
X442511Y129459D01*
X440954D01*
X440436Y129674D01*
X439764Y129762D01*
X439092Y129674D01*
X438465Y129414D01*
X437927Y129002D01*
X437515Y128464D01*
X437300Y127946D01*
X436845Y127491D01*
X427129D01*
X426851Y127907D01*
X426918Y128068D01*
X426963Y128410D01*
X428509Y129956D01*
X428951Y130617D01*
X429092Y131327D01*
X429709D01*
Y130693D01*
X437024D01*
Y131334D01*
X440453D01*
X441155Y131474D01*
X441377Y131622D01*
X444862D01*
Y136181D01*
X442474D01*
X442283Y136643D01*
X442627Y136987D01*
X443069Y137649D01*
X443224Y138429D01*
Y138744D01*
X446063D01*
X446453Y138822D01*
X446573Y138902D01*
X446692Y138822D01*
X447083Y138744D01*
X448531D01*
Y138142D01*
X452209D01*
X455886D01*
Y138744D01*
X456276Y138822D01*
X456312Y138846D01*
X457380D01*
X457793Y138764D01*
X457894D01*
X457992Y138744D01*
X466535D01*
X466926Y138822D01*
X467256Y139043D01*
X467477Y139374D01*
X467555Y139764D01*
Y141339D01*
X467555Y152756D01*
X467477Y153146D01*
X467256Y153477D01*
X466926Y153698D01*
X466535Y153776D01*
D02*
G37*
G36*
X410900Y152502D02*
X410125Y152400D01*
X409403Y152101D01*
X408783Y151625D01*
X408307Y151005D01*
X408008Y150283D01*
X407906Y149508D01*
X407949Y149179D01*
X407802Y148701D01*
X407546Y148661D01*
X407025Y148592D01*
X406303Y148293D01*
X405683Y147817D01*
X405207Y147197D01*
X404908Y146475D01*
X404806Y145700D01*
X404908Y144925D01*
X405207Y144203D01*
X405683Y143583D01*
X406303Y143107D01*
X407025Y142808D01*
X407800Y142706D01*
X408575Y142808D01*
X409297Y143107D01*
X409917Y143583D01*
X410393Y144203D01*
X410692Y144925D01*
X410794Y145700D01*
X410751Y146029D01*
X410898Y146507D01*
X411154Y146547D01*
X411675Y146616D01*
X412397Y146915D01*
X413017Y147391D01*
X413493Y148011D01*
X413792Y148733D01*
X413894Y149508D01*
X413792Y150283D01*
X413493Y151005D01*
X413017Y151625D01*
X412397Y152101D01*
X411675Y152400D01*
X410900Y152502D01*
D02*
G37*
G36*
X424295Y143169D02*
X423878D01*
X423795Y143169D01*
X418335D01*
Y142219D01*
X417563D01*
X417017Y142110D01*
X416554Y141801D01*
X416554Y141801D01*
X416106Y141353D01*
X415594Y141420D01*
X414922Y141331D01*
X414296Y141072D01*
X413758Y140659D01*
X413345Y140121D01*
X413086Y139495D01*
X412997Y138823D01*
X413086Y138151D01*
X413345Y137524D01*
X413758Y136986D01*
X414296Y136574D01*
X414922Y136314D01*
X415594Y136226D01*
X416267Y136314D01*
X416893Y136574D01*
X417431Y136986D01*
X417844Y137524D01*
X418053Y138030D01*
X418086Y138075D01*
X418406Y138413D01*
Y138413D01*
X423795D01*
X423878Y138413D01*
X424295D01*
X424378Y138413D01*
X426567D01*
Y140791D01*
Y143169D01*
X424378D01*
X424295Y143169D01*
D02*
G37*
G36*
X375100Y139135D02*
X374249Y138966D01*
X373528Y138484D01*
X373045Y137762D01*
X372876Y136911D01*
X372742Y136748D01*
X369965D01*
Y129394D01*
X370817D01*
Y128461D01*
X369079D01*
Y121146D01*
X374031D01*
Y128461D01*
X373672D01*
Y129394D01*
X374524D01*
Y134316D01*
X374929Y134721D01*
X375100Y134687D01*
X375951Y134856D01*
X376673Y135338D01*
X376945Y135746D01*
X377445Y135594D01*
Y133571D01*
X379224D01*
Y136748D01*
X377801D01*
X377387Y136889D01*
X377271Y137176D01*
X377155Y137762D01*
X376673Y138484D01*
X375951Y138966D01*
X375100Y139135D01*
D02*
G37*
G36*
X455886Y137142D02*
X452209D01*
X448531D01*
Y135362D01*
Y131622D01*
X455886D01*
Y135362D01*
Y137142D01*
D02*
G37*
G36*
X382004Y132571D02*
X380224D01*
Y129394D01*
X382004D01*
Y132571D01*
D02*
G37*
G36*
X379224D02*
X377445D01*
Y129394D01*
X379224D01*
Y132571D01*
D02*
G37*
G36*
X361043Y127672D02*
X359165D01*
Y125400D01*
X361043D01*
Y127672D01*
D02*
G37*
G36*
X382890Y128461D02*
X380913D01*
Y125303D01*
X382890D01*
Y128461D01*
D02*
G37*
G36*
X379913D02*
X377937D01*
Y125303D01*
X379913D01*
Y128461D01*
D02*
G37*
G36*
X361043Y124400D02*
X359165D01*
Y122128D01*
X361043D01*
Y124400D01*
D02*
G37*
G36*
X382890Y124303D02*
X380913D01*
Y121146D01*
X382890D01*
Y124303D01*
D02*
G37*
G36*
X379913D02*
X377937D01*
Y121146D01*
X379913D01*
Y124303D01*
D02*
G37*
G36*
X430118Y94542D02*
X429634D01*
Y87114D01*
X437997D01*
X437894Y88161D01*
X437443Y89648D01*
X436710Y91019D01*
X435724Y92220D01*
X434523Y93206D01*
X433152Y93939D01*
X431665Y94390D01*
X430118Y94542D01*
D02*
G37*
G36*
X428634D02*
X428150D01*
X426603Y94390D01*
X425116Y93939D01*
X423745Y93206D01*
X422544Y92220D01*
X421558Y91019D01*
X420825Y89648D01*
X420374Y88161D01*
X420271Y87114D01*
X428634D01*
Y94542D01*
D02*
G37*
%LPD*%
G36*
X466535Y141339D02*
Y139764D01*
X457992D01*
X457480Y139866D01*
X455886D01*
Y140882D01*
X452209D01*
X448531D01*
Y139764D01*
X447083D01*
Y152756D01*
X466535Y152756D01*
X466535Y141339D01*
D02*
G37*
G36*
X446063Y139764D02*
X444862D01*
Y140882D01*
X441185D01*
Y141382D01*
X440685D01*
Y143661D01*
X437508D01*
Y143661D01*
X437024Y143699D01*
Y144504D01*
X431102D01*
Y152756D01*
X446063D01*
Y139764D01*
D02*
G37*
G36*
X395196Y132812D02*
X395725Y132459D01*
X396349Y132334D01*
X403892D01*
X404622Y131846D01*
X405500Y131672D01*
X408575D01*
X408842Y131172D01*
X408575Y130772D01*
X408498Y130385D01*
X406970Y128857D01*
X406572Y128261D01*
X406432Y127559D01*
Y110603D01*
X405547Y109717D01*
X400474Y114789D01*
X399730Y115287D01*
X398852Y115462D01*
X395263D01*
X390497Y120227D01*
X390546Y120715D01*
X390768Y120807D01*
X391347Y121252D01*
X391791Y121831D01*
X392070Y122505D01*
X392166Y123228D01*
X392070Y123952D01*
X391791Y124626D01*
X391347Y125205D01*
X391127Y125374D01*
Y126004D01*
X391347Y126173D01*
X391791Y126752D01*
X392070Y127426D01*
X392166Y128150D01*
X392070Y128873D01*
X391791Y129547D01*
X391347Y130126D01*
X390768Y130571D01*
X390228Y130794D01*
Y130800D01*
X390073Y131580D01*
X389631Y132242D01*
X385239Y136634D01*
Y137900D01*
X385084Y138680D01*
X385352Y139180D01*
X385784Y139469D01*
X388539D01*
X395196Y132812D01*
D02*
G37*
%LPC*%
G36*
X455886Y143661D02*
X452709D01*
Y141882D01*
X455886D01*
Y143661D01*
D02*
G37*
G36*
X451709D02*
X448531D01*
Y141882D01*
X451709D01*
Y143661D01*
D02*
G37*
G36*
X444862D02*
X441685D01*
Y141882D01*
X444862D01*
Y143661D01*
D02*
G37*
G36*
X338808Y226087D02*
X336339D01*
Y224800D01*
X338808D01*
Y226087D01*
D02*
G37*
G36*
X262614Y192929D02*
X260343D01*
Y191051D01*
X262614D01*
Y192929D01*
D02*
G37*
G36*
X259343D02*
X257071D01*
Y191051D01*
X259343D01*
Y192929D01*
D02*
G37*
G36*
X262614Y190051D02*
X260343D01*
Y188173D01*
X262614D01*
Y190051D01*
D02*
G37*
G36*
X259343D02*
X257071D01*
Y188173D01*
X259343D01*
Y190051D01*
D02*
G37*
G36*
X256906Y187417D02*
X253453D01*
Y185539D01*
X256906D01*
Y187417D01*
D02*
G37*
G36*
X252453D02*
X249000D01*
Y185539D01*
X252453D01*
Y187417D01*
D02*
G37*
G36*
X256906Y184539D02*
X252953D01*
X249000D01*
Y182661D01*
Y178724D01*
Y174787D01*
Y170850D01*
Y169791D01*
X252953D01*
X256906D01*
Y170850D01*
Y174787D01*
Y178724D01*
Y182661D01*
Y184539D01*
D02*
G37*
G36*
Y168791D02*
X253453D01*
Y166913D01*
X256906D01*
Y168791D01*
D02*
G37*
G36*
X252453D02*
X249000D01*
Y166913D01*
X252453D01*
Y168791D01*
D02*
G37*
G36*
X270768Y163644D02*
X269917Y163475D01*
X269195Y162993D01*
X268713Y162271D01*
X268544Y161421D01*
X268578Y161249D01*
X264071Y156742D01*
X252378D01*
Y162221D01*
X234752D01*
Y158268D01*
Y154315D01*
X245905D01*
X247391Y152829D01*
X247391Y152829D01*
X247854Y152520D01*
X248400Y152411D01*
X248400Y152411D01*
X265024D01*
X265024Y152411D01*
X265571Y152520D01*
X266034Y152829D01*
X269551Y156346D01*
X270028Y156027D01*
X270879Y155858D01*
X271730Y156027D01*
X272452Y156509D01*
X272934Y157230D01*
X273103Y158081D01*
X272934Y158932D01*
X272452Y159654D01*
X272563Y160181D01*
X272822Y160570D01*
X272992Y161421D01*
X272822Y162271D01*
X272340Y162993D01*
X271619Y163475D01*
X270768Y163644D01*
D02*
G37*
G36*
X233752Y162221D02*
X230815D01*
Y158268D01*
Y154315D01*
X233752D01*
Y158268D01*
Y162221D01*
D02*
G37*
G36*
X229815D02*
X226878D01*
Y158268D01*
Y154315D01*
X229815D01*
Y158268D01*
Y162221D01*
D02*
G37*
G36*
X225878D02*
X222941D01*
Y158268D01*
Y154315D01*
X225878D01*
Y158268D01*
Y162221D01*
D02*
G37*
G36*
X221941D02*
X219004D01*
Y158268D01*
Y154315D01*
X221941D01*
Y158268D01*
Y162221D01*
D02*
G37*
G36*
X201665Y157768D02*
X199197D01*
Y154315D01*
X201665D01*
Y157768D01*
D02*
G37*
G36*
X324425Y137224D02*
X322547D01*
Y134952D01*
X324425D01*
Y137224D01*
D02*
G37*
G36*
X270641Y136963D02*
X268763D01*
Y134691D01*
X270641D01*
Y136963D01*
D02*
G37*
G36*
X324425Y133952D02*
X322547D01*
Y131680D01*
X324425D01*
Y133952D01*
D02*
G37*
G36*
X270641Y133691D02*
X268763D01*
Y131420D01*
X270641D01*
Y133691D01*
D02*
G37*
G36*
X320721Y116372D02*
X318843D01*
Y114100D01*
X320721D01*
Y116372D01*
D02*
G37*
G36*
X288657Y116377D02*
X287606D01*
Y113712D01*
X288657D01*
Y116377D01*
D02*
G37*
G36*
X216158Y104740D02*
X214280D01*
Y102469D01*
X216158D01*
Y104740D01*
D02*
G37*
G36*
X213280D02*
X211402D01*
Y102469D01*
X213280D01*
Y104740D01*
D02*
G37*
G36*
X320721Y101500D02*
X318843D01*
Y99228D01*
X320721D01*
Y101500D01*
D02*
G37*
G36*
X216158Y101469D02*
X214280D01*
Y99197D01*
X216158D01*
Y101469D01*
D02*
G37*
G36*
X213280D02*
X211402D01*
Y99197D01*
X213280D01*
Y101469D01*
D02*
G37*
G36*
X216158Y92142D02*
X214280D01*
Y89870D01*
X216158D01*
Y92142D01*
D02*
G37*
G36*
X213280D02*
X211402D01*
Y89870D01*
X213280D01*
Y92142D01*
D02*
G37*
G36*
X261221Y94542D02*
X260343D01*
Y87114D01*
X269099D01*
X268996Y88161D01*
X268545Y89648D01*
X267812Y91019D01*
X266826Y92220D01*
X265625Y93206D01*
X264254Y93939D01*
X262767Y94390D01*
X261221Y94542D01*
D02*
G37*
G36*
X259343D02*
X258465D01*
X256918Y94390D01*
X255431Y93939D01*
X254060Y93206D01*
X252859Y92220D01*
X251873Y91019D01*
X251140Y89648D01*
X250689Y88161D01*
X250586Y87114D01*
X259343D01*
Y94542D01*
D02*
G37*
G36*
X216158Y88870D02*
X214280D01*
Y86598D01*
X216158D01*
Y88870D01*
D02*
G37*
G36*
X213280D02*
X211402D01*
Y86598D01*
X213280D01*
Y88870D01*
D02*
G37*
G36*
X312614Y92698D02*
X310343D01*
Y90820D01*
X312614D01*
Y92698D01*
D02*
G37*
G36*
X391253Y85876D02*
X389080D01*
Y84687D01*
X391253D01*
Y85876D01*
D02*
G37*
%LPD*%
D10*
X451400Y115643D02*
D03*
Y108557D02*
D03*
X402800Y225168D02*
D03*
Y218081D02*
D03*
X398222Y225168D02*
D03*
Y218081D02*
D03*
X393644Y225168D02*
D03*
Y218081D02*
D03*
X389067Y225168D02*
D03*
Y218081D02*
D03*
X384489Y225168D02*
D03*
Y218081D02*
D03*
X377943Y225168D02*
D03*
Y218081D02*
D03*
X373365Y225168D02*
D03*
Y218081D02*
D03*
X368787Y225168D02*
D03*
Y218081D02*
D03*
X364209Y225168D02*
D03*
Y218081D02*
D03*
X359632Y225168D02*
D03*
Y218081D02*
D03*
X427067Y133705D02*
D03*
Y140791D02*
D03*
X421106Y133705D02*
D03*
Y140791D02*
D03*
X259842Y190551D02*
D03*
Y197638D02*
D03*
X218504Y211417D02*
D03*
Y204331D02*
D03*
X225000D02*
D03*
Y211417D02*
D03*
X309842Y90320D02*
D03*
Y97406D02*
D03*
X273622Y229528D02*
D03*
Y222441D02*
D03*
X278346Y229528D02*
D03*
Y222441D02*
D03*
D11*
X445800Y115829D02*
D03*
Y106971D02*
D03*
X414173Y122539D02*
D03*
Y113681D02*
D03*
X433366Y142027D02*
D03*
Y133169D02*
D03*
X301181Y243012D02*
D03*
Y234154D02*
D03*
X330700Y235529D02*
D03*
Y226671D02*
D03*
X276772Y111909D02*
D03*
Y103051D02*
D03*
D12*
X330542Y171400D02*
D03*
X339400D02*
D03*
X319129Y107800D02*
D03*
X310271D02*
D03*
X359547Y164173D02*
D03*
X350689D02*
D03*
X359547Y172441D02*
D03*
X350689D02*
D03*
X291634Y104099D02*
D03*
X300492D02*
D03*
X371555Y124803D02*
D03*
X380413D02*
D03*
D13*
X282057Y256725D02*
D03*
X301743D02*
D03*
D14*
X278120Y265780D02*
D03*
X305679D02*
D03*
D15*
X286782Y258300D02*
D03*
X289341D02*
D03*
X291900D02*
D03*
X294459D02*
D03*
X297018D02*
D03*
D16*
X316118Y242200D02*
D03*
X330882D02*
D03*
D17*
X389659Y240449D02*
D03*
X387100D02*
D03*
X384541D02*
D03*
Y231000D02*
D03*
X387100D02*
D03*
X389659D02*
D03*
X400259Y240449D02*
D03*
X397700D02*
D03*
X395141D02*
D03*
Y231000D02*
D03*
X397700D02*
D03*
X400259D02*
D03*
X379059Y240449D02*
D03*
X376500D02*
D03*
X373941D02*
D03*
Y231000D02*
D03*
X376500D02*
D03*
X379059D02*
D03*
X368459Y240449D02*
D03*
X365900D02*
D03*
X363341D02*
D03*
Y231000D02*
D03*
X365900D02*
D03*
X368459D02*
D03*
D18*
X309433Y121405D02*
D03*
Y123373D02*
D03*
Y125342D02*
D03*
Y127310D02*
D03*
Y129279D02*
D03*
Y131247D02*
D03*
Y133216D02*
D03*
Y135184D02*
D03*
Y137153D02*
D03*
X284630D02*
D03*
Y135184D02*
D03*
Y133216D02*
D03*
Y131247D02*
D03*
Y129279D02*
D03*
Y127310D02*
D03*
Y125342D02*
D03*
Y123373D02*
D03*
Y121405D02*
D03*
D19*
X304906Y141680D02*
D03*
X302937D02*
D03*
X300969D02*
D03*
X299000D02*
D03*
X297031D02*
D03*
X295063D02*
D03*
X293094D02*
D03*
X291126D02*
D03*
X289158D02*
D03*
Y116877D02*
D03*
X291126D02*
D03*
X293094D02*
D03*
X295063D02*
D03*
X297031D02*
D03*
X299000D02*
D03*
X300969D02*
D03*
X302937D02*
D03*
X304906D02*
D03*
D20*
X388580Y86376D02*
D03*
Y88738D02*
D03*
Y91100D02*
D03*
X376572D02*
D03*
Y88738D02*
D03*
Y86376D02*
D03*
D21*
X383757Y94742D02*
D03*
X381395D02*
D03*
Y82734D02*
D03*
X383757D02*
D03*
D22*
X382576Y88738D02*
D03*
D23*
X300886Y162405D02*
D03*
X307972D02*
D03*
X213779Y101969D02*
D03*
X220866D02*
D03*
Y89370D02*
D03*
X213779D02*
D03*
X303150Y85202D02*
D03*
X296063D02*
D03*
X318343Y102000D02*
D03*
X311257D02*
D03*
X299394Y147444D02*
D03*
X306480D02*
D03*
X299394Y151987D02*
D03*
X306480D02*
D03*
X314961Y134452D02*
D03*
X322047D02*
D03*
X271141Y134191D02*
D03*
X278228D02*
D03*
X318343Y113600D02*
D03*
X311257D02*
D03*
X358661Y157087D02*
D03*
X351575D02*
D03*
X365354Y182283D02*
D03*
X358268D02*
D03*
X387057Y248500D02*
D03*
X394143D02*
D03*
X335948Y197137D02*
D03*
X343035D02*
D03*
X361543Y124900D02*
D03*
X354457D02*
D03*
X324443Y250500D02*
D03*
X317357D02*
D03*
D24*
X441185Y133902D02*
D03*
Y141382D02*
D03*
X452209D02*
D03*
Y137642D02*
D03*
Y133902D02*
D03*
X332405Y210424D02*
D03*
Y206684D02*
D03*
Y202944D02*
D03*
X343428D02*
D03*
Y210424D02*
D03*
X376772Y170079D02*
D03*
X365748Y173819D02*
D03*
Y166339D02*
D03*
X343428Y191527D02*
D03*
Y184046D02*
D03*
X332405D02*
D03*
Y187787D02*
D03*
Y191527D02*
D03*
D25*
X424016Y109055D02*
D03*
X434252D02*
D03*
D26*
X429134D02*
D03*
D27*
Y118898D02*
D03*
D28*
X437795Y117520D02*
D03*
Y114961D02*
D03*
Y112402D02*
D03*
X420472D02*
D03*
Y114961D02*
D03*
Y117520D02*
D03*
D29*
X225787Y89370D02*
D03*
X227756D02*
D03*
X229724D02*
D03*
X231693D02*
D03*
X225787Y101969D02*
D03*
X227756D02*
D03*
X229724D02*
D03*
X231693D02*
D03*
D30*
X223819Y93701D02*
D03*
Y97638D02*
D03*
Y95669D02*
D03*
X233661D02*
D03*
Y93701D02*
D03*
Y97638D02*
D03*
D31*
X202165Y196063D02*
D03*
Y158268D02*
D03*
D32*
X206693Y196063D02*
D03*
X210630D02*
D03*
X214567D02*
D03*
X218504D02*
D03*
X222441D02*
D03*
X226378D02*
D03*
X230315D02*
D03*
X234252D02*
D03*
X238189D02*
D03*
X242126D02*
D03*
X246063D02*
D03*
X250000D02*
D03*
Y158268D02*
D03*
X246063D02*
D03*
X242126D02*
D03*
X238189D02*
D03*
X234252D02*
D03*
X230315D02*
D03*
X226378D02*
D03*
X222441D02*
D03*
X218504D02*
D03*
X214567D02*
D03*
X210630D02*
D03*
X206693D02*
D03*
D33*
X252953Y185039D02*
D03*
Y181102D02*
D03*
Y177165D02*
D03*
Y173228D02*
D03*
Y169291D02*
D03*
D34*
X289567Y190354D02*
D03*
X291535D02*
D03*
X293504D02*
D03*
X295472D02*
D03*
X297441D02*
D03*
X299410D02*
D03*
X301378D02*
D03*
X303346D02*
D03*
X305315D02*
D03*
X307283D02*
D03*
X309252D02*
D03*
X311221D02*
D03*
X311221Y224606D02*
D03*
X309252D02*
D03*
X307283D02*
D03*
X305315D02*
D03*
X303346D02*
D03*
X301378D02*
D03*
X299409D02*
D03*
X297441D02*
D03*
X295472D02*
D03*
X293504D02*
D03*
X291535D02*
D03*
X289567D02*
D03*
D35*
X283268Y218307D02*
D03*
Y216339D02*
D03*
Y214370D02*
D03*
Y212402D02*
D03*
Y210433D02*
D03*
Y208465D02*
D03*
Y206496D02*
D03*
Y204527D02*
D03*
Y202559D02*
D03*
Y200591D02*
D03*
Y198622D02*
D03*
Y196653D02*
D03*
X317520D02*
D03*
Y198622D02*
D03*
Y200590D02*
D03*
Y202559D02*
D03*
Y204527D02*
D03*
Y206496D02*
D03*
Y208465D02*
D03*
Y210433D02*
D03*
Y212402D02*
D03*
Y214370D02*
D03*
Y216339D02*
D03*
Y218307D02*
D03*
D36*
X377559Y157087D02*
D03*
X365748D02*
D03*
D37*
X365453Y203246D02*
D03*
Y188482D02*
D03*
X356299Y203246D02*
D03*
Y188482D02*
D03*
X374606Y203246D02*
D03*
Y188482D02*
D03*
D38*
X341200Y143712D02*
D03*
X337460Y132688D02*
D03*
X344940D02*
D03*
X354360D02*
D03*
X358100D02*
D03*
X361840D02*
D03*
Y143712D02*
D03*
X354360D02*
D03*
X379724Y133071D02*
D03*
X372244D02*
D03*
X375984Y144095D02*
D03*
D39*
X303937Y97013D02*
D03*
X295276Y97013D02*
D03*
X295276Y90713D02*
D03*
X303937Y90713D02*
D03*
D40*
X419151Y171180D02*
D03*
X423118Y167213D02*
D03*
X427085Y163246D02*
D03*
X439056Y191085D02*
D03*
X443023Y187118D02*
D03*
X446990Y183151D02*
D03*
D41*
X421935Y188301D02*
D03*
X444206Y166030D02*
D03*
D42*
X339308Y219182D02*
D03*
Y221741D02*
D03*
X348757Y219182D02*
D03*
X339308Y224300D02*
D03*
X348757Y221741D02*
D03*
Y224300D02*
D03*
X339308Y231163D02*
D03*
X348757D02*
D03*
X339308Y233722D02*
D03*
Y236281D02*
D03*
X348757Y233722D02*
D03*
Y236281D02*
D03*
D43*
X405217Y100787D02*
D03*
X418405D02*
D03*
D44*
X436396Y102931D02*
X440945Y107480D01*
X441454Y106971D01*
X445800D01*
X439468Y99311D02*
X443358Y103200D01*
X450100D01*
X418504Y125197D02*
X437795D01*
X439764Y127165D01*
X443701D01*
X405217Y93602D02*
Y99606D01*
X419882Y99311D02*
X439468D01*
X418405Y100787D02*
X419882Y99311D01*
X418405Y93996D02*
Y100787D01*
X411811Y87402D02*
X418405Y93996D01*
X415354Y106299D02*
X421260D01*
X408661Y99606D02*
X415354Y106299D01*
X405217Y99606D02*
X408661D01*
X421260Y106299D02*
X424628Y102931D01*
X406496Y92323D02*
X408268D01*
X405217Y93602D02*
X406496Y92323D01*
X398852Y113167D02*
X405118Y106901D01*
X405217Y106803D01*
Y99606D02*
Y106803D01*
X424628Y102931D02*
X436396D01*
X405500Y133966D02*
X412097D01*
X394313Y113167D02*
X398852D01*
X388189Y119291D02*
X394313Y113167D01*
X388189Y119291D02*
Y123228D01*
X358661Y157087D02*
X364961D01*
X414173Y129528D02*
X418504Y125197D01*
X414173Y129528D02*
Y131890D01*
X412097Y133966D02*
X414173Y131890D01*
X408268Y87402D02*
X411811D01*
D45*
X445800Y115829D02*
X445986Y115643D01*
X451400D01*
X440820Y117520D02*
X441142D01*
X437795D02*
X440820D01*
X442200Y118700D02*
X443400Y119900D01*
X442000Y118700D02*
X442200D01*
X437795Y112279D02*
X447678D01*
X451400Y108557D01*
X444231Y114960D02*
X444900Y115629D01*
X440157Y114960D02*
X444231D01*
X335948Y191527D02*
X341237Y186237D01*
Y185263D02*
Y186237D01*
Y185263D02*
X342454Y184046D01*
X343428D01*
X332405Y191527D02*
X335948D01*
X354360Y124937D02*
X354397Y124900D01*
X354360Y124937D02*
Y128200D01*
X350831Y210424D02*
X351487Y211081D01*
X377670D01*
X384251Y204500D01*
X343035Y197137D02*
X346892D01*
X343035D02*
X343428Y196743D01*
Y191527D02*
Y196743D01*
X332400Y195600D02*
X332405Y195595D01*
Y191527D02*
Y195595D01*
X420472Y111024D02*
Y112402D01*
Y111024D02*
X422441Y109055D01*
X396349Y133966D02*
X405500D01*
X341200Y139300D02*
Y143712D01*
Y139300D02*
X341300Y139200D01*
X287008Y89139D02*
Y119255D01*
X307600Y139847D02*
Y147444D01*
X306480D02*
X307600D01*
X314800Y107850D02*
Y115500D01*
Y107850D02*
X314850Y107800D01*
X319129D01*
X303150Y89926D02*
X309842D01*
X297031Y129153D02*
Y129279D01*
X303150Y89926D02*
X303150Y89926D01*
X303150Y85202D02*
Y89926D01*
X437795Y114961D02*
X440157D01*
X440157Y114960D02*
X440157Y114961D01*
X420319Y130555D02*
Y133705D01*
X419685Y129921D02*
X420319Y130555D01*
X420472Y114961D02*
X420472Y114961D01*
X416142Y114961D02*
X420472D01*
X355512Y177559D02*
X368898D01*
X371260Y175197D01*
X365748Y157087D02*
Y158268D01*
X371260Y163779D01*
Y175197D01*
X354331Y178740D02*
X355512Y177559D01*
X354331Y178740D02*
Y182087D01*
X250000Y196063D02*
Y197638D01*
X259842D02*
Y198425D01*
X250000Y197638D02*
X259842D01*
X272047Y198425D02*
X273228Y197244D01*
X275197D01*
X259842Y198425D02*
X272047D01*
X350689Y164173D02*
X351575Y163287D01*
Y157087D02*
Y163287D01*
X294094Y82052D02*
X300000D01*
X414173Y122539D02*
X419193D01*
X422047Y119685D01*
X420472Y117520D02*
X422047D01*
X287008Y89139D02*
X294094Y82052D01*
X306480Y147444D02*
Y151987D01*
X300000Y82052D02*
X303150Y85202D01*
X388637Y91043D02*
X391929D01*
X388580Y91100D02*
X388637Y91043D01*
X383757Y94742D02*
X390116D01*
X390158Y94784D01*
X276772Y111909D02*
X277854D01*
X312508Y117792D02*
X314800Y115500D01*
X308392Y117792D02*
X312508D01*
X284055Y118898D02*
X284252D01*
X277854Y112697D02*
X284055Y118898D01*
X422441Y109055D02*
X424016D01*
X422047Y117520D02*
Y119685D01*
X434252Y109055D02*
X437008D01*
X437795Y109843D01*
Y112279D01*
X330182Y242800D02*
X330482Y243100D01*
X334300Y239900D02*
X335100Y239100D01*
X330482Y241418D02*
Y243100D01*
Y241418D02*
X332000Y239900D01*
X334300D01*
X346892Y197137D02*
X349155Y199400D01*
Y210269D01*
X349000Y210424D02*
X349155Y210269D01*
X349000Y210424D02*
X350831D01*
X343428D02*
X349000D01*
X330400Y216300D02*
Y225671D01*
X332200Y227471D01*
X334100Y177800D02*
X334269Y177631D01*
X384300Y141100D02*
X389215D01*
X396349Y133966D01*
X334269Y165800D02*
X337137Y162932D01*
X334269Y165800D02*
Y177631D01*
X337137Y155363D02*
Y162932D01*
X341750Y150750D02*
X346050D01*
X337137Y155363D02*
X341750Y150750D01*
X346050D02*
X346400Y150400D01*
X353800D01*
D46*
X440820Y117520D02*
X442000Y118700D01*
X444500Y119900D02*
X453200D01*
X443400D02*
X444500D01*
X442000Y118700D02*
X443200Y119900D01*
X443400D01*
X450100Y103200D02*
X453500D01*
X455700Y105400D01*
Y117400D01*
X453200Y119900D02*
X455700Y117400D01*
X411900Y209600D02*
X414100Y211800D01*
X389351Y209600D02*
X411900D01*
X384251Y204500D02*
X389351Y209600D01*
X384251Y197244D02*
Y204500D01*
X381496Y152362D02*
Y189764D01*
Y151696D02*
Y152362D01*
X380981Y151181D02*
X381496Y151696D01*
X427799Y142027D02*
Y147484D01*
Y142027D02*
X433366D01*
X363634Y151181D02*
X380981D01*
X375984Y144095D02*
X378906D01*
X379900Y141200D02*
Y143100D01*
X378906Y144095D02*
X379900Y143100D01*
X354360Y128200D02*
Y132688D01*
X344719Y140919D02*
X347512Y143712D01*
X344719Y138263D02*
Y140919D01*
Y138263D02*
X344940Y138042D01*
X347512Y143712D02*
X354360D01*
X360953Y148500D02*
X363634Y151181D01*
X359148Y148500D02*
X360953D01*
X344940Y132688D02*
Y138042D01*
X295276Y97013D02*
X296063Y97800D01*
X427461Y133705D02*
X431004Y137248D01*
X440004D01*
X441185Y138429D01*
Y141382D01*
X448665Y137642D02*
X452209D01*
X210630Y158268D02*
X214567D01*
X376772Y159841D02*
Y170079D01*
X369781Y193307D02*
X374606Y188482D01*
X360630Y193307D02*
X369781D01*
X356299Y188976D02*
X360630Y193307D01*
X356299Y188482D02*
Y188976D01*
X358268Y182283D02*
Y186514D01*
X356299Y188482D02*
X358268Y186514D01*
X365354Y182283D02*
X370079D01*
X376772Y175591D01*
Y170079D02*
Y175591D01*
X365354Y182283D02*
Y188384D01*
X365453Y188482D01*
X427067Y131398D02*
Y133705D01*
X424409Y128740D02*
X427067Y131398D01*
X307972Y162405D02*
X308367Y162010D01*
Y157680D02*
Y162010D01*
X365748Y152048D02*
Y157087D01*
X295276Y97013D02*
X296587D01*
X302887Y90713D01*
X303937D01*
X354360Y143712D02*
X357412D01*
X358024Y144324D01*
Y147376D01*
X359148Y148500D01*
X383200Y135789D02*
X388189Y130800D01*
X383200Y135789D02*
Y137900D01*
X388189Y128150D02*
Y130800D01*
X379900Y141200D02*
X383200Y137900D01*
D47*
X435421Y112279D02*
X437795D01*
X435320Y117520D02*
X437795D01*
X434800Y117000D02*
X435320Y117520D01*
X434800Y112900D02*
Y117000D01*
Y112900D02*
X435421Y112279D01*
X230315Y204724D02*
X271161D01*
X227248Y207791D02*
X230315Y204724D01*
X221965Y207791D02*
X227248D01*
X222441Y196063D02*
Y201772D01*
X225000Y204331D01*
X305118Y114961D02*
X307874D01*
X304906Y115173D02*
X305118Y114961D01*
X304906Y115173D02*
Y116877D01*
X302937Y113143D02*
Y116483D01*
Y113143D02*
X307480Y108600D01*
X289158Y119564D02*
Y121279D01*
Y116877D02*
Y119564D01*
X288588Y120134D02*
X289158Y119564D01*
X293094Y125216D02*
X297031Y129153D01*
X293094Y116877D02*
Y125216D01*
X282419Y140204D02*
X288200Y145985D01*
X289119Y147703D02*
X290397Y148981D01*
X289119Y146918D02*
Y147703D01*
X290397Y148981D02*
X292203D01*
X278677Y133023D02*
Y134191D01*
X280503Y140204D02*
X282419D01*
X288200Y146000D02*
X289119Y146918D01*
X288200Y145985D02*
Y146000D01*
X278228Y137928D02*
X280503Y140204D01*
X278228Y134191D02*
Y137928D01*
X292203Y148981D02*
X293153Y148031D01*
X296309D01*
X299803Y157385D02*
Y161322D01*
X296309Y145722D02*
Y148031D01*
Y151009D01*
X297287Y151987D01*
X316634Y121952D02*
X324111D01*
X310094Y125326D02*
X316142D01*
X317452Y124016D01*
X277165Y218504D02*
X278937D01*
X277165D02*
Y218898D01*
Y221260D01*
X278346Y222441D01*
X271161Y204724D02*
X272342Y205906D01*
X218504Y204331D02*
X221965Y207791D01*
X218504Y196063D02*
Y204331D01*
X218504Y204331D01*
X300000Y237402D02*
X301181Y238583D01*
X300000Y231102D02*
Y237402D01*
X301181Y238583D02*
X304134D01*
X298818Y218110D02*
X298819Y218110D01*
X297441Y221063D02*
Y224606D01*
X294882Y218504D02*
X297441Y221063D01*
X293094Y112224D02*
Y116483D01*
X315213Y123373D02*
X316634Y121952D01*
X299409Y220768D02*
Y224606D01*
X298819Y220177D02*
X299409Y220768D01*
X298819Y218110D02*
Y220177D01*
X309827Y131247D02*
X314173D01*
X299803Y161322D02*
X300886Y162405D01*
X297031Y142074D02*
Y144999D01*
X309827Y123373D02*
X315213D01*
X283268Y210433D02*
X287598D01*
X283268Y208465D02*
X287598D01*
X299410Y193504D02*
X301575Y195669D01*
X299410Y190354D02*
Y193504D01*
X297441Y190354D02*
Y195472D01*
X311811Y214173D02*
X313976Y216339D01*
X317520D01*
X309252Y224606D02*
X309267Y224621D01*
X360925Y173819D02*
X365748D01*
X359547Y172441D02*
X360925Y173819D01*
X359547Y171358D02*
Y172441D01*
X361122Y162598D02*
X363779D01*
X359547Y164173D02*
X361122Y162598D01*
X365057Y203246D02*
X365453D01*
X359842Y198031D02*
X365057Y203246D01*
X359547Y164173D02*
Y165453D01*
X360433Y166339D01*
X365748D01*
X354634Y156693D02*
Y166445D01*
X359547Y171358D01*
X299000Y146936D02*
X299016Y146952D01*
X299000Y142074D02*
Y146936D01*
X287598Y208465D02*
X289272Y206791D01*
X290354D01*
X273622Y221654D02*
X274016Y221260D01*
X279331Y216339D02*
X283268D01*
X279134Y218307D02*
X283268D01*
X278937Y218504D02*
X279134Y218307D01*
X279315Y216323D02*
X279331Y216339D01*
X274016Y218504D02*
Y221260D01*
Y216929D02*
Y218504D01*
Y216929D02*
X274622Y216323D01*
X279315D01*
X352362Y194488D02*
X355906Y198031D01*
X359842D01*
X296309Y145722D02*
X297031Y144999D01*
X297244Y195669D02*
X297441Y195472D01*
X307480Y108600D02*
X310271D01*
X308900Y102000D02*
X311257D01*
X300969Y109932D02*
X308900Y102000D01*
X300969Y109932D02*
Y116483D01*
X314173Y131247D02*
X314961Y132035D01*
Y134452D01*
X297287Y151987D02*
X299394D01*
X314961Y134452D02*
Y137661D01*
X315000Y137700D01*
X304134Y238583D02*
X305610Y240059D01*
X307874Y114961D02*
X309235Y113600D01*
X311257D01*
X278677Y133023D02*
X280453Y131247D01*
X284236D01*
X317452Y124016D02*
X325984D01*
X324111Y121952D02*
X325197Y120866D01*
X291732Y218504D02*
X294882D01*
X297441Y224606D02*
Y228543D01*
X300000Y231102D01*
X280118Y210433D02*
X283268D01*
X309267Y224621D02*
Y227953D01*
X317520Y218307D02*
X317717Y218504D01*
Y222441D01*
X325197Y120866D02*
X325590D01*
X274071Y211417D02*
X274097Y211443D01*
X279108D01*
X280118Y210433D01*
X309267Y227953D02*
X310236Y228921D01*
Y233858D01*
X305610Y240059D02*
Y242410D01*
X305700Y242500D01*
X297018Y252282D02*
Y258300D01*
Y252282D02*
X298600Y250700D01*
X309600D01*
X315718Y244582D01*
Y243100D02*
Y244582D01*
D48*
X380059Y244600D02*
X383000D01*
X379059Y243600D02*
X380059Y244600D01*
X383000D02*
X384000Y243600D01*
X339100Y190626D02*
Y192383D01*
Y190626D02*
X342026Y187700D01*
X346100D01*
X347400Y186400D01*
Y182300D02*
Y186400D01*
X345800Y180700D02*
X347400Y182300D01*
X323600Y179730D02*
Y190777D01*
X322300Y179192D02*
Y190238D01*
X321891Y192486D02*
X323600Y190777D01*
X321891Y192486D02*
Y194334D01*
X320591Y191947D02*
Y194873D01*
Y191947D02*
X322300Y190238D01*
X321000Y178654D02*
Y189700D01*
X319291Y191409D02*
X321000Y189700D01*
X319291Y191409D02*
Y196653D01*
X321891Y194334D02*
X323200Y195643D01*
Y198847D01*
X320591Y194873D02*
X321900Y196182D01*
Y198179D01*
X321457Y198622D02*
X321900Y198179D01*
X321457Y200590D02*
X323200Y198847D01*
X317520Y200590D02*
X321457D01*
X323600Y179730D02*
X324254Y179077D01*
Y165117D02*
Y179077D01*
X322300Y179192D02*
X322954Y178539D01*
Y163473D02*
Y178539D01*
X321654Y161666D02*
Y178000D01*
X321000Y178654D02*
X321654Y178000D01*
X326300Y206981D02*
X332108D01*
X324700Y205381D02*
X326300Y206981D01*
X324700Y203300D02*
Y205381D01*
X323959Y202559D02*
X324700Y203300D01*
X317520Y202559D02*
X323959D01*
X330500Y116742D02*
X331771Y118013D01*
X330500Y111900D02*
Y116742D01*
X331771Y118013D02*
Y128465D01*
X326400Y114786D02*
X330471Y118857D01*
X326400Y107100D02*
Y114786D01*
X336300Y227200D02*
Y228409D01*
X335339Y229370D02*
X336300Y228409D01*
X335339Y229370D02*
Y231661D01*
X328500Y232600D02*
X334400D01*
X335339Y231661D01*
X381900Y232100D02*
X383000Y231000D01*
X384000Y243600D02*
X394200D01*
X379059Y240449D02*
Y243600D01*
X357200Y222200D02*
X380200D01*
X356500Y222900D02*
X357200Y222200D01*
X380200D02*
X381300Y223300D01*
X394200Y243600D02*
X399700D01*
X394143Y243657D02*
X394200Y243600D01*
X394143Y243657D02*
Y248500D01*
X399700Y243600D02*
X400259Y243041D01*
Y240449D02*
Y243041D01*
X361800Y231000D02*
X363341D01*
X358246Y227446D02*
X361800Y231000D01*
X357487Y227446D02*
X358246D01*
X356500Y226459D02*
X357487Y227446D01*
X356500Y222900D02*
Y226459D01*
X381300Y223300D02*
Y229300D01*
X383000Y231000D01*
X384541D01*
X332108Y206981D02*
X332405Y206684D01*
X286091Y229962D02*
X286179D01*
X307874Y230315D02*
Y231890D01*
X307283Y229724D02*
X307874Y230315D01*
X415242Y195276D02*
X415749Y194769D01*
X409842Y195276D02*
X415242D01*
X412598Y197638D02*
X414718D01*
X412598Y197564D02*
Y197638D01*
X410052Y199719D02*
X414476D01*
X411700Y201800D02*
X414233D01*
X413700Y203100D02*
X414772D01*
X412100Y204700D02*
X413700Y203100D01*
X409893Y199559D02*
X410052Y199719D01*
X414718Y197638D02*
X416288Y196069D01*
X303149Y229922D02*
Y230314D01*
X427085Y163246D02*
X432769Y168930D01*
X423118Y167213D02*
X431469Y175564D01*
Y187954D01*
X424171Y176200D02*
X427239D01*
X419151Y171180D02*
X424171Y176200D01*
X427239D02*
X430169Y179131D01*
X350787Y191339D02*
X351239Y191790D01*
X352814D01*
X353543Y192520D01*
X355906D01*
X229134Y203150D02*
X274222D01*
X227953Y204331D02*
X229134Y203150D01*
X225000Y204331D02*
X227953D01*
X372244Y134055D02*
X375100Y136911D01*
X374410Y118701D02*
X378800Y114310D01*
Y108800D02*
Y114310D01*
X347400Y139700D02*
X350100Y137000D01*
X325986Y145014D02*
Y155018D01*
Y145014D02*
X326600Y144400D01*
X302968Y171033D02*
X304053Y169947D01*
X302968Y171033D02*
Y180422D01*
X305413Y171952D02*
X312779Y164586D01*
X334055Y116240D02*
Y128654D01*
X332000Y130709D02*
X334055Y128654D01*
X330315Y129921D02*
Y156126D01*
X328740Y128896D02*
Y154580D01*
X330315Y129921D02*
X331771Y128465D01*
X328740Y128896D02*
X330471Y127165D01*
Y118857D02*
Y127165D01*
X287008Y119255D02*
X297031Y129279D01*
X316081Y164923D02*
X325986Y155018D01*
X316081Y164923D02*
Y186019D01*
X274600Y146000D02*
X275700Y144900D01*
X274600Y146000D02*
Y150961D01*
X273384Y139226D02*
X279041Y144882D01*
X279426Y141732D02*
X281726D01*
X275900Y138206D02*
X279426Y141732D01*
X273300Y142300D02*
X273400Y142200D01*
X277921Y129279D02*
X284236D01*
X275900Y131300D02*
X277921Y129279D01*
X274684Y130100D02*
X279443Y125342D01*
X273384Y129100D02*
X279111Y123373D01*
X273384Y129100D02*
Y130315D01*
X275900Y131300D02*
Y131600D01*
Y136600D02*
Y138206D01*
X273384Y137008D02*
Y139226D01*
X279443Y125342D02*
X284236D01*
X279111Y123373D02*
X284236D01*
X284919Y140119D02*
X286600D01*
X283404Y138604D02*
X284919Y140119D01*
X281025Y138604D02*
X283404D01*
X279304Y143307D02*
X281462D01*
X279041Y144882D02*
X281198D01*
X281874Y157385D02*
X283200Y156059D01*
X284891Y155776D02*
X286795Y157680D01*
X286261Y149461D02*
X291100Y154300D01*
X280577Y138156D02*
X281025Y138604D01*
X280577Y134464D02*
Y138156D01*
X289158Y144485D02*
X291300Y146628D01*
X289158Y142074D02*
Y144485D01*
X291300Y146628D02*
Y146800D01*
X293146Y155475D02*
X294300Y154322D01*
X293146Y155475D02*
Y171286D01*
X294300Y153700D02*
Y154322D01*
X248400Y153839D02*
X265024D01*
X269267Y158081D01*
X270879D01*
X251673Y155315D02*
X264662D01*
X315825Y129279D02*
X318110Y131564D01*
X309827Y129279D02*
X315825D01*
X304053Y157680D02*
Y169947D01*
X293504Y180900D02*
Y190354D01*
X295472D02*
X295581Y190246D01*
X293146Y171286D02*
X295581Y173721D01*
Y190246D01*
X298800Y174413D02*
Y183200D01*
X301378Y185778D01*
X305315Y184843D02*
Y190354D01*
X307283Y186811D02*
Y190354D01*
X309252Y186811D02*
Y190354D01*
X280577Y134464D02*
X281825Y133216D01*
X284236D01*
X321063Y214370D02*
X321654Y214961D01*
X317520Y214370D02*
X321063D01*
X317083Y154331D02*
Y156936D01*
X317048Y154331D02*
X317083D01*
X313505Y150787D02*
X317048Y154331D01*
X313505Y147325D02*
Y150787D01*
Y147325D02*
X319410Y141420D01*
X312779Y157680D02*
Y164586D01*
X312205Y146787D02*
Y152362D01*
X312682Y152839D01*
Y157680D01*
X312205Y146787D02*
X318110Y140881D01*
X307900Y155400D02*
X310630Y152670D01*
Y139975D02*
Y152670D01*
X309827Y139172D02*
X310630Y139975D01*
X288976Y184252D02*
Y186221D01*
X289567Y186811D01*
X291535Y185630D02*
Y190354D01*
X291339Y185433D02*
X291535Y185630D01*
X289567Y186811D02*
Y190354D01*
X332000Y130709D02*
Y157384D01*
X309827Y137153D02*
Y139172D01*
X319410Y130743D02*
Y141420D01*
X318110Y131564D02*
Y140881D01*
X382576Y88738D02*
X382576Y88738D01*
X384939Y86376D01*
X388580D01*
X382576Y88738D02*
X388580D01*
X380214Y91100D02*
X382576Y88738D01*
X376572Y91100D02*
X380214D01*
X303543Y97013D02*
X309842D01*
X297031Y110531D02*
Y116483D01*
X225787Y89370D02*
X225787Y89370D01*
X220866Y89370D02*
X225787D01*
X220866Y98819D02*
Y101969D01*
Y98819D02*
X222047Y97638D01*
X223819D01*
X317520Y208465D02*
X321612D01*
X246063Y156176D02*
X248400Y153839D01*
X246063Y156176D02*
Y158268D01*
X231102Y200787D02*
X241634D01*
X230315Y200000D02*
X231102Y200787D01*
X230315Y196063D02*
Y200000D01*
X309827Y127310D02*
X315978D01*
X250000Y156988D02*
X251673Y155315D01*
X250000Y156988D02*
Y158268D01*
X270879Y158081D02*
X271351D01*
X271457Y157976D01*
X242126Y196063D02*
Y197730D01*
X417563Y140791D02*
X421106D01*
X415594Y138823D02*
X417563Y140791D01*
X317520Y198622D02*
X321457D01*
X317520Y212402D02*
X321063D01*
X317520Y210433D02*
X321161D01*
X321612Y208465D02*
X325808Y212660D01*
X284236Y129166D02*
Y129279D01*
X329530Y156897D02*
X329544D01*
X322954Y163473D02*
X329530Y156897D01*
X242126Y197730D02*
X244671Y200275D01*
X279932Y214370D02*
X283268D01*
X244671Y200275D02*
X272560D01*
X278972Y200174D02*
Y200232D01*
X279331Y200591D01*
X283268D01*
X277672Y200713D02*
Y201097D01*
X279134Y202559D01*
X283268D01*
X279415Y198378D02*
X279660Y198622D01*
X283268D01*
X277165Y213779D02*
X279341D01*
X279932Y214370D01*
X272560Y200275D02*
X273341Y199494D01*
X241634Y200787D02*
X242421Y201575D01*
X275590D01*
X273341Y199494D02*
X276453D01*
X277672Y200713D01*
X283268Y212402D02*
X286802D01*
X288500Y214100D01*
X286221Y242913D02*
X292323D01*
X441600Y181500D02*
X445340D01*
X446990Y183151D01*
X295472Y243012D02*
Y243504D01*
Y243012D02*
X301181D01*
X436571Y193570D02*
X439056Y191085D01*
X315978Y127310D02*
X319410Y130743D01*
X295690Y156872D02*
X297638Y154924D01*
X301181D01*
X302937Y142074D02*
Y153168D01*
X301181Y154924D02*
X302937Y153168D01*
X300492Y100064D02*
Y104099D01*
Y100064D02*
X303543Y97013D01*
X291620Y104085D02*
X291634Y104099D01*
X311221Y186811D02*
Y190354D01*
X301378Y185778D02*
Y190354D01*
X295424Y157680D02*
Y165324D01*
X306333Y155400D02*
X307900D01*
X304053Y157680D02*
X306333Y155400D01*
X264662Y155315D02*
X270768Y161421D01*
X298800Y168700D02*
Y174413D01*
X295424Y165324D02*
X298800Y168700D01*
X299000Y105591D02*
Y116483D01*
X291634Y105134D02*
X297031Y110531D01*
X291634Y104099D02*
Y105134D01*
X299000Y105591D02*
X300492Y104099D01*
X432769Y168930D02*
Y188492D01*
X297031Y129279D02*
X307600Y139847D01*
X327985Y161385D02*
X327999D01*
X324254Y165117D02*
X327985Y161385D01*
X321654Y161666D02*
X328740Y154580D01*
X327999Y161385D02*
X332000Y157384D01*
X329544Y156897D02*
X330315Y156126D01*
X294459Y252041D02*
Y258300D01*
X336900Y137300D02*
X337460Y136740D01*
X335300Y137300D02*
X336900D01*
X337460Y132688D02*
Y136740D01*
X297031Y129153D02*
X308392Y117792D01*
X307874Y179134D02*
Y186221D01*
X307283Y186811D02*
X307874Y186221D01*
X311024Y178347D02*
Y185039D01*
X309252Y186811D02*
X311024Y185039D01*
X315800Y186300D02*
X316081Y186019D01*
X311221Y186811D02*
X313779Y184252D01*
Y176772D02*
Y184252D01*
X375984Y91688D02*
X376572Y91100D01*
X375984Y91688D02*
Y94882D01*
X372244Y125492D02*
Y133071D01*
X371555Y124803D02*
X372244Y125492D01*
Y133071D02*
Y134055D01*
X286179Y229962D02*
X287300Y228842D01*
X305315Y224606D02*
X305331Y224622D01*
X303346Y224606D02*
Y229724D01*
X303149Y229922D02*
X303346Y229724D01*
X289567Y224606D02*
Y228740D01*
X292323Y242913D02*
X293504Y241732D01*
X295472Y229921D02*
X297244Y231693D01*
Y239173D01*
X295472Y240945D02*
X297244Y239173D01*
X295472Y224606D02*
Y229921D01*
Y240945D02*
Y243012D01*
X293504Y230512D02*
X295944Y232952D01*
Y238505D01*
X293504Y240945D02*
X295944Y238505D01*
X293504Y224606D02*
Y230512D01*
Y240945D02*
Y241732D01*
X291535Y224606D02*
Y230512D01*
X287300Y225800D02*
Y228842D01*
X311221Y224606D02*
Y226969D01*
X312992Y228740D01*
Y232283D01*
X308661Y237221D02*
Y240551D01*
X305331Y224622D02*
Y233890D01*
X308661Y237221D01*
X278115Y199318D02*
X278972Y200174D01*
X273300Y142300D02*
Y151500D01*
X278115Y156315D01*
X274600Y150961D02*
X279415Y155777D01*
Y158563D01*
X278115Y159101D02*
X280491Y161478D01*
X281874Y157680D02*
X283268Y159074D01*
X279415Y158563D02*
X281791Y160939D01*
X283268Y159074D02*
Y196653D01*
X279415Y194042D02*
X281791Y191666D01*
X279415Y194042D02*
Y198378D01*
X281791Y160939D02*
Y191666D01*
X280491Y161478D02*
Y191128D01*
X278115Y193504D02*
X280491Y191128D01*
X278115Y156315D02*
Y159101D01*
Y193504D02*
Y199318D01*
X281198Y144882D02*
X283200Y146884D01*
Y156059D01*
X281462Y143307D02*
X284891Y146737D01*
Y155776D01*
X281726Y141732D02*
X286261Y146267D01*
Y149461D01*
X291100Y154300D02*
Y182128D01*
X288976Y184252D02*
X291100Y182128D01*
X274986Y203913D02*
Y207899D01*
X276339Y209252D01*
X274222Y203150D02*
X274986Y203913D01*
X276339Y209252D02*
X278248D01*
X279148Y208352D01*
X279529Y204527D02*
X283268D01*
X277067Y206989D02*
Y207037D01*
Y206989D02*
X279529Y204527D01*
X279148Y207152D02*
Y208352D01*
Y207152D02*
X279804Y206496D01*
X283268D01*
X305413Y171952D02*
Y184744D01*
X305315Y184843D02*
X305413Y184744D01*
X291620Y93980D02*
Y104085D01*
Y93980D02*
X296063Y89537D01*
Y85202D02*
Y89537D01*
X424431Y198669D02*
X441600Y181500D01*
X423893Y197369D02*
X432769Y188492D01*
X430169Y179131D02*
Y187415D01*
X422816Y194769D02*
X430169Y187415D01*
X317520Y196653D02*
X319291D01*
X350100Y137000D02*
X360900D01*
X361840Y136060D01*
Y132688D02*
Y136060D01*
X414772Y203100D02*
X417872Y200000D01*
X414233Y201800D02*
X417333Y198700D01*
X414476Y199719D02*
X416795Y197400D01*
X291535Y230512D02*
X292913Y231890D01*
Y233465D01*
X307283Y224606D02*
Y229724D01*
X343900Y241000D02*
X345400D01*
X360800Y243600D02*
X379059D01*
X345400Y241000D02*
X358200D01*
X360800Y243600D01*
X381800Y242200D02*
Y242300D01*
X381900Y242200D01*
Y232100D02*
Y242200D01*
X294459Y252041D02*
X298900Y247600D01*
X307596D01*
X298361Y246300D02*
X307058D01*
X291900Y252762D02*
Y258300D01*
Y252762D02*
X298361Y246300D01*
X307058D02*
X310879Y242479D01*
X307596Y247600D02*
X312179Y243017D01*
Y238121D02*
Y243017D01*
Y238121D02*
X316373Y233927D01*
X310879Y237583D02*
X315073Y233388D01*
Y228827D02*
Y233388D01*
X310879Y237583D02*
Y242479D01*
X340982Y213600D02*
X342000D01*
X339700Y212318D02*
X340982Y213600D01*
X339700Y208400D02*
Y212318D01*
Y208400D02*
X341200Y206900D01*
X346300D01*
X347400Y205800D01*
Y200800D02*
Y205800D01*
X346500Y199900D02*
X347400Y200800D01*
X417872Y200000D02*
X424803D01*
X417333Y198700D02*
X424265D01*
X416795Y197400D02*
X423726D01*
X415749Y194769D02*
X422816D01*
X416288Y196069D02*
X423354D01*
X431469Y187954D01*
X423726Y197400D02*
X423758Y197369D01*
X423893D01*
X424265Y198700D02*
X424296Y198669D01*
X424431D01*
X424803Y200000D02*
X424834Y199969D01*
X424970D01*
X431368Y193570D01*
X436571D01*
X326500Y221000D02*
X327381Y220119D01*
X326500Y221000D02*
Y221600D01*
X321654Y214961D02*
Y222247D01*
X315073Y228827D02*
X321654Y222247D01*
X316373Y229365D02*
X323109Y222630D01*
X316373Y229365D02*
Y233927D01*
X324508Y217908D02*
X325300Y218700D01*
X321063Y212402D02*
X323109Y214447D01*
Y222630D01*
X321161Y210433D02*
X324508Y213779D01*
Y217908D01*
X327381Y217780D02*
Y220119D01*
X325808Y216207D02*
X327381Y217780D01*
X325808Y212660D02*
Y216207D01*
X366799Y118701D02*
X374410D01*
X355400Y139100D02*
X361294D01*
X354360Y140140D02*
Y143712D01*
Y140140D02*
X355400Y139100D01*
X364600Y120900D02*
X366799Y118701D01*
X364600Y120900D02*
Y135794D01*
X361294Y139100D02*
X364600Y135794D01*
X303346Y186179D02*
Y190354D01*
X302968Y185800D02*
X303346Y186179D01*
X302968Y180422D02*
Y185800D01*
D49*
X389100Y215500D02*
X397562D01*
X377594D02*
X389100D01*
X389067Y215533D02*
X389100Y215500D01*
X389067Y215533D02*
Y218081D01*
X368436Y215500D02*
X377594D01*
X360051D02*
X368436D01*
X368787Y215851D01*
X397562Y215500D02*
X398222Y216160D01*
X359632Y215919D02*
X360051Y215500D01*
X364000Y221000D02*
X373300D01*
X354500D02*
X364000D01*
X364209Y218081D02*
Y220791D01*
X364000Y221000D02*
X364209Y220791D01*
X373300Y221000D02*
X384100D01*
X373300D02*
X373365Y220935D01*
Y218081D02*
Y220935D01*
X384100Y221000D02*
X393600D01*
X384100D02*
X384489Y220611D01*
Y218081D02*
Y220611D01*
X393600Y221000D02*
X401738D01*
X393600D02*
X393644Y220955D01*
Y218081D02*
Y220955D01*
X401738Y221000D02*
X402800Y219938D01*
X351200Y224300D02*
X354500Y221000D01*
X326200Y203600D02*
X327500Y204900D01*
X326200Y187300D02*
Y203600D01*
X325100Y179928D02*
Y192400D01*
X324000Y193500D02*
X325100Y192400D01*
X326100Y171400D02*
X330542D01*
X325453Y172046D02*
X326100Y171400D01*
X325453Y172046D02*
Y179574D01*
X325100Y179928D02*
X325453Y179574D01*
X326200Y187300D02*
X329453Y184046D01*
X322174Y204527D02*
X322286Y204640D01*
X317520Y204527D02*
X322174D01*
X317520Y206496D02*
X321341D01*
X328837Y212035D02*
X328928D01*
X328821Y212019D02*
X328837Y212035D01*
X326864Y212019D02*
X328821D01*
X321341Y206496D02*
X326864Y212019D01*
X330500Y111900D02*
X335528D01*
X335925Y111503D01*
X326400Y107100D02*
X331214D01*
X334295Y110181D01*
X331000Y103000D02*
Y104720D01*
X335361Y109081D01*
X337081Y207681D02*
Y217119D01*
X336400Y217800D02*
X337081Y217119D01*
X336400Y217800D02*
Y220400D01*
X332700Y230312D02*
X334157Y228854D01*
X332700Y230312D02*
Y230400D01*
X334157Y224863D02*
Y228854D01*
X329453Y184046D02*
X332405D01*
X348757Y224300D02*
X351200D01*
X351525Y237400D02*
X351725Y237200D01*
X359632Y215919D02*
Y218081D01*
X368787Y215851D02*
Y218081D01*
X365900Y228500D02*
Y231000D01*
X365300Y227900D02*
X365900Y228500D01*
X362500Y227900D02*
X365300D01*
X359768Y225168D02*
X362500Y227900D01*
X359632Y225168D02*
X359768D01*
X387100Y227700D02*
Y231000D01*
X384568Y225168D02*
X387100Y227700D01*
X384489Y225168D02*
X384568D01*
X373941Y231000D02*
Y233559D01*
X372400Y235100D02*
X373941Y233559D01*
X370700Y235100D02*
X372400D01*
X368459Y237341D02*
X370700Y235100D01*
X368459Y237341D02*
Y240449D01*
X389659Y237341D02*
Y240449D01*
Y237341D02*
X391900Y235100D01*
X393600D01*
X395141Y233559D01*
Y231000D02*
Y233559D01*
X397700Y237059D02*
Y240449D01*
Y237059D02*
X400259Y234500D01*
Y231000D02*
Y234500D01*
X395141Y237059D02*
Y240449D01*
Y237059D02*
X397700Y234500D01*
Y231000D02*
Y234500D01*
X387100Y237059D02*
Y240449D01*
Y237059D02*
X389659Y234500D01*
Y231000D02*
Y234500D01*
X384541Y237059D02*
Y240449D01*
Y237059D02*
X387100Y234500D01*
Y231000D02*
Y234500D01*
X376500Y237059D02*
Y240449D01*
Y237059D02*
X379059Y234500D01*
Y231000D02*
Y234500D01*
X373941Y237059D02*
Y240449D01*
Y237059D02*
X376500Y234500D01*
Y231000D02*
Y234500D01*
X365900Y237059D02*
Y240449D01*
Y237059D02*
X368459Y234500D01*
Y231000D02*
Y234500D01*
X365900Y231000D02*
Y234500D01*
X363341Y237059D02*
X365900Y234500D01*
X363341Y237059D02*
Y240449D01*
X372400Y231000D02*
X373941D01*
X372000Y230600D02*
X372400Y231000D01*
X372000Y228100D02*
Y230600D01*
X369068Y225168D02*
X372000Y228100D01*
X368787Y225168D02*
X369068D01*
X366491Y227383D02*
X367583D01*
X368459Y228259D01*
Y231000D01*
X373365Y227365D02*
X373800Y227800D01*
X373365Y225168D02*
Y227365D01*
X373800Y227800D02*
X374900D01*
X376500Y229400D01*
Y231000D01*
X342269Y228686D02*
X343700Y227256D01*
X342269Y228686D02*
Y229431D01*
X342400Y223500D02*
Y227000D01*
X341000Y228400D02*
X342400Y227000D01*
X338184Y228400D02*
X341000D01*
X343369Y229552D02*
X344888Y228033D01*
X344469Y230008D02*
Y236031D01*
Y230008D02*
X345988Y228489D01*
X346457Y229576D02*
X347624D01*
X345569Y230463D02*
X346457Y229576D01*
X345569Y230463D02*
Y235531D01*
X336539Y230044D02*
Y232401D01*
Y230044D02*
X338184Y228400D01*
X340641Y221741D02*
X342400Y223500D01*
X340537Y231163D02*
X342269Y229431D01*
X339308Y231163D02*
X340537D01*
X339308Y221741D02*
X340641D01*
X344888Y221712D02*
Y228033D01*
X345988Y223181D02*
Y228489D01*
Y223181D02*
X347428Y221741D01*
X344888Y221712D02*
X347418Y219182D01*
X348757D01*
X347428Y221741D02*
X348757D01*
X347624Y229576D02*
X348757Y228443D01*
Y224300D02*
Y228443D01*
X345569Y235531D02*
X346320Y236281D01*
X344469Y236031D02*
X346307Y237868D01*
X351057D01*
X346320Y236281D02*
X348757D01*
X332405Y206684D02*
X336084D01*
X337081Y207681D01*
X337741Y221741D02*
X339308D01*
X336400Y220400D02*
X337741Y221741D01*
X332200Y236329D02*
X332248Y236281D01*
X339308D01*
X402800Y218081D02*
Y219938D01*
X377943Y215849D02*
Y218081D01*
X377594Y215500D02*
X377943Y215849D01*
X398222Y216160D02*
Y218081D01*
X379059Y226020D02*
Y231000D01*
X377091Y226020D02*
X377943Y225168D01*
X364275D02*
X366491Y227383D01*
X364209Y225168D02*
X364275D01*
X402657D02*
X402800D01*
X400259Y227565D02*
X402657Y225168D01*
X400259Y227565D02*
Y231000D01*
X397700Y225690D02*
X398222Y225168D01*
X397700Y225690D02*
Y231000D01*
X395141Y229865D02*
Y231000D01*
X393644Y228369D02*
X395141Y229865D01*
X393644Y225168D02*
Y228369D01*
X389067Y225168D02*
X389659Y225760D01*
Y231000D01*
X336539Y232401D02*
X337861Y233722D01*
X339308D01*
X348757D02*
X350061D01*
X351032Y234694D01*
X351057D01*
X351525Y235162D01*
Y237400D01*
X351057Y237868D02*
X351525Y237400D01*
X288583Y231496D02*
X289567Y230512D01*
X406812Y179015D02*
Y204724D01*
X337595Y112700D02*
X368600D01*
X369384Y113484D01*
X371654D01*
X334055Y116240D02*
X337595Y112700D01*
X335925Y111503D02*
X371924D01*
X334295Y110181D02*
X371691D01*
X335361Y109081D02*
X371234D01*
X372047Y88179D02*
Y108268D01*
X371234Y109081D02*
X372047Y108268D01*
X371691Y110181D02*
X373147Y108724D01*
X371924Y111503D02*
X374247Y109180D01*
X373147Y90239D02*
Y108724D01*
X374247Y98819D02*
Y109180D01*
X274684Y138687D02*
X279304Y143307D01*
X273541Y109761D02*
X275689Y111909D01*
X276772D01*
X274684Y130100D02*
Y138687D01*
X273384Y130315D02*
Y137008D01*
X275900Y131600D02*
Y136600D01*
X234828Y92309D02*
X243309D01*
X233465Y90945D02*
X234828Y92309D01*
X233465Y86821D02*
Y90945D01*
X232077Y85433D02*
X233465Y86821D01*
X237500Y100800D02*
X244022D01*
X236233Y99200D02*
X243977D01*
X233661Y97638D02*
X243971D01*
X233661Y95669D02*
X243558D01*
X233661Y93701D02*
X243145D01*
X220866Y101969D02*
X224803Y105905D01*
X231693Y101969D02*
X233465D01*
X225787Y86024D02*
X226378Y85433D01*
X225787Y86024D02*
Y89370D01*
X224803Y105905D02*
X232395D01*
X226378Y85433D02*
X232077D01*
X233465Y101969D02*
X236233Y99200D01*
X232395Y105905D02*
X237500Y100800D01*
X340551Y257874D02*
X345669Y252756D01*
X345276Y265354D02*
X351114D01*
X340158Y260236D02*
X345276Y265354D01*
X342520Y259055D02*
X348819Y252756D01*
X351181D01*
X275676Y101956D02*
X276772Y103051D01*
X374648Y88738D02*
X376572D01*
X373534Y82734D02*
X381395D01*
X376497Y86300D02*
X376572Y86376D01*
X371370Y84898D02*
X373534Y82734D01*
X371370Y84898D02*
Y87502D01*
X373370Y86300D02*
X376497D01*
X371370Y87502D02*
X372047Y88179D01*
X373147Y90239D02*
X374648Y88738D01*
X279429Y108661D02*
X281110Y110343D01*
X268689Y104099D02*
X270832Y101956D01*
X275676D01*
X270391Y105199D02*
X271653Y103937D01*
X279429Y106299D02*
X281110Y104618D01*
X255099Y104099D02*
X268689D01*
X243309Y92309D02*
X255099Y104099D01*
X254644Y105199D02*
X270391D01*
X243145Y93701D02*
X254644Y105199D01*
X254188Y106299D02*
X279429D01*
X243558Y95669D02*
X254188Y106299D01*
X253813Y107480D02*
X282283D01*
X243971Y97638D02*
X253813Y107480D01*
X253439Y108661D02*
X279429D01*
X243977Y99200D02*
X253439Y108661D01*
X252983Y109761D02*
X273541D01*
X244022Y100800D02*
X252983Y109761D01*
X381395Y94742D02*
Y97345D01*
X381102Y97638D02*
X381395Y97345D01*
X375428Y97638D02*
X381102D01*
X289567Y228740D02*
Y230512D01*
X374247Y98819D02*
X375428Y97638D01*
X343369Y229552D02*
Y236486D01*
X345300Y238417D01*
X342269Y235355D02*
Y237673D01*
X343000Y238403D01*
Y238600D01*
X342800Y238800D02*
X343000Y238600D01*
X339308Y233722D02*
X340636D01*
X342269Y235355D01*
X345300Y238417D02*
Y240900D01*
X339308Y238110D02*
X342198Y241000D01*
X339308Y236281D02*
Y238110D01*
X342198Y241000D02*
X343900D01*
X356351Y218151D02*
X357900D01*
X348757Y221741D02*
X350359D01*
X343700Y220351D02*
Y227256D01*
Y220351D02*
X347032Y217019D01*
X355219D02*
X356351Y218151D01*
X347032Y217019D02*
X355219D01*
X341951Y220351D02*
X343700D01*
X340782Y219182D02*
X341951Y220351D01*
X339308Y219182D02*
X340782D01*
X338300Y213500D02*
X343000Y218200D01*
X338300Y206400D02*
Y213500D01*
Y206400D02*
X341756Y202944D01*
X343428D01*
X350359Y221741D02*
X352500Y219600D01*
Y219000D02*
Y219600D01*
X345300Y240900D02*
X345400Y241000D01*
X354325Y239800D02*
X360100D01*
X351725Y237200D02*
X354325Y239800D01*
X327474Y257874D02*
X340551D01*
X317357Y250500D02*
Y250868D01*
X326725Y260236D01*
X321165Y253121D02*
X327099Y259055D01*
X322265Y252665D02*
X327474Y257874D01*
X327099Y259055D02*
X342520D01*
X326725Y260236D02*
X340158D01*
X320364Y237164D02*
X322900Y239700D01*
X321464Y236709D02*
X324000Y239244D01*
X317357Y250500D02*
X320065Y247791D01*
X320700Y240600D02*
Y244765D01*
X320065Y245400D02*
X320700Y244765D01*
X320065Y245400D02*
Y247791D01*
X322265Y246635D02*
Y252665D01*
Y246635D02*
X324000Y244900D01*
Y239244D02*
Y244900D01*
X321165Y246179D02*
X322900Y244444D01*
Y239700D02*
Y244444D01*
X321165Y246179D02*
Y253121D01*
X324509Y219491D02*
X325300Y218700D01*
X324509Y219491D02*
Y222927D01*
X320364Y227071D02*
X324509Y222927D01*
X320364Y227071D02*
Y237164D01*
X321464Y227527D02*
X325609Y223382D01*
Y223306D02*
Y223382D01*
Y223306D02*
X326115Y222800D01*
X321464Y227527D02*
Y236709D01*
X323445Y227456D02*
Y235851D01*
Y227456D02*
X328581Y222321D01*
X332681Y223387D02*
X334157Y224863D01*
X328928Y212035D02*
X329396Y212504D01*
X330604D01*
X332681Y214581D01*
Y223387D01*
X328000Y216702D02*
X328581Y217283D01*
Y222321D01*
X328000Y214000D02*
Y216702D01*
D50*
X353136Y207100D02*
X356299Y203937D01*
X405118Y106901D02*
X405327D01*
X408268Y109843D01*
Y127559D01*
X443023Y187118D02*
X443417D01*
X417520Y117520D02*
X420472D01*
X416535Y118504D02*
X417520Y117520D01*
X413484Y118504D02*
X416535D01*
X356299Y203246D02*
Y203937D01*
X433366Y133169D02*
X440453D01*
X441185Y133902D01*
X408268Y127559D02*
X410630Y129921D01*
X364961Y157087D02*
X365354Y156693D01*
D51*
X452209Y137642D02*
X457480D01*
D52*
X307261Y258381D02*
D03*
D53*
X277750Y257300D02*
D03*
D54*
X291700Y268500D02*
D03*
D55*
X452209Y141713D02*
D03*
D56*
X441142Y142323D02*
D03*
D57*
X273925Y219000D02*
D03*
X277075D02*
D03*
D58*
X320866Y267717D02*
D03*
X454331Y91732D02*
D03*
D59*
X297031Y129279D02*
D03*
D60*
X278724Y149090D02*
D03*
X318094D02*
D03*
X407800Y145700D02*
D03*
X410900Y149508D02*
D03*
X408600Y170600D02*
D03*
X412603Y175192D02*
D03*
X330500Y111900D02*
D03*
X326400Y107100D02*
D03*
X336500Y94000D02*
D03*
Y97000D02*
D03*
X334500Y91000D02*
D03*
X355000Y94000D02*
D03*
Y97000D02*
D03*
X361000Y87000D02*
D03*
X359000Y85000D02*
D03*
X357000Y87000D02*
D03*
Y83000D02*
D03*
X361000D02*
D03*
X359000Y89000D02*
D03*
X361000Y91000D02*
D03*
X357000D02*
D03*
X330500D02*
D03*
X332500Y89000D02*
D03*
X334500Y83000D02*
D03*
X330500D02*
D03*
Y87000D02*
D03*
X332500Y85000D02*
D03*
X334500Y87000D02*
D03*
X459842Y131890D02*
D03*
X464173Y123228D02*
D03*
X468504D02*
D03*
X459842D02*
D03*
X464173Y127559D02*
D03*
X468504D02*
D03*
X459842D02*
D03*
X464173Y131890D02*
D03*
X468504D02*
D03*
X459842Y136221D02*
D03*
X464173Y142520D02*
D03*
X456693Y146063D02*
D03*
X451706D02*
D03*
X464173Y149213D02*
D03*
X461680Y146063D02*
D03*
X459186Y149213D02*
D03*
X454200D02*
D03*
X449213D02*
D03*
X446456Y135039D02*
D03*
X468504Y136221D02*
D03*
X334055Y116240D02*
D03*
X427799Y147484D02*
D03*
X464173Y136221D02*
D03*
D61*
X400197Y258465D02*
D03*
Y263386D02*
D03*
X388189Y128150D02*
D03*
Y123228D02*
D03*
D62*
X427781Y182455D02*
D03*
X438360Y171876D02*
D03*
D63*
X381890Y267717D02*
D03*
X255906D02*
D03*
X259842Y86614D02*
D03*
D64*
X429134D02*
D03*
D65*
X408268Y87402D02*
D03*
Y92323D02*
D03*
D66*
X444500Y119900D02*
D03*
X442000Y118700D02*
D03*
X414100Y211800D02*
D03*
X326100Y233600D02*
D03*
X290300Y239100D02*
D03*
X313200Y254100D02*
D03*
X329400Y198800D02*
D03*
X344000Y161100D02*
D03*
X335900Y147600D02*
D03*
X368600Y141900D02*
D03*
X453400Y156100D02*
D03*
X448000Y203300D02*
D03*
X413700Y188000D02*
D03*
X408000Y222000D02*
D03*
X365000Y270000D02*
D03*
X390000Y255000D02*
D03*
X380000D02*
D03*
X365000D02*
D03*
X344000Y214600D02*
D03*
X336600Y180700D02*
D03*
X324000Y193500D02*
D03*
X322286Y204640D02*
D03*
X331000Y103000D02*
D03*
X334100Y177800D02*
D03*
X327500Y204900D02*
D03*
X353136Y207100D02*
D03*
X332400Y195600D02*
D03*
X288583Y231496D02*
D03*
X286091Y229962D02*
D03*
X409842Y195276D02*
D03*
X412598Y197638D02*
D03*
X411700Y201800D02*
D03*
X412100Y204700D02*
D03*
X409893Y199559D02*
D03*
X401968Y138976D02*
D03*
X381496Y152362D02*
D03*
X375100Y136911D02*
D03*
X407700Y152100D02*
D03*
X378800Y108800D02*
D03*
X354360Y128200D02*
D03*
X341300Y139200D02*
D03*
X347400Y139700D02*
D03*
X326600Y144400D02*
D03*
X415256Y150984D02*
D03*
X411811Y143012D02*
D03*
X369000Y106600D02*
D03*
X267028Y101083D02*
D03*
X259350Y112894D02*
D03*
X270669Y113189D02*
D03*
X343500Y153400D02*
D03*
X404600Y118500D02*
D03*
X398425Y129921D02*
D03*
X395276Y126772D02*
D03*
X342300Y103400D02*
D03*
Y100200D02*
D03*
X327461Y165551D02*
D03*
X331988Y161811D02*
D03*
X283760Y112598D02*
D03*
X265059Y194390D02*
D03*
X270472D02*
D03*
X261516Y207677D02*
D03*
X268799D02*
D03*
X431890Y129134D02*
D03*
X388900Y109400D02*
D03*
X375492Y113091D02*
D03*
X365600Y115700D02*
D03*
X366000Y106500D02*
D03*
X318110Y96358D02*
D03*
X269587Y165748D02*
D03*
X270472Y153642D02*
D03*
X318898Y172539D02*
D03*
X321358Y154528D02*
D03*
X286910Y179626D02*
D03*
X286221Y191929D02*
D03*
X335100Y213700D02*
D03*
X333071Y271654D02*
D03*
X330709Y251575D02*
D03*
X275700Y144900D02*
D03*
X273400Y142200D02*
D03*
X286600Y140119D02*
D03*
X291300Y146800D02*
D03*
X294300Y153700D02*
D03*
X293500Y180900D02*
D03*
X298800Y183200D02*
D03*
X296309Y148031D02*
D03*
X291339Y185433D02*
D03*
X344940Y138042D02*
D03*
X351114Y265354D02*
D03*
X351181Y252756D02*
D03*
X423622Y148819D02*
D03*
X384154Y119882D02*
D03*
X200787Y212598D02*
D03*
Y224410D02*
D03*
Y236221D02*
D03*
Y248031D02*
D03*
Y259842D02*
D03*
Y141732D02*
D03*
Y129921D02*
D03*
Y118110D02*
D03*
Y106299D02*
D03*
Y94488D02*
D03*
X236221Y271654D02*
D03*
X224410D02*
D03*
X212598D02*
D03*
X200787D02*
D03*
Y82677D02*
D03*
X212598D02*
D03*
X224410D02*
D03*
X236221D02*
D03*
X248031D02*
D03*
X232283Y165354D02*
D03*
X246063Y177165D02*
D03*
X238189Y188976D02*
D03*
X234252D02*
D03*
X218504D02*
D03*
Y177165D02*
D03*
Y165354D02*
D03*
X214567Y202756D02*
D03*
X210630D02*
D03*
X206693D02*
D03*
X202756D02*
D03*
X259842Y185039D02*
D03*
Y169291D02*
D03*
X232283Y151575D02*
D03*
X226378D02*
D03*
X220472D02*
D03*
X206693D02*
D03*
X200787D02*
D03*
X352362Y194488D02*
D03*
X270879Y158081D02*
D03*
X416535Y118504D02*
D03*
X413484D02*
D03*
X363779Y162598D02*
D03*
X354634Y156693D02*
D03*
X354331Y182087D02*
D03*
X275590Y201575D02*
D03*
X275197Y197244D02*
D03*
X272342Y205906D02*
D03*
X448000Y123800D02*
D03*
X374803Y195669D02*
D03*
X376378Y182283D02*
D03*
X409449Y137795D02*
D03*
X359000Y151700D02*
D03*
X288500Y214100D02*
D03*
X215059Y93504D02*
D03*
X205709Y112205D02*
D03*
X215059Y130905D02*
D03*
X205709Y224410D02*
D03*
X215059Y243110D02*
D03*
X205709Y261811D02*
D03*
X224410Y112205D02*
D03*
X233760Y130905D02*
D03*
X224410Y224410D02*
D03*
X233760Y243110D02*
D03*
X224410Y261811D02*
D03*
X243110Y112205D02*
D03*
X252461Y130905D02*
D03*
X243110Y224410D02*
D03*
X252461Y243110D02*
D03*
X243110Y261811D02*
D03*
X286221Y242913D02*
D03*
X295472Y243504D02*
D03*
X277165Y213779D02*
D03*
X345669Y252756D02*
D03*
X410630Y129921D02*
D03*
X316142Y192126D02*
D03*
X315800Y186300D02*
D03*
X270768Y161421D02*
D03*
X315000Y137700D02*
D03*
X335300Y137300D02*
D03*
X391929Y91043D02*
D03*
X390158Y94784D02*
D03*
X373370Y86300D02*
D03*
X281110Y110343D02*
D03*
Y104618D02*
D03*
X271653Y103937D02*
D03*
X282283Y107480D02*
D03*
X307874Y114961D02*
D03*
X284252Y118898D02*
D03*
X307874Y179134D02*
D03*
X311024Y178347D02*
D03*
X313779Y176772D02*
D03*
X375984Y94882D02*
D03*
X325984Y124016D02*
D03*
X314173Y120079D02*
D03*
X356298Y214960D02*
D03*
X303149Y229922D02*
D03*
X287300Y225800D02*
D03*
X307874Y231890D02*
D03*
X312992Y232283D02*
D03*
X310236Y233858D02*
D03*
X308661Y240551D02*
D03*
X384251Y197244D02*
D03*
X325590Y120866D02*
D03*
X371654Y113484D02*
D03*
X339764Y118701D02*
D03*
X338583Y127953D02*
D03*
X323327Y115551D02*
D03*
X398031Y271260D02*
D03*
X277067Y207037D02*
D03*
X381496Y189764D02*
D03*
X422835Y209842D02*
D03*
X433858Y201575D02*
D03*
X426772Y201969D02*
D03*
X419300Y202600D02*
D03*
X292913Y233465D02*
D03*
X248031Y271654D02*
D03*
X342800Y238800D02*
D03*
X343000Y218200D02*
D03*
X323445Y235851D02*
D03*
X352500Y219000D02*
D03*
X360100Y239800D02*
D03*
X381800Y242200D02*
D03*
X305700Y242500D02*
D03*
X335100Y239100D02*
D03*
X320700Y240600D02*
D03*
X355100Y236400D02*
D03*
X325300Y218700D02*
D03*
X326500Y221600D02*
D03*
X328000Y214000D02*
D03*
X330400Y216300D02*
D03*
X332700Y230400D02*
D03*
X384300Y141100D02*
D03*
X353800Y150400D02*
D03*
X387800Y136500D02*
D03*
X368100Y132600D02*
D03*
X367600Y124800D02*
D03*
D67*
X305315Y184843D02*
D03*
X302968Y180422D02*
D03*
X299738Y157680D02*
D03*
X419685Y129921D02*
D03*
X281874Y157680D02*
D03*
X312682D02*
D03*
X308367D02*
D03*
X304053D02*
D03*
X286795D02*
D03*
X295424D02*
D03*
X317083D02*
D03*
X291100Y154300D02*
D03*
X298800Y174413D02*
D03*
D68*
X439764Y127165D02*
D03*
X443701D02*
D03*
X298818Y218110D02*
D03*
X440945Y107480D02*
D03*
X301575Y195669D02*
D03*
X311811Y214173D02*
D03*
X415594Y138823D02*
D03*
X306693Y217717D02*
D03*
X290354Y206791D02*
D03*
X290100Y210900D02*
D03*
X424409Y128740D02*
D03*
X438189Y104724D02*
D03*
X297244Y195669D02*
D03*
X291732Y218504D02*
D03*
X317717Y222441D02*
D03*
M02*
