G04 Layer_Color=49087*
%FSLAX25Y25*%
%MOIN*%
G70*
G01*
G75*
%ADD44C,0.00600*%
%ADD50C,0.01000*%
%ADD82C,0.01181*%
%ADD83C,0.00787*%
%ADD84C,0.00630*%
%ADD85C,0.00394*%
%ADD86C,0.00700*%
%ADD87R,0.05905X0.02953*%
D44*
X410267Y108798D02*
X409767Y109298D01*
X408768D01*
X408268Y108798D01*
Y106799D01*
X408768Y106299D01*
X409767D01*
X410267Y106799D01*
X413266Y109298D02*
X411267D01*
Y107799D01*
X412266Y108299D01*
X412766D01*
X413266Y107799D01*
Y106799D01*
X412766Y106299D01*
X411767D01*
X411267Y106799D01*
X414266Y109298D02*
X416265D01*
Y108798D01*
X414266Y106799D01*
Y106299D01*
X365748Y146306D02*
Y143807D01*
X366248Y143307D01*
X367248D01*
X367747Y143807D01*
Y146306D01*
X368747Y143807D02*
X369247Y143307D01*
X370247D01*
X370746Y143807D01*
Y145806D01*
X370247Y146306D01*
X369247D01*
X368747Y145806D01*
Y145306D01*
X369247Y144807D01*
X370746D01*
X357118Y121003D02*
X356618Y121503D01*
X355618D01*
X355118Y121003D01*
Y119004D01*
X355618Y118504D01*
X356618D01*
X357118Y119004D01*
X360117Y121503D02*
X358117D01*
Y120003D01*
X359117Y120503D01*
X359617D01*
X360117Y120003D01*
Y119004D01*
X359617Y118504D01*
X358617D01*
X358117Y119004D01*
X363116Y121503D02*
X362116Y121003D01*
X361116Y120003D01*
Y119004D01*
X361616Y118504D01*
X362616D01*
X363116Y119004D01*
Y119504D01*
X362616Y120003D01*
X361116D01*
X371804Y97244D02*
X374303D01*
X374803Y97744D01*
Y98744D01*
X374303Y99243D01*
X371804D01*
X374803Y100243D02*
Y101243D01*
Y100743D01*
X371804D01*
X372304Y100243D01*
X374303Y102742D02*
X374803Y103242D01*
Y104242D01*
X374303Y104742D01*
X372304D01*
X371804Y104242D01*
Y103242D01*
X372304Y102742D01*
X372804D01*
X373304Y103242D01*
Y104742D01*
X320897Y255649D02*
X320397Y256149D01*
X319397D01*
X318898Y255649D01*
Y253649D01*
X319397Y253150D01*
X320397D01*
X320897Y253649D01*
X323896Y256149D02*
X321897D01*
Y254649D01*
X322896Y255149D01*
X323396D01*
X323896Y254649D01*
Y253649D01*
X323396Y253150D01*
X322396D01*
X321897Y253649D01*
X326895Y256149D02*
X324896D01*
Y254649D01*
X325895Y255149D01*
X326395D01*
X326895Y254649D01*
Y253649D01*
X326395Y253150D01*
X325395D01*
X324896Y253649D01*
X274410Y99849D02*
Y96850D01*
X276409D01*
X277409Y99350D02*
X277908Y99849D01*
X278908D01*
X279408Y99350D01*
Y98850D01*
X278908Y98350D01*
X278408D01*
X278908D01*
X279408Y97850D01*
Y97350D01*
X278908Y96850D01*
X277908D01*
X277409Y97350D01*
X381890Y215204D02*
Y212705D01*
X382390Y212205D01*
X383389D01*
X383889Y212705D01*
Y215204D01*
X384889D02*
X386888D01*
Y214704D01*
X384889Y212705D01*
Y212205D01*
X357874Y224653D02*
Y222153D01*
X358374Y221654D01*
X359373D01*
X359873Y222153D01*
Y224653D01*
X360873Y221654D02*
X361873D01*
X361373D01*
Y224653D01*
X360873Y224153D01*
X363372D02*
X363872Y224653D01*
X364872D01*
X365372Y224153D01*
Y222153D01*
X364872Y221654D01*
X363872D01*
X363372Y222153D01*
Y224153D01*
X340808Y217747D02*
X340308Y217248D01*
Y216248D01*
X340808Y215748D01*
X342807D01*
X343307Y216248D01*
Y217248D01*
X342807Y217747D01*
X343307Y220247D02*
X340308D01*
X341808Y218747D01*
Y220746D01*
X340308Y221746D02*
Y223745D01*
X340808D01*
X342807Y221746D01*
X343307D01*
X379528Y216929D02*
X376529D01*
Y218429D01*
X377028Y218929D01*
X378028D01*
X378528Y218429D01*
Y216929D01*
Y217929D02*
X379528Y218929D01*
Y219928D02*
Y220928D01*
Y220428D01*
X376529D01*
X377028Y219928D01*
Y222427D02*
X376529Y222927D01*
Y223927D01*
X377028Y224427D01*
X377528D01*
X378028Y223927D01*
X378528Y224427D01*
X379028D01*
X379528Y223927D01*
Y222927D01*
X379028Y222427D01*
X378528D01*
X378028Y222927D01*
X377528Y222427D01*
X377028D01*
X378028Y222927D02*
Y223927D01*
X382304Y218929D02*
X381804Y218429D01*
Y217429D01*
X382304Y216929D01*
X384303D01*
X384803Y217429D01*
Y218429D01*
X384303Y218929D01*
X381804Y221927D02*
Y219928D01*
X383304D01*
X382804Y220928D01*
Y221428D01*
X383304Y221927D01*
X384303D01*
X384803Y221428D01*
Y220428D01*
X384303Y219928D01*
X384803Y224427D02*
X381804D01*
X383304Y222927D01*
Y224926D01*
X330315Y223078D02*
Y220579D01*
X330815Y220079D01*
X331815D01*
X332314Y220579D01*
Y223078D01*
X333314Y220079D02*
X334314D01*
X333814D01*
Y223078D01*
X333314Y222578D01*
X337812Y223078D02*
X336813Y222578D01*
X335813Y221578D01*
Y220579D01*
X336313Y220079D01*
X337313D01*
X337812Y220579D01*
Y221078D01*
X337313Y221578D01*
X335813D01*
X359599Y89370D02*
X362598D01*
Y90870D01*
X362099Y91369D01*
X360099D01*
X359599Y90870D01*
Y89370D01*
X362099Y92369D02*
X362598Y92869D01*
Y93869D01*
X362099Y94368D01*
X360099D01*
X359599Y93869D01*
Y92869D01*
X360099Y92369D01*
X360599D01*
X361099Y92869D01*
Y94368D01*
X329391Y83889D02*
X328891Y83389D01*
Y82390D01*
X329391Y81890D01*
X331390D01*
X331890Y82390D01*
Y83389D01*
X331390Y83889D01*
X328891Y86388D02*
Y85389D01*
X329391Y84889D01*
X331390D01*
X331890Y85389D01*
Y86388D01*
X331390Y86888D01*
X329391D01*
X328891Y86388D01*
X331890Y87888D02*
X328891D01*
X331890Y89887D01*
X328891D01*
X332390Y90887D02*
Y92886D01*
X329391Y95885D02*
X328891Y95385D01*
Y94386D01*
X329391Y93886D01*
X329890D01*
X330390Y94386D01*
Y95385D01*
X330890Y95885D01*
X331390D01*
X331890Y95385D01*
Y94386D01*
X331390Y93886D01*
X328891Y98384D02*
Y97385D01*
X329391Y96885D01*
X331390D01*
X331890Y97385D01*
Y98384D01*
X331390Y98884D01*
X329391D01*
X328891Y98384D01*
Y99884D02*
X331890D01*
Y101883D01*
X416339Y200834D02*
Y197835D01*
X417838D01*
X418338Y198335D01*
Y198834D01*
X417838Y199334D01*
X416339D01*
X417838D01*
X418338Y199834D01*
Y200334D01*
X417838Y200834D01*
X416339D01*
X419338D02*
Y198335D01*
X419837Y197835D01*
X420837D01*
X421337Y198335D01*
Y200834D01*
X422337D02*
X424336D01*
X423336D01*
Y197835D01*
X425336D02*
X426335D01*
X425836D01*
Y200834D01*
X425336Y200334D01*
X279528Y251030D02*
Y248531D01*
X280027Y248031D01*
X281027D01*
X281527Y248531D01*
Y251030D01*
X284526Y250531D02*
X284026Y251030D01*
X283026D01*
X282527Y250531D01*
Y250031D01*
X283026Y249531D01*
X284026D01*
X284526Y249031D01*
Y248531D01*
X284026Y248031D01*
X283026D01*
X282527Y248531D01*
X285526Y251030D02*
Y248031D01*
X287025D01*
X287525Y248531D01*
Y249031D01*
X287025Y249531D01*
X285526D01*
X287025D01*
X287525Y250031D01*
Y250531D01*
X287025Y251030D01*
X285526D01*
X288525Y247532D02*
X290524D01*
X291524Y248031D02*
Y251030D01*
X293023D01*
X293523Y250531D01*
Y249531D01*
X293023Y249031D01*
X291524D01*
X294523Y248031D02*
Y251030D01*
X296022D01*
X296522Y250531D01*
Y249531D01*
X296022Y249031D01*
X294523D01*
X295522D02*
X296522Y248031D01*
X299021Y251030D02*
X298022D01*
X297522Y250531D01*
Y248531D01*
X298022Y248031D01*
X299021D01*
X299521Y248531D01*
Y250531D01*
X299021Y251030D01*
X302520Y250531D02*
X302020Y251030D01*
X301021D01*
X300521Y250531D01*
Y248531D01*
X301021Y248031D01*
X302020D01*
X302520Y248531D01*
Y249531D01*
X301520D01*
X344913Y99712D02*
Y101712D01*
X344413Y102212D01*
X343413D01*
X342913Y101712D01*
Y99712D01*
X343413Y99213D01*
X344413D01*
X343913Y100212D02*
X344913Y99213D01*
X344413D02*
X344913Y99712D01*
X345912Y101712D02*
X346412Y102212D01*
X347412D01*
X347912Y101712D01*
Y101212D01*
X347412Y100712D01*
X346912D01*
X347412D01*
X347912Y100212D01*
Y99712D01*
X347412Y99213D01*
X346412D01*
X345912Y99712D01*
X346881Y144594D02*
Y146594D01*
X346381Y147093D01*
X345382D01*
X344882Y146594D01*
Y144594D01*
X345382Y144095D01*
X346381D01*
X345882Y145094D02*
X346881Y144095D01*
X346381D02*
X346881Y144594D01*
X349880Y144095D02*
X347881D01*
X349880Y146094D01*
Y146594D01*
X349380Y147093D01*
X348381D01*
X347881Y146594D01*
X285433Y97244D02*
Y100243D01*
X286933D01*
X287432Y99743D01*
Y98744D01*
X286933Y98244D01*
X285433D01*
X286433D02*
X287432Y97244D01*
X288432Y99743D02*
X288932Y100243D01*
X289932D01*
X290431Y99743D01*
Y99243D01*
X289932Y98744D01*
X289432D01*
X289932D01*
X290431Y98244D01*
Y97744D01*
X289932Y97244D01*
X288932D01*
X288432Y97744D01*
X271301Y235499D02*
X270801Y234999D01*
Y234000D01*
X271301Y233500D01*
X273300D01*
X273800Y234000D01*
Y234999D01*
X273300Y235499D01*
X273800Y236499D02*
Y237499D01*
Y236999D01*
X270801D01*
X271301Y236499D01*
X266001Y235199D02*
X265501Y234700D01*
Y233700D01*
X266001Y233200D01*
X268000D01*
X268500Y233700D01*
Y234700D01*
X268000Y235199D01*
X268500Y238198D02*
Y236199D01*
X266501Y238198D01*
X266001D01*
X265501Y237699D01*
Y236699D01*
X266001Y236199D01*
X370503Y183208D02*
X370004Y183708D01*
X369004D01*
X368504Y183208D01*
Y181209D01*
X369004Y180709D01*
X370004D01*
X370503Y181209D01*
X371503Y183708D02*
X373502D01*
Y183208D01*
X371503Y181209D01*
Y180709D01*
X353968Y152893D02*
X353468Y153393D01*
X352468D01*
X351969Y152893D01*
Y150893D01*
X352468Y150394D01*
X353468D01*
X353968Y150893D01*
X354967D02*
X355467Y150394D01*
X356467D01*
X356967Y150893D01*
Y152893D01*
X356467Y153393D01*
X355467D01*
X354967Y152893D01*
Y152393D01*
X355467Y151893D01*
X356967D01*
X322078Y128483D02*
X321578Y128983D01*
X320579D01*
X320079Y128483D01*
Y126484D01*
X320579Y125984D01*
X321578D01*
X322078Y126484D01*
X325077Y125984D02*
X323078D01*
X325077Y127984D01*
Y128483D01*
X324577Y128983D01*
X323578D01*
X323078Y128483D01*
X326077Y125984D02*
X327077D01*
X326577D01*
Y128983D01*
X326077Y128483D01*
X258692Y134783D02*
X258192Y135283D01*
X257193D01*
X256693Y134783D01*
Y132783D01*
X257193Y132283D01*
X258192D01*
X258692Y132783D01*
X261691Y132283D02*
X259692D01*
X261691Y134283D01*
Y134783D01*
X261192Y135283D01*
X260192D01*
X259692Y134783D01*
X264690Y132283D02*
X262691D01*
X264690Y134283D01*
Y134783D01*
X264191Y135283D01*
X263191D01*
X262691Y134783D01*
X317354Y140688D02*
X316854Y141188D01*
X315854D01*
X315354Y140688D01*
Y138689D01*
X315854Y138189D01*
X316854D01*
X317354Y138689D01*
X320353Y138189D02*
X318353D01*
X320353Y140188D01*
Y140688D01*
X319853Y141188D01*
X318853D01*
X318353Y140688D01*
X321352D02*
X321852Y141188D01*
X322852D01*
X323352Y140688D01*
Y140188D01*
X322852Y139689D01*
X322352D01*
X322852D01*
X323352Y139189D01*
Y138689D01*
X322852Y138189D01*
X321852D01*
X321352Y138689D01*
X288936Y153388D02*
X288437Y153888D01*
X287437D01*
X286937Y153388D01*
Y151389D01*
X287437Y150889D01*
X288437D01*
X288936Y151389D01*
X291935Y150889D02*
X289936D01*
X291935Y152888D01*
Y153388D01*
X291436Y153888D01*
X290436D01*
X289936Y153388D01*
X294435Y150889D02*
Y153888D01*
X292935Y152389D01*
X294934D01*
X288614Y148562D02*
X288114Y149062D01*
X287114D01*
X286614Y148562D01*
Y146563D01*
X287114Y146063D01*
X288114D01*
X288614Y146563D01*
X291613Y146063D02*
X289613D01*
X291613Y148062D01*
Y148562D01*
X291113Y149062D01*
X290113D01*
X289613Y148562D01*
X294612Y149062D02*
X292612D01*
Y147563D01*
X293612Y148062D01*
X294112D01*
X294612Y147563D01*
Y146563D01*
X294112Y146063D01*
X293112D01*
X292612Y146563D01*
X322472Y119428D02*
X321972Y119928D01*
X320972D01*
X320472Y119428D01*
Y117429D01*
X320972Y116929D01*
X321972D01*
X322472Y117429D01*
X325471Y116929D02*
X323471D01*
X325471Y118929D01*
Y119428D01*
X324971Y119928D01*
X323971D01*
X323471Y119428D01*
X328470Y119928D02*
X327470Y119428D01*
X326470Y118429D01*
Y117429D01*
X326970Y116929D01*
X327970D01*
X328470Y117429D01*
Y117929D01*
X327970Y118429D01*
X326470D01*
X302393Y169428D02*
X301893Y169928D01*
X300893D01*
X300394Y169428D01*
Y167429D01*
X300893Y166929D01*
X301893D01*
X302393Y167429D01*
X305392Y166929D02*
X303393D01*
X305392Y168929D01*
Y169428D01*
X304892Y169928D01*
X303893D01*
X303393Y169428D01*
X306392Y169928D02*
X308391D01*
Y169428D01*
X306392Y167429D01*
Y166929D01*
X308524Y81921D02*
X308025Y81421D01*
Y80421D01*
X308524Y79921D01*
X310524D01*
X311024Y80421D01*
Y81421D01*
X310524Y81921D01*
X311024Y84920D02*
Y82920D01*
X309024Y84920D01*
X308524D01*
X308025Y84420D01*
Y83420D01*
X308524Y82920D01*
Y85919D02*
X308025Y86419D01*
Y87419D01*
X308524Y87919D01*
X310524D01*
X311024Y87419D01*
Y86419D01*
X310524Y85919D01*
X308524D01*
X286251Y86357D02*
X285752Y86857D01*
X284752D01*
X284252Y86357D01*
Y84358D01*
X284752Y83858D01*
X285752D01*
X286251Y84358D01*
X289250Y83858D02*
X287251D01*
X289250Y85858D01*
Y86357D01*
X288751Y86857D01*
X287751D01*
X287251Y86357D01*
X290250Y84358D02*
X290750Y83858D01*
X291750D01*
X292249Y84358D01*
Y86357D01*
X291750Y86857D01*
X290750D01*
X290250Y86357D01*
Y85858D01*
X290750Y85358D01*
X292249D01*
X326241Y207118D02*
X325741Y206618D01*
Y205618D01*
X326241Y205118D01*
X328240D01*
X328740Y205618D01*
Y206618D01*
X328240Y207118D01*
X326241Y208117D02*
X325741Y208617D01*
Y209617D01*
X326241Y210117D01*
X326741D01*
X327241Y209617D01*
Y209117D01*
Y209617D01*
X327741Y210117D01*
X328240D01*
X328740Y209617D01*
Y208617D01*
X328240Y208117D01*
X326241Y211116D02*
X325741Y211616D01*
Y212616D01*
X326241Y213116D01*
X328240D01*
X328740Y212616D01*
Y211616D01*
X328240Y211116D01*
X326241D01*
X327914Y182413D02*
X327414Y181913D01*
Y180913D01*
X327914Y180413D01*
X329913D01*
X330413Y180913D01*
Y181913D01*
X329913Y182413D01*
X327914Y183412D02*
X327414Y183912D01*
Y184912D01*
X327914Y185412D01*
X328414D01*
X328914Y184912D01*
Y184412D01*
Y184912D01*
X329414Y185412D01*
X329913D01*
X330413Y184912D01*
Y183912D01*
X329913Y183412D01*
X330413Y186411D02*
Y187411D01*
Y186911D01*
X327414D01*
X327914Y186411D01*
X213810Y84389D02*
X213311Y84889D01*
X212311D01*
X211811Y84389D01*
Y82390D01*
X212311Y81890D01*
X213311D01*
X213810Y82390D01*
X214810Y84389D02*
X215310Y84889D01*
X216310D01*
X216809Y84389D01*
Y83889D01*
X216310Y83389D01*
X215810D01*
X216310D01*
X216809Y82889D01*
Y82390D01*
X216310Y81890D01*
X215310D01*
X214810Y82390D01*
X217809Y84389D02*
X218309Y84889D01*
X219309D01*
X219808Y84389D01*
Y83889D01*
X219309Y83389D01*
X218809D01*
X219309D01*
X219808Y82889D01*
Y82390D01*
X219309Y81890D01*
X218309D01*
X217809Y82390D01*
X214598Y109192D02*
X214098Y109692D01*
X213098D01*
X212598Y109192D01*
Y107193D01*
X213098Y106693D01*
X214098D01*
X214598Y107193D01*
X215598Y109192D02*
X216097Y109692D01*
X217097D01*
X217597Y109192D01*
Y108692D01*
X217097Y108192D01*
X216597D01*
X217097D01*
X217597Y107693D01*
Y107193D01*
X217097Y106693D01*
X216097D01*
X215598Y107193D01*
X220096Y106693D02*
Y109692D01*
X218597Y108192D01*
X220596D01*
X224174Y217058D02*
X223674Y216559D01*
Y215559D01*
X224174Y215059D01*
X226173D01*
X226673Y215559D01*
Y216559D01*
X226173Y217058D01*
X224174Y218058D02*
X223674Y218558D01*
Y219558D01*
X224174Y220057D01*
X224674D01*
X225174Y219558D01*
Y219058D01*
Y219558D01*
X225674Y220057D01*
X226173D01*
X226673Y219558D01*
Y218558D01*
X226173Y218058D01*
X223674Y223057D02*
Y221057D01*
X225174D01*
X224674Y222057D01*
Y222557D01*
X225174Y223057D01*
X226173D01*
X226673Y222557D01*
Y221557D01*
X226173Y221057D01*
X217580Y217354D02*
X217080Y216854D01*
Y215854D01*
X217580Y215354D01*
X219579D01*
X220079Y215854D01*
Y216854D01*
X219579Y217354D01*
X217580Y218353D02*
X217080Y218853D01*
Y219853D01*
X217580Y220353D01*
X218079D01*
X218579Y219853D01*
Y219353D01*
Y219853D01*
X219079Y220353D01*
X219579D01*
X220079Y219853D01*
Y218853D01*
X219579Y218353D01*
X217080Y223352D02*
X217580Y222352D01*
X218579Y221352D01*
X219579D01*
X220079Y221852D01*
Y222852D01*
X219579Y223352D01*
X219079D01*
X218579Y222852D01*
Y221352D01*
X259499Y205399D02*
X258999Y205899D01*
X258000D01*
X257500Y205399D01*
Y203400D01*
X258000Y202900D01*
X258999D01*
X259499Y203400D01*
X260499Y205399D02*
X260999Y205899D01*
X261999D01*
X262498Y205399D01*
Y204899D01*
X261999Y204399D01*
X261499D01*
X261999D01*
X262498Y203900D01*
Y203400D01*
X261999Y202900D01*
X260999D01*
X260499Y203400D01*
X263498Y205899D02*
X265497D01*
Y205399D01*
X263498Y203400D01*
Y202900D01*
X417973Y146094D02*
X417473Y145594D01*
Y144594D01*
X417973Y144095D01*
X419973D01*
X420472Y144594D01*
Y145594D01*
X419973Y146094D01*
X420472Y148593D02*
X417473D01*
X418973Y147093D01*
Y149093D01*
X420472Y152092D02*
Y150093D01*
X418473Y152092D01*
X417973D01*
X417473Y151592D01*
Y150592D01*
X417973Y150093D01*
X423091Y145700D02*
X422591Y145200D01*
Y144201D01*
X423091Y143701D01*
X425091D01*
X425591Y144201D01*
Y145200D01*
X425091Y145700D01*
X425591Y148199D02*
X422591D01*
X424091Y146700D01*
Y148699D01*
X423091Y149699D02*
X422591Y150199D01*
Y151198D01*
X423091Y151698D01*
X423591D01*
X424091Y151198D01*
Y150698D01*
Y151198D01*
X424591Y151698D01*
X425091D01*
X425591Y151198D01*
Y150199D01*
X425091Y149699D01*
X374016Y210086D02*
Y207087D01*
X375515D01*
X376015Y207587D01*
Y209586D01*
X375515Y210086D01*
X374016D01*
X377015Y207087D02*
X378014D01*
X377515D01*
Y210086D01*
X377015Y209586D01*
X355709Y210086D02*
Y207087D01*
X357208D01*
X357708Y207587D01*
Y209586D01*
X357208Y210086D01*
X355709D01*
X360707Y207087D02*
X358708D01*
X360707Y209086D01*
Y209586D01*
X360207Y210086D01*
X359208D01*
X358708Y209586D01*
X365256Y210086D02*
Y207087D01*
X366755D01*
X367255Y207587D01*
Y209586D01*
X366755Y210086D01*
X365256D01*
X368255Y209586D02*
X368755Y210086D01*
X369754D01*
X370254Y209586D01*
Y209086D01*
X369754Y208586D01*
X369255D01*
X369754D01*
X370254Y208086D01*
Y207587D01*
X369754Y207087D01*
X368755D01*
X368255Y207587D01*
X383465Y159298D02*
Y156299D01*
X385464D01*
X386464D02*
X387463D01*
X386963D01*
Y159298D01*
X386464Y158798D01*
X384677Y169397D02*
Y171397D01*
X384177Y171897D01*
X383177D01*
X382677Y171397D01*
Y169397D01*
X383177Y168898D01*
X384177D01*
X383677Y169897D02*
X384677Y168898D01*
X384177D02*
X384677Y169397D01*
X385676Y168898D02*
X386676D01*
X386176D01*
Y171897D01*
X385676Y171397D01*
X292126Y237500D02*
Y240499D01*
X293625D01*
X294125Y239999D01*
Y239000D01*
X293625Y238500D01*
X292126D01*
X293126D02*
X294125Y237500D01*
X295125D02*
X296125D01*
X295625D01*
Y240499D01*
X295125Y239999D01*
X351575Y176772D02*
Y179771D01*
X353074D01*
X353574Y179271D01*
Y178271D01*
X353074Y177771D01*
X351575D01*
X352574D02*
X353574Y176772D01*
X356573Y179771D02*
X355574Y179271D01*
X354574Y178271D01*
Y177271D01*
X355074Y176772D01*
X356073D01*
X356573Y177271D01*
Y177771D01*
X356073Y178271D01*
X354574D01*
X344882Y151181D02*
Y154180D01*
X346381D01*
X346881Y153680D01*
Y152681D01*
X346381Y152181D01*
X344882D01*
X345882D02*
X346881Y151181D01*
X347881Y154180D02*
X349880D01*
Y153680D01*
X347881Y151681D01*
Y151181D01*
X320472Y121653D02*
Y124653D01*
X321972D01*
X322472Y124153D01*
Y123153D01*
X321972Y122653D01*
X320472D01*
X321472D02*
X322472Y121653D01*
X323471D02*
X324471D01*
X323971D01*
Y124653D01*
X323471Y124153D01*
X325971D02*
X326470Y124653D01*
X327470D01*
X327970Y124153D01*
Y122153D01*
X327470Y121653D01*
X326470D01*
X325971Y122153D01*
Y124153D01*
X429921Y124803D02*
Y127802D01*
X431421D01*
X431921Y127302D01*
Y126303D01*
X431421Y125803D01*
X429921D01*
X430921D02*
X431921Y124803D01*
X432920D02*
X433920D01*
X433420D01*
Y127802D01*
X432920Y127302D01*
X437419Y124803D02*
X435420D01*
X437419Y126803D01*
Y127302D01*
X436919Y127802D01*
X435919D01*
X435420Y127302D01*
X409449Y114961D02*
X406450D01*
Y116460D01*
X406950Y116960D01*
X407949D01*
X408449Y116460D01*
Y114961D01*
Y115960D02*
X409449Y116960D01*
Y117960D02*
Y118959D01*
Y118459D01*
X406450D01*
X406950Y117960D01*
X409449Y121958D02*
X406450D01*
X407949Y120459D01*
Y122458D01*
X286614Y233314D02*
Y230815D01*
X287114Y230315D01*
X288114D01*
X288614Y230815D01*
Y233314D01*
X289613Y230315D02*
X290613D01*
X290113D01*
Y233314D01*
X289613Y232814D01*
X279527Y145227D02*
Y142727D01*
X280027Y142228D01*
X281027D01*
X281527Y142727D01*
Y145227D01*
X284526Y142228D02*
X282527D01*
X284526Y144227D01*
Y144727D01*
X284026Y145227D01*
X283026D01*
X282527Y144727D01*
X348425Y222684D02*
Y220185D01*
X348925Y219685D01*
X349925D01*
X350425Y220185D01*
Y222684D01*
X352924Y219685D02*
Y222684D01*
X351424Y221185D01*
X353424D01*
X324954Y160630D02*
X327453D01*
X327953Y161130D01*
Y162129D01*
X327453Y162629D01*
X324954D01*
Y165628D02*
Y163629D01*
X326453D01*
X325953Y164629D01*
Y165129D01*
X326453Y165628D01*
X327453D01*
X327953Y165129D01*
Y164129D01*
X327453Y163629D01*
X335387Y210039D02*
X337886D01*
X338386Y210539D01*
Y211539D01*
X337886Y212039D01*
X335387D01*
Y215038D02*
X335887Y214038D01*
X336886Y213038D01*
X337886D01*
X338386Y213538D01*
Y214538D01*
X337886Y215038D01*
X337386D01*
X336886Y214538D01*
Y213038D01*
X204100Y149200D02*
Y152199D01*
X205100Y151199D01*
X206099Y152199D01*
Y149200D01*
X207099Y148700D02*
X209098D01*
X212097Y151699D02*
X211598Y152199D01*
X210598D01*
X210098Y151699D01*
Y149700D01*
X210598Y149200D01*
X211598D01*
X212097Y149700D01*
Y150699D01*
X211098D01*
X213097Y149200D02*
Y152199D01*
X214597D01*
X215096Y151699D01*
Y150699D01*
X214597Y150200D01*
X213097D01*
X218095Y151699D02*
X217596Y152199D01*
X216596D01*
X216096Y151699D01*
Y151199D01*
X216596Y150699D01*
X217596D01*
X218095Y150200D01*
Y149700D01*
X217596Y149200D01*
X216596D01*
X216096Y149700D01*
X237946Y91732D02*
X240445D01*
X240945Y92232D01*
Y93232D01*
X240445Y93732D01*
X237946D01*
X238446Y94731D02*
X237946Y95231D01*
Y96231D01*
X238446Y96731D01*
X238946D01*
X239445Y96231D01*
X239945Y96731D01*
X240445D01*
X240945Y96231D01*
Y95231D01*
X240445Y94731D01*
X239945D01*
X239445Y95231D01*
X238946Y94731D01*
X238446D01*
X239445Y95231D02*
Y96231D01*
X425984Y104967D02*
Y102468D01*
X426484Y101969D01*
X427484D01*
X427984Y102468D01*
Y104967D01*
X428983Y101969D02*
X429983D01*
X429483D01*
Y104967D01*
X428983Y104468D01*
X431483D02*
X431982Y104967D01*
X432982D01*
X433482Y104468D01*
Y103968D01*
X432982Y103468D01*
X432482D01*
X432982D01*
X433482Y102968D01*
Y102468D01*
X432982Y101969D01*
X431982D01*
X431483Y102468D01*
X266929Y218353D02*
X268929Y215354D01*
Y218353D02*
X266929Y215354D01*
X269928D02*
X270928D01*
X270428D01*
Y218353D01*
X269928Y217853D01*
X447638Y130164D02*
Y127665D01*
X448138Y127165D01*
X449137D01*
X449637Y127665D01*
Y130164D01*
X450637Y127165D02*
X451637D01*
X451137D01*
Y130164D01*
X450637Y129665D01*
X455135Y127165D02*
X453136D01*
X455135Y129165D01*
Y129665D01*
X454635Y130164D01*
X453636D01*
X453136Y129665D01*
X285039Y93944D02*
X287039Y90945D01*
Y93944D02*
X285039Y90945D01*
X290038D02*
X288038D01*
X290038Y92944D01*
Y93444D01*
X289538Y93944D01*
X288538D01*
X288038Y93444D01*
X387580Y218929D02*
X387080Y218429D01*
Y217429D01*
X387580Y216929D01*
X389579D01*
X390079Y217429D01*
Y218429D01*
X389579Y218929D01*
X390079Y221428D02*
X387080D01*
X388579Y219928D01*
Y221927D01*
X387580Y222927D02*
X387080Y223427D01*
Y224427D01*
X387580Y224926D01*
X389579D01*
X390079Y224427D01*
Y223427D01*
X389579Y222927D01*
X387580D01*
X392855Y218929D02*
X392355Y218429D01*
Y217429D01*
X392855Y216929D01*
X394854D01*
X395354Y217429D01*
Y218429D01*
X394854Y218929D01*
X395354Y221428D02*
X392355D01*
X393855Y219928D01*
Y221927D01*
X395354Y224427D02*
X392355D01*
X393855Y222927D01*
Y224926D01*
X398131Y218929D02*
X397631Y218429D01*
Y217429D01*
X398131Y216929D01*
X400130D01*
X400630Y217429D01*
Y218429D01*
X400130Y218929D01*
X397631Y221927D02*
Y219928D01*
X399130D01*
X398631Y220928D01*
Y221428D01*
X399130Y221927D01*
X400130D01*
X400630Y221428D01*
Y220428D01*
X400130Y219928D01*
X398131Y222927D02*
X397631Y223427D01*
Y224427D01*
X398131Y224926D01*
X398631D01*
X399130Y224427D01*
Y223927D01*
Y224427D01*
X399630Y224926D01*
X400130D01*
X400630Y224427D01*
Y223427D01*
X400130Y222927D01*
X403406Y218929D02*
X402907Y218429D01*
Y217429D01*
X403406Y216929D01*
X405406D01*
X405905Y217429D01*
Y218429D01*
X405406Y218929D01*
X402907Y221927D02*
Y219928D01*
X404406D01*
X403906Y220928D01*
Y221428D01*
X404406Y221927D01*
X405406D01*
X405905Y221428D01*
Y220428D01*
X405406Y219928D01*
X405905Y224926D02*
Y222927D01*
X403906Y224926D01*
X403406D01*
X402907Y224427D01*
Y223427D01*
X403406Y222927D01*
X401575Y215204D02*
Y212205D01*
X403074D01*
X403574Y212705D01*
Y214704D01*
X403074Y215204D01*
X401575D01*
X404574Y214704D02*
X405074Y215204D01*
X406073D01*
X406573Y214704D01*
Y214204D01*
X406073Y213704D01*
X406573Y213204D01*
Y212705D01*
X406073Y212205D01*
X405074D01*
X404574Y212705D01*
Y213204D01*
X405074Y213704D01*
X404574Y214204D01*
Y214704D01*
X405074Y213704D02*
X406073D01*
X391732Y215204D02*
Y212205D01*
X393232D01*
X393732Y212705D01*
Y214704D01*
X393232Y215204D01*
X391732D01*
X396731D02*
X395731Y214704D01*
X394731Y213704D01*
Y212705D01*
X395231Y212205D01*
X396231D01*
X396731Y212705D01*
Y213204D01*
X396231Y213704D01*
X394731D01*
X374410Y116929D02*
Y119928D01*
X375909D01*
X376409Y119428D01*
Y118429D01*
X375909Y117929D01*
X374410D01*
X375409D02*
X376409Y116929D01*
X377409Y119428D02*
X377908Y119928D01*
X378908D01*
X379408Y119428D01*
Y118929D01*
X378908Y118429D01*
X379408Y117929D01*
Y117429D01*
X378908Y116929D01*
X377908D01*
X377409Y117429D01*
Y117929D01*
X377908Y118429D01*
X377409Y118929D01*
Y119428D01*
X377908Y118429D02*
X378908D01*
X383495Y143413D02*
Y145413D01*
X382996Y145912D01*
X381996D01*
X381496Y145413D01*
Y143413D01*
X381996Y142913D01*
X382996D01*
X382496Y143913D02*
X383495Y142913D01*
X382996D02*
X383495Y143413D01*
X385995Y142913D02*
Y145912D01*
X384495Y144413D01*
X386494D01*
X393957Y116566D02*
X393458Y116067D01*
Y115067D01*
X393957Y114567D01*
X395957D01*
X396457Y115067D01*
Y116067D01*
X395957Y116566D01*
X393458Y119065D02*
Y118066D01*
X393957Y117566D01*
X395957D01*
X396457Y118066D01*
Y119065D01*
X395957Y119565D01*
X393957D01*
X393458Y119065D01*
X396457Y120565D02*
X393458D01*
X396457Y122564D01*
X393458D01*
X396956Y123564D02*
Y125563D01*
X393458Y126563D02*
X396457D01*
X394957D01*
Y128562D01*
X393458D01*
X396457D01*
X393458Y131561D02*
Y129562D01*
X396457D01*
Y131561D01*
X394957Y129562D02*
Y130562D01*
X396457Y132561D02*
X394457D01*
X393458Y133561D01*
X394457Y134561D01*
X396457D01*
X394957D01*
Y132561D01*
X393458Y135560D02*
Y137559D01*
Y136560D01*
X396457D01*
X407874Y166535D02*
Y170034D01*
X409623D01*
X410207Y169451D01*
Y168285D01*
X409623Y167702D01*
X407874D01*
X409040D02*
X410207Y166535D01*
X411373Y170034D02*
X413705Y166535D01*
Y170034D02*
X411373Y166535D01*
X412205Y164129D02*
X414537D01*
X413371D01*
Y160630D01*
X415704Y164129D02*
X418036Y160630D01*
Y164129D02*
X415704Y160630D01*
D50*
X313173Y116287D02*
X312729Y117210D01*
X311729Y117438D01*
X310928Y116799D01*
Y115774D01*
X311729Y115135D01*
X312729Y115363D01*
X313173Y116287D01*
X387695Y97793D02*
X387250Y98716D01*
X386251Y98944D01*
X385449Y98305D01*
Y97281D01*
X386251Y96641D01*
X387250Y96869D01*
X387695Y97793D01*
X237101Y101575D02*
X236661Y102337D01*
X235780D01*
X235340Y101575D01*
X235780Y100812D01*
X236661D01*
X237101Y101575D01*
X332938Y193504D02*
X332573Y194384D01*
X331693Y194749D01*
X330813Y194384D01*
X330448Y193504D01*
X330813Y192624D01*
X331693Y192259D01*
X332573Y192624D01*
X332938Y193504D01*
X331693Y165650D02*
X331201Y166502D01*
X330217D01*
X329724Y165650D01*
X330217Y164797D01*
X331201D01*
X331693Y165650D01*
X285827Y224016D02*
X285563Y225000D01*
X284842Y225721D01*
X283858Y225984D01*
X282874Y225721D01*
X282154Y225000D01*
X281890Y224016D01*
X282154Y223031D01*
X282874Y222311D01*
X283858Y222047D01*
X284842Y222311D01*
X285563Y223031D01*
X285827Y224016D01*
X391787Y237674D02*
X391243Y238423D01*
X390362Y238137D01*
Y237211D01*
X391243Y236925D01*
X391787Y237674D01*
X402058D02*
X401513Y238423D01*
X400633Y238137D01*
Y237211D01*
X401513Y236925D01*
X402058Y237674D01*
X369603D02*
X369059Y238423D01*
X368179Y238137D01*
Y237211D01*
X369059Y236925D01*
X369603Y237674D01*
X369773Y229800D02*
X369229Y230549D01*
X368349Y230263D01*
Y229337D01*
X369229Y229051D01*
X369773Y229800D01*
X409055Y97736D02*
Y103839D01*
X408268Y97736D02*
Y103839D01*
X345472Y163681D02*
Y183366D01*
X333661Y163681D02*
Y183366D01*
X288583Y221260D02*
X312205D01*
X286614Y219291D02*
X288583Y221260D01*
X286614Y195669D02*
Y219291D01*
X312205Y221260D02*
X314173Y219291D01*
Y195669D02*
Y219291D01*
X288583Y193701D02*
X312205D01*
X314173Y195669D01*
X286614Y195669D02*
X288583Y193701D01*
X362500Y199801D02*
X368406D01*
X362500Y191927D02*
Y199801D01*
X368406Y191927D02*
Y199801D01*
X362500Y191927D02*
X368406D01*
X353346D02*
Y199801D01*
Y191927D02*
X359252D01*
Y199801D01*
X353346D02*
X359252D01*
X371654D02*
X377559D01*
X371654Y191927D02*
Y199801D01*
X377559Y191927D02*
Y199801D01*
X371654Y191927D02*
X377559D01*
X389424Y231768D02*
Y235705D01*
X380763Y231768D02*
Y235705D01*
X399695Y231768D02*
Y235705D01*
X391034Y231768D02*
Y235705D01*
X298425Y98981D02*
X300787Y98981D01*
X298425Y88745D02*
X300787Y88745D01*
X305906Y94257D02*
X305906Y93469D01*
X293307Y94257D02*
X293307Y93469D01*
X414976Y177165D02*
X433071Y159070D01*
X451166Y177165D01*
X433071Y195261D02*
X451166Y177165D01*
X414976D02*
X433071Y195261D01*
X405232Y177165D02*
X412192D01*
X405232D02*
X407320Y179253D01*
X405232Y177165D02*
X407320Y179253D01*
X405232Y177165D02*
X407320Y175077D01*
X430983Y202916D02*
X433071Y205004D01*
X435159Y202916D01*
X433071Y205004D02*
X435159Y202916D01*
X433071Y198045D02*
Y205004D01*
Y149327D02*
X435159Y151414D01*
X430983D02*
X433071Y149327D01*
X430983Y151414D02*
X433071Y149327D01*
Y156286D01*
X458822Y179253D02*
X460910Y177165D01*
X458822Y175077D02*
X460910Y177165D01*
X458822Y175077D02*
X460910Y177165D01*
X453950D02*
X460910D01*
X356253Y88863D02*
Y96737D01*
X350347D02*
X356253D01*
X350347Y88863D02*
Y96737D01*
Y88863D02*
X356253D01*
X358579Y231768D02*
Y235705D01*
X367241Y231768D02*
Y235705D01*
X370561Y231768D02*
Y235705D01*
X379222Y231768D02*
Y235705D01*
X347638Y155905D02*
Y159843D01*
X348425Y160630D01*
X205120Y138936D02*
X203453D01*
X204287D01*
Y134771D01*
X203453Y133938D01*
X202621D01*
X201787Y134771D01*
X207619Y137270D02*
X209285D01*
X210118Y136437D01*
Y133938D01*
X207619D01*
X206786Y134771D01*
X207619Y135604D01*
X210118D01*
X211784Y133938D02*
Y137270D01*
X214283D01*
X215116Y136437D01*
Y133938D01*
X221781Y138936D02*
X225113D01*
Y138103D01*
X221781Y134771D01*
Y133938D01*
X225113D01*
X227612Y137270D02*
X229278D01*
X230112Y136437D01*
Y133938D01*
X227612D01*
X226779Y134771D01*
X227612Y135604D01*
X230112D01*
X231778Y133938D02*
Y137270D01*
X232611D01*
X233444Y136437D01*
Y133938D01*
Y136437D01*
X234277Y137270D01*
X235110Y136437D01*
Y133938D01*
X236776Y138936D02*
Y133938D01*
X239275D01*
X240108Y134771D01*
Y135604D01*
Y136437D01*
X239275Y137270D01*
X236776D01*
X201787Y130538D02*
Y127206D01*
X203453Y125540D01*
X205120Y127206D01*
Y130538D01*
X207619Y128872D02*
X209285D01*
X210118Y128039D01*
Y125540D01*
X207619D01*
X206786Y126373D01*
X207619Y127206D01*
X210118D01*
X211784Y128872D02*
Y125540D01*
Y127206D01*
X212617Y128039D01*
X213450Y128872D01*
X214283D01*
X216782Y125540D02*
X218449D01*
X217616D01*
Y128872D01*
X216782D01*
X221781Y125540D02*
X223447D01*
X224280Y126373D01*
Y128039D01*
X223447Y128872D01*
X221781D01*
X220948Y128039D01*
Y126373D01*
X221781Y125540D01*
X230945D02*
X232611D01*
X231778D01*
Y130538D01*
X230945Y129705D01*
X235110Y125540D02*
Y126373D01*
X235943D01*
Y125540D01*
X235110D01*
X241774D02*
Y130538D01*
X239275Y128039D01*
X242607D01*
X204287Y122140D02*
X202621D01*
X201787Y121307D01*
Y117975D01*
X202621Y117142D01*
X204287D01*
X205120Y117975D01*
Y121307D01*
X204287Y122140D01*
X210118Y120474D02*
X207619D01*
X206786Y119641D01*
Y117975D01*
X207619Y117142D01*
X210118D01*
X212617Y121307D02*
Y120474D01*
X211784D01*
X213450D01*
X212617D01*
Y117975D01*
X213450Y117142D01*
X224280D02*
X220948D01*
X224280Y120474D01*
Y121307D01*
X223447Y122140D01*
X221781D01*
X220948Y121307D01*
X225946D02*
X226779Y122140D01*
X228445D01*
X229278Y121307D01*
Y117975D01*
X228445Y117142D01*
X226779D01*
X225946Y117975D01*
Y121307D01*
X230945Y117142D02*
X232611D01*
X231778D01*
Y122140D01*
X230945Y121307D01*
X235110Y117975D02*
X235943Y117142D01*
X237609D01*
X238442Y117975D01*
Y121307D01*
X237609Y122140D01*
X235943D01*
X235110Y121307D01*
Y120474D01*
X235943Y119641D01*
X238442D01*
X404324Y109449D02*
Y105783D01*
X406157Y107616D02*
X402491D01*
X327552Y94488D02*
Y90823D01*
X329385Y92655D02*
X325719D01*
X327552Y88990D02*
Y85325D01*
X415741Y95276D02*
Y91610D01*
X417574Y93443D02*
X413908D01*
X415741Y89777D02*
Y86112D01*
D82*
X389072Y82242D02*
Y95234D01*
X376080Y82242D02*
X389072D01*
X376080D02*
Y95234D01*
X389072D01*
D83*
X303839Y161027D02*
X305020D01*
X303839Y163783D02*
X305020D01*
X279528Y188583D02*
Y212992D01*
X271654Y188583D02*
X279528D01*
X271654D02*
Y212992D01*
X279528D01*
X277165D02*
Y216929D01*
X274016Y212992D02*
Y216929D01*
X421654Y120079D02*
X436614D01*
X421654Y109843D02*
Y120079D01*
Y109843D02*
X436614D01*
Y120079D01*
X223819Y89764D02*
X233661D01*
X223819D02*
Y101575D01*
X233661Y89764D02*
Y101575D01*
X223819D02*
X233661D01*
X411909Y116732D02*
Y119488D01*
X416437Y116732D02*
Y119488D01*
X435630Y136221D02*
Y138976D01*
X431102Y136221D02*
Y138976D01*
X313322Y110064D02*
X316078D01*
X313322Y105536D02*
X316078D01*
X353740Y161909D02*
X356496D01*
X353740Y166437D02*
X356496D01*
X353740Y174705D02*
X356496D01*
X353740Y170177D02*
X356496D01*
X303445Y237205D02*
Y239961D01*
X298917Y237205D02*
Y239961D01*
X369685Y160236D02*
X373622D01*
X369685Y153937D02*
X373622D01*
X425689Y136658D02*
Y137839D01*
X428445Y136658D02*
Y137839D01*
X419728Y136658D02*
Y137839D01*
X422484Y136658D02*
Y137839D01*
X258465Y193504D02*
Y194685D01*
X261221Y193504D02*
Y194685D01*
X219882Y207283D02*
Y208465D01*
X217126Y207283D02*
Y208465D01*
X223622Y207283D02*
Y208465D01*
X226378Y207283D02*
Y208465D01*
X216732Y103347D02*
X217913D01*
X216732Y100591D02*
X217913D01*
X216732Y87992D02*
X217913D01*
X216732Y90748D02*
X217913D01*
X331398Y172343D02*
Y173524D01*
X328642Y172343D02*
Y173524D01*
X326181Y197047D02*
Y198228D01*
X328937Y197047D02*
Y198228D01*
X299016Y83824D02*
X300197D01*
X299016Y86580D02*
X300197D01*
X308465Y93272D02*
Y94454D01*
X311221Y93272D02*
Y94454D01*
X314210Y103378D02*
X315390D01*
X314210Y100622D02*
X315390D01*
X302346Y146066D02*
X303527D01*
X302346Y148822D02*
X303527D01*
X302346Y150610D02*
X303527D01*
X302346Y153365D02*
X303527D01*
X317913Y135830D02*
X319094D01*
X317913Y133074D02*
X319094D01*
X274094Y135569D02*
X275275D01*
X274094Y132813D02*
X275275D01*
X314210Y114978D02*
X315390D01*
X314210Y112222D02*
X315390D01*
X354528Y158465D02*
X355709D01*
X354528Y155709D02*
X355709D01*
X361221Y180905D02*
X362402D01*
X361221Y183661D02*
X362402D01*
X272244Y225394D02*
Y226575D01*
X275000Y225394D02*
Y226575D01*
X276969Y225394D02*
Y226575D01*
X279724Y225394D02*
Y226575D01*
X294685Y101835D02*
X297441D01*
X294685Y106363D02*
X297441D01*
X277136Y274639D02*
X306664D01*
Y256725D02*
Y274639D01*
X277136Y256725D02*
X306664D01*
X277136D02*
Y274639D01*
X399311Y247244D02*
Y248425D01*
X396555Y247244D02*
Y248425D01*
X394365Y247244D02*
Y248425D01*
X391609Y247244D02*
Y248425D01*
X388818Y247244D02*
Y248425D01*
X386062Y247244D02*
Y248425D01*
X383872Y247244D02*
Y248425D01*
X381116Y247244D02*
Y248425D01*
X375616Y247244D02*
Y248425D01*
X378372Y247244D02*
Y248425D01*
X368504Y247047D02*
Y249803D01*
X373031Y247047D02*
Y249803D01*
X342815Y230118D02*
Y231299D01*
X340059Y230118D02*
Y231299D01*
X279035Y106102D02*
Y108858D01*
X274508Y106102D02*
Y108858D01*
X408268Y103839D02*
X415354D01*
X408268Y97736D02*
X415354D01*
X357410Y123522D02*
X358591D01*
X357410Y126278D02*
X358591D01*
X322244Y247835D02*
X323425D01*
X322244Y250591D02*
X323425D01*
X374606Y127067D02*
X377362D01*
X374606Y122539D02*
X377362D01*
D84*
X253150Y187520D02*
Y194685D01*
Y158268D02*
Y166929D01*
X252362Y158268D02*
X253150D01*
Y194685D02*
Y196063D01*
X252362D02*
X253150D01*
X198031D02*
X199213D01*
X198031Y158268D02*
Y196063D01*
Y158268D02*
X199213D01*
X216732Y162205D02*
Y192126D01*
X198031D02*
X216732D01*
X198031Y162205D02*
X216732D01*
D85*
X312598Y80709D02*
Y97441D01*
Y80709D02*
X325394D01*
Y97441D01*
X312598D02*
X325394D01*
D86*
X289427Y183206D02*
Y186205D01*
X290427Y185206D01*
X291427Y186205D01*
Y183206D01*
X292426Y186205D02*
X293426D01*
X292926D01*
Y183206D01*
X292426D01*
X293426D01*
X296925Y185706D02*
X296425Y186205D01*
X295425D01*
X294926Y185706D01*
Y185206D01*
X295425Y184706D01*
X296425D01*
X296925Y184206D01*
Y183706D01*
X296425Y183206D01*
X295425D01*
X294926Y183706D01*
X299424Y186205D02*
X298425D01*
X297925Y185706D01*
Y183706D01*
X298425Y183206D01*
X299424D01*
X299924Y183706D01*
Y185706D01*
X299424Y186205D01*
X291427Y180427D02*
X290927Y180927D01*
X289927D01*
X289427Y180427D01*
Y179927D01*
X289927Y179427D01*
X290927D01*
X291427Y178927D01*
Y178428D01*
X290927Y177928D01*
X289927D01*
X289427Y178428D01*
X294426Y180427D02*
X293926Y180927D01*
X292926D01*
X292426Y180427D01*
Y178428D01*
X292926Y177928D01*
X293926D01*
X294426Y178428D01*
X295425Y180927D02*
Y177928D01*
Y178927D01*
X297425Y180927D01*
X295925Y179427D01*
X297425Y177928D01*
X286428Y172649D02*
Y175648D01*
X287428Y174648D01*
X288428Y175648D01*
Y172649D01*
X290927Y175648D02*
X289927D01*
X289427Y175148D01*
Y173149D01*
X289927Y172649D01*
X290927D01*
X291427Y173149D01*
Y175148D01*
X290927Y175648D01*
X294426Y175148D02*
X293926Y175648D01*
X292926D01*
X292426Y175148D01*
Y174648D01*
X292926Y174148D01*
X293926D01*
X294426Y173649D01*
Y173149D01*
X293926Y172649D01*
X292926D01*
X292426Y173149D01*
X295425Y175648D02*
X296425D01*
X295925D01*
Y172649D01*
X295425D01*
X296425D01*
X405302Y133408D02*
X404802Y132908D01*
Y131909D01*
X405302Y131409D01*
X405801D01*
X406301Y131909D01*
Y132908D01*
X406801Y133408D01*
X407301D01*
X407801Y132908D01*
Y131909D01*
X407301Y131409D01*
X405302Y136407D02*
X404802Y135907D01*
Y134907D01*
X405302Y134408D01*
X407301D01*
X407801Y134907D01*
Y135907D01*
X407301Y136407D01*
X404802Y137407D02*
X407801D01*
Y139406D01*
X410580Y136407D02*
X410080Y135907D01*
Y134907D01*
X410580Y134408D01*
X411080D01*
X411580Y134907D01*
Y135907D01*
X412080Y136407D01*
X412580D01*
X413080Y135907D01*
Y134907D01*
X412580Y134408D01*
X410080Y137407D02*
X413080D01*
Y138906D01*
X412580Y139406D01*
X410580D01*
X410080Y138906D01*
Y137407D01*
X413080Y140406D02*
X411080D01*
X410080Y141405D01*
X411080Y142405D01*
X413080D01*
X411580D01*
Y140406D01*
X340950Y115982D02*
Y118981D01*
X341950Y117981D01*
X342949Y118981D01*
Y115982D01*
X343949Y118981D02*
X344949D01*
X344449D01*
Y115982D01*
X343949D01*
X344949D01*
X348448Y118481D02*
X347948Y118981D01*
X346948D01*
X346448Y118481D01*
Y117981D01*
X346948Y117482D01*
X347948D01*
X348448Y116982D01*
Y116482D01*
X347948Y115982D01*
X346948D01*
X346448Y116482D01*
X350947Y118981D02*
X349947D01*
X349447Y118481D01*
Y116482D01*
X349947Y115982D01*
X350947D01*
X351447Y116482D01*
Y118481D01*
X350947Y118981D01*
X336951Y113202D02*
X336452Y113702D01*
X335452D01*
X334952Y113202D01*
Y112703D01*
X335452Y112203D01*
X336452D01*
X336951Y111703D01*
Y111203D01*
X336452Y110703D01*
X335452D01*
X334952Y111203D01*
X339950Y113202D02*
X339451Y113702D01*
X338451D01*
X337951Y113202D01*
Y111203D01*
X338451Y110703D01*
X339451D01*
X339950Y111203D01*
X340950Y113702D02*
Y110703D01*
Y111703D01*
X342949Y113702D01*
X341450Y112203D01*
X342949Y110703D01*
X334952Y105424D02*
Y108423D01*
X335952Y107424D01*
X336951Y108423D01*
Y105424D01*
X339451Y108423D02*
X338451D01*
X337951Y107924D01*
Y105924D01*
X338451Y105424D01*
X339451D01*
X339950Y105924D01*
Y107924D01*
X339451Y108423D01*
X342949Y107924D02*
X342449Y108423D01*
X341450D01*
X340950Y107924D01*
Y107424D01*
X341450Y106924D01*
X342449D01*
X342949Y106424D01*
Y105924D01*
X342449Y105424D01*
X341450D01*
X340950Y105924D01*
X343949Y108423D02*
X344949D01*
X344449D01*
Y105424D01*
X343949D01*
X344949D01*
D87*
X365453Y198325D02*
D03*
X356299Y193404D02*
D03*
X374606Y198325D02*
D03*
X353299Y95261D02*
D03*
M02*
