G04 Layer_Color=16711935*
%FSLAX25Y25*%
%MOIN*%
G70*
G01*
G75*
%ADD92R,0.04343X0.03556*%
%ADD93R,0.06115X0.03753*%
%ADD94R,0.03753X0.06115*%
G04:AMPARAMS|DCode=95|XSize=86.74mil|YSize=57.21mil|CornerRadius=4.25mil|HoleSize=0mil|Usage=FLASHONLY|Rotation=90.000|XOffset=0mil|YOffset=0mil|HoleType=Round|Shape=RoundedRectangle|*
%AMROUNDEDRECTD95*
21,1,0.08674,0.04872,0,0,90.0*
21,1,0.07825,0.05721,0,0,90.0*
1,1,0.00849,0.02436,0.03912*
1,1,0.00849,0.02436,-0.03912*
1,1,0.00849,-0.02436,-0.03912*
1,1,0.00849,-0.02436,0.03912*
%
%ADD95ROUNDEDRECTD95*%
G04:AMPARAMS|DCode=96|XSize=165.48mil|YSize=106.42mil|CornerRadius=4.49mil|HoleSize=0mil|Usage=FLASHONLY|Rotation=90.000|XOffset=0mil|YOffset=0mil|HoleType=Round|Shape=RoundedRectangle|*
%AMROUNDEDRECTD96*
21,1,0.16548,0.09744,0,0,90.0*
21,1,0.15650,0.10642,0,0,90.0*
1,1,0.00898,0.04872,0.07825*
1,1,0.00898,0.04872,-0.07825*
1,1,0.00898,-0.04872,-0.07825*
1,1,0.00898,-0.04872,0.07825*
%
%ADD96ROUNDEDRECTD96*%
G04:AMPARAMS|DCode=97|XSize=61.15mil|YSize=23.75mil|CornerRadius=4.08mil|HoleSize=0mil|Usage=FLASHONLY|Rotation=90.000|XOffset=0mil|YOffset=0mil|HoleType=Round|Shape=RoundedRectangle|*
%AMROUNDEDRECTD97*
21,1,0.06115,0.01559,0,0,90.0*
21,1,0.05299,0.02375,0,0,90.0*
1,1,0.00816,0.00780,0.02650*
1,1,0.00816,0.00780,-0.02650*
1,1,0.00816,-0.00780,-0.02650*
1,1,0.00816,-0.00780,0.02650*
%
%ADD97ROUNDEDRECTD97*%
%ADD99R,0.02375X0.04737*%
%ADD105R,0.03556X0.04343*%
%ADD106R,0.06154X0.03359*%
%ADD120R,0.03359X0.06154*%
%ADD126O,0.02769X0.03162*%
%ADD127C,0.12611*%
%ADD129C,0.04737*%
%ADD130O,0.06706X0.04343*%
%ADD131C,0.01800*%
%ADD132O,0.17335X0.14579*%
%ADD133O,0.16548X0.14579*%
%ADD134O,0.08674X0.04343*%
%ADD135C,0.03556*%
%ADD136R,0.03556X0.10642*%
%ADD137R,0.08674X0.08674*%
%ADD138R,0.10642X0.06706*%
%ADD139R,0.06706X0.01981*%
%ADD140R,0.06706X0.07493*%
%ADD141R,0.01587X0.04343*%
%ADD142R,0.11824X0.05131*%
%ADD143R,0.06115X0.03753*%
%ADD144R,0.03556X0.08674*%
%ADD145R,0.08674X0.03556*%
%ADD146R,0.03792X0.11036*%
%ADD147R,0.04343X0.02572*%
%ADD148R,0.05918X0.08674*%
%ADD149R,0.04737X0.04737*%
%ADD150C,0.10642*%
G36*
X472835Y109449D02*
X457087D01*
Y139764D01*
X430315D01*
Y155512D01*
X472835D01*
Y109449D01*
D02*
G37*
D92*
X429528Y118110D02*
D03*
Y111024D02*
D03*
X436461Y138823D02*
D03*
Y131736D02*
D03*
X441972Y138823D02*
D03*
Y131736D02*
D03*
X285039Y212992D02*
D03*
Y205906D02*
D03*
X317717Y218504D02*
D03*
Y211417D02*
D03*
X364961Y235164D02*
D03*
Y242250D02*
D03*
D93*
X324200Y199371D02*
D03*
Y208229D02*
D03*
X428193Y143252D02*
D03*
Y134394D02*
D03*
X392663Y143729D02*
D03*
Y134871D02*
D03*
X400000Y143629D02*
D03*
Y134771D02*
D03*
X307579Y258169D02*
D03*
Y267028D02*
D03*
D94*
X387999Y88800D02*
D03*
X379141D02*
D03*
D95*
X335827Y95669D02*
D03*
X355512D02*
D03*
D96*
X331890Y86614D02*
D03*
X359449D02*
D03*
D97*
X340551Y94095D02*
D03*
X343110D02*
D03*
X345669D02*
D03*
X348228D02*
D03*
X350787D02*
D03*
D99*
X389270Y235783D02*
D03*
Y245232D02*
D03*
X386711Y235783D02*
D03*
X384152D02*
D03*
X386711Y245232D02*
D03*
X384152D02*
D03*
X394360Y245605D02*
D03*
Y236157D02*
D03*
X396919Y245605D02*
D03*
X399478D02*
D03*
X396919Y236157D02*
D03*
X399478D02*
D03*
D105*
X437795Y201969D02*
D03*
X430709D02*
D03*
X347441Y214567D02*
D03*
X340354D02*
D03*
X347441Y209208D02*
D03*
X340354D02*
D03*
X347441Y203850D02*
D03*
X340354D02*
D03*
X347441Y198491D02*
D03*
X340354D02*
D03*
X347441Y193132D02*
D03*
X340354D02*
D03*
X347441Y187774D02*
D03*
X340354D02*
D03*
X302559Y223031D02*
D03*
X295472D02*
D03*
X347441Y182415D02*
D03*
X340354D02*
D03*
X347441Y177056D02*
D03*
X340354D02*
D03*
X302559Y218307D02*
D03*
X295472D02*
D03*
X347441Y161067D02*
D03*
X340354D02*
D03*
X347441Y155512D02*
D03*
X340354D02*
D03*
X302756Y200000D02*
D03*
X295669D02*
D03*
X395162Y224581D02*
D03*
X388076D02*
D03*
X395262Y230081D02*
D03*
X388176D02*
D03*
X379110Y82767D02*
D03*
X386196D02*
D03*
X379232Y94882D02*
D03*
X386319D02*
D03*
D106*
X352362Y107677D02*
D03*
Y111417D02*
D03*
X341339Y107677D02*
D03*
X352362Y115157D02*
D03*
X341339Y111417D02*
D03*
Y115157D02*
D03*
D120*
X455555Y140398D02*
D03*
X451815D02*
D03*
X455555Y129374D02*
D03*
X448075Y140398D02*
D03*
Y129374D02*
D03*
D126*
X273925Y219000D02*
D03*
X277075D02*
D03*
D127*
X320866Y267717D02*
D03*
X454331Y91732D02*
D03*
D129*
X278724Y149090D02*
D03*
X318094D02*
D03*
X407800Y145700D02*
D03*
X410900Y149508D02*
D03*
X408600Y170600D02*
D03*
X412603Y175192D02*
D03*
X330500Y111900D02*
D03*
X326400Y107100D02*
D03*
X336500Y94000D02*
D03*
Y97000D02*
D03*
X334500Y91000D02*
D03*
X355000Y94000D02*
D03*
Y97000D02*
D03*
X361000Y87000D02*
D03*
X359000Y85000D02*
D03*
X357000Y87000D02*
D03*
Y83000D02*
D03*
X361000D02*
D03*
X359000Y89000D02*
D03*
X361000Y91000D02*
D03*
X357000D02*
D03*
X330500D02*
D03*
X332500Y89000D02*
D03*
X334500Y83000D02*
D03*
X330500D02*
D03*
Y87000D02*
D03*
X332500Y85000D02*
D03*
X334500Y87000D02*
D03*
X334055Y116240D02*
D03*
D130*
X400197Y258465D02*
D03*
Y263386D02*
D03*
X388189Y128150D02*
D03*
Y123228D02*
D03*
D131*
X427781Y182455D02*
D03*
X438360Y171876D02*
D03*
D132*
X381890Y267717D02*
D03*
X255906D02*
D03*
X259842Y86614D02*
D03*
D133*
X429134D02*
D03*
D134*
X408268Y87402D02*
D03*
Y92323D02*
D03*
D135*
X305315Y184843D02*
D03*
X302968Y180422D02*
D03*
X298800Y174413D02*
D03*
D136*
X281874Y164838D02*
D03*
X277346D02*
D03*
X299787D02*
D03*
X286795D02*
D03*
X295457D02*
D03*
X291126D02*
D03*
X308449D02*
D03*
X304118D02*
D03*
X317110D02*
D03*
X312779D02*
D03*
D137*
X269669Y130192D02*
D03*
X327150D02*
D03*
D138*
X370669Y204724D02*
D03*
Y149606D02*
D03*
D139*
X359055Y174213D02*
D03*
Y170276D02*
D03*
Y172244D02*
D03*
Y166339D02*
D03*
Y168307D02*
D03*
Y164370D02*
D03*
Y154528D02*
D03*
Y156496D02*
D03*
Y160433D02*
D03*
Y162402D02*
D03*
Y158465D02*
D03*
Y191929D02*
D03*
Y193898D02*
D03*
Y187992D02*
D03*
Y189961D02*
D03*
Y197835D02*
D03*
Y199803D02*
D03*
Y195866D02*
D03*
Y178150D02*
D03*
Y180118D02*
D03*
Y176181D02*
D03*
Y184055D02*
D03*
Y186024D02*
D03*
Y182087D02*
D03*
D140*
X322354Y251969D02*
D03*
X307568D02*
D03*
D141*
X421260Y144390D02*
D03*
X419685D02*
D03*
X416535D02*
D03*
X418110D02*
D03*
X419685Y133366D02*
D03*
X421260D02*
D03*
X416535D02*
D03*
X418110D02*
D03*
X414961Y144390D02*
D03*
Y133366D02*
D03*
D142*
X418110Y138878D02*
D03*
D143*
X370819Y235857D02*
D03*
Y245305D02*
D03*
X378119Y245205D02*
D03*
Y235757D02*
D03*
D144*
X448425Y159961D02*
D03*
X443701D02*
D03*
X438976D02*
D03*
X434252D02*
D03*
X429528D02*
D03*
Y195394D02*
D03*
X434252D02*
D03*
X438976D02*
D03*
X443701D02*
D03*
X448425D02*
D03*
D145*
X422047Y165866D02*
D03*
Y170591D02*
D03*
Y175315D02*
D03*
Y180039D02*
D03*
Y184764D02*
D03*
Y189488D02*
D03*
D146*
X295827Y250772D02*
D03*
X290827D02*
D03*
X285827D02*
D03*
X280827D02*
D03*
X275827D02*
D03*
Y268126D02*
D03*
X280827D02*
D03*
X285827D02*
D03*
X290827D02*
D03*
X295827D02*
D03*
D147*
X342520Y255118D02*
D03*
Y259055D02*
D03*
Y262992D02*
D03*
X354331D02*
D03*
Y259055D02*
D03*
Y255118D02*
D03*
D148*
X348425Y259055D02*
D03*
D149*
X434638Y118600D02*
D03*
X439362D02*
D03*
D150*
X297031Y129279D02*
D03*
M02*
