G04 Layer_Color=8388736*
%FSLAX25Y25*%
%MOIN*%
G70*
G01*
G75*
%ADD92R,0.04343X0.03556*%
%ADD93R,0.06115X0.03753*%
%ADD94R,0.03753X0.06115*%
G04:AMPARAMS|DCode=95|XSize=86.74mil|YSize=57.21mil|CornerRadius=4.25mil|HoleSize=0mil|Usage=FLASHONLY|Rotation=90.000|XOffset=0mil|YOffset=0mil|HoleType=Round|Shape=RoundedRectangle|*
%AMROUNDEDRECTD95*
21,1,0.08674,0.04872,0,0,90.0*
21,1,0.07825,0.05721,0,0,90.0*
1,1,0.00849,0.02436,0.03912*
1,1,0.00849,0.02436,-0.03912*
1,1,0.00849,-0.02436,-0.03912*
1,1,0.00849,-0.02436,0.03912*
%
%ADD95ROUNDEDRECTD95*%
G04:AMPARAMS|DCode=96|XSize=165.48mil|YSize=106.42mil|CornerRadius=4.49mil|HoleSize=0mil|Usage=FLASHONLY|Rotation=90.000|XOffset=0mil|YOffset=0mil|HoleType=Round|Shape=RoundedRectangle|*
%AMROUNDEDRECTD96*
21,1,0.16548,0.09744,0,0,90.0*
21,1,0.15650,0.10642,0,0,90.0*
1,1,0.00898,0.04872,0.07825*
1,1,0.00898,0.04872,-0.07825*
1,1,0.00898,-0.04872,-0.07825*
1,1,0.00898,-0.04872,0.07825*
%
%ADD96ROUNDEDRECTD96*%
G04:AMPARAMS|DCode=97|XSize=61.15mil|YSize=23.75mil|CornerRadius=4.08mil|HoleSize=0mil|Usage=FLASHONLY|Rotation=90.000|XOffset=0mil|YOffset=0mil|HoleType=Round|Shape=RoundedRectangle|*
%AMROUNDEDRECTD97*
21,1,0.06115,0.01559,0,0,90.0*
21,1,0.05299,0.02375,0,0,90.0*
1,1,0.00816,0.00780,0.02650*
1,1,0.00816,0.00780,-0.02650*
1,1,0.00816,-0.00780,-0.02650*
1,1,0.00816,-0.00780,0.02650*
%
%ADD97ROUNDEDRECTD97*%
G04:AMPARAMS|DCode=98|XSize=57.21mil|YSize=86.74mil|CornerRadius=5.23mil|HoleSize=0mil|Usage=FLASHONLY|Rotation=180.000|XOffset=0mil|YOffset=0mil|HoleType=Round|Shape=RoundedRectangle|*
%AMROUNDEDRECTD98*
21,1,0.05721,0.07628,0,0,180.0*
21,1,0.04675,0.08674,0,0,180.0*
1,1,0.01046,-0.02338,0.03814*
1,1,0.01046,0.02338,0.03814*
1,1,0.01046,0.02338,-0.03814*
1,1,0.01046,-0.02338,-0.03814*
%
%ADD98ROUNDEDRECTD98*%
%ADD99R,0.02375X0.04737*%
%ADD100R,0.05131X0.01902*%
%ADD101R,0.01902X0.05131*%
%ADD102R,0.04147X0.02178*%
%ADD103R,0.02178X0.04147*%
%ADD104R,0.05524X0.05524*%
%ADD105R,0.03556X0.04343*%
%ADD106R,0.06154X0.03359*%
%ADD107R,0.02769X0.02769*%
%ADD108R,0.09461X0.06706*%
%ADD109R,0.08674X0.08674*%
%ADD110R,0.04737X0.02375*%
%ADD111R,0.01784X0.05918*%
%ADD112R,0.05918X0.01784*%
%ADD113R,0.04737X0.06706*%
%ADD114R,0.03556X0.06706*%
%ADD115R,0.06706X0.03556*%
%ADD116R,0.01902X0.06706*%
%ADD117R,0.06706X0.01902*%
%ADD118R,0.05524X0.07887*%
%ADD119R,0.06706X0.05721*%
%ADD120R,0.03359X0.06154*%
%ADD121R,0.06312X0.05524*%
G04:AMPARAMS|DCode=122|XSize=47.37mil|YSize=86.74mil|CornerRadius=0mil|HoleSize=0mil|Usage=FLASHONLY|Rotation=315.000|XOffset=0mil|YOffset=0mil|HoleType=Round|Shape=Rectangle|*
%AMROTATEDRECTD122*
4,1,4,-0.04742,-0.01392,0.01392,0.04742,0.04742,0.01392,-0.01392,-0.04742,-0.04742,-0.01392,0.0*
%
%ADD122ROTATEDRECTD122*%

%ADD123P,0.12267X4X360.0*%
%ADD124R,0.04737X0.02375*%
%ADD125R,0.03753X0.07690*%
%ADD126O,0.02769X0.03162*%
%ADD127C,0.12611*%
G04:AMPARAMS|DCode=128|XSize=165.48mil|YSize=165.48mil|CornerRadius=4.79mil|HoleSize=0mil|Usage=FLASHONLY|Rotation=0.000|XOffset=0mil|YOffset=0mil|HoleType=Round|Shape=RoundedRectangle|*
%AMROUNDEDRECTD128*
21,1,0.16548,0.15590,0,0,0.0*
21,1,0.15590,0.16548,0,0,0.0*
1,1,0.00958,0.07795,-0.07795*
1,1,0.00958,-0.07795,-0.07795*
1,1,0.00958,-0.07795,0.07795*
1,1,0.00958,0.07795,0.07795*
%
%ADD128ROUNDEDRECTD128*%
%ADD129C,0.04737*%
%ADD130O,0.06706X0.04343*%
%ADD131C,0.01800*%
%ADD132O,0.17335X0.14579*%
%ADD133O,0.16548X0.14579*%
%ADD134O,0.08674X0.04343*%
%ADD135C,0.03556*%
G36*
X472441Y106299D02*
X456299D01*
Y138846D01*
X430315D01*
Y158661D01*
X472441D01*
Y106299D01*
D02*
G37*
D92*
X451400Y115643D02*
D03*
Y108557D02*
D03*
X402800Y225168D02*
D03*
Y218081D02*
D03*
X398222Y225168D02*
D03*
Y218081D02*
D03*
X393644Y225168D02*
D03*
Y218081D02*
D03*
X389067Y225168D02*
D03*
Y218081D02*
D03*
X384489Y225168D02*
D03*
Y218081D02*
D03*
X377943Y225168D02*
D03*
Y218081D02*
D03*
X373365Y225168D02*
D03*
Y218081D02*
D03*
X368787Y225168D02*
D03*
Y218081D02*
D03*
X364209Y225168D02*
D03*
Y218081D02*
D03*
X359632Y225168D02*
D03*
Y218081D02*
D03*
X427067Y133705D02*
D03*
Y140791D02*
D03*
X421106Y133705D02*
D03*
Y140791D02*
D03*
X259842Y190551D02*
D03*
Y197638D02*
D03*
X218504Y211417D02*
D03*
Y204331D02*
D03*
X225000D02*
D03*
Y211417D02*
D03*
X309842Y90320D02*
D03*
Y97406D02*
D03*
X273622Y229528D02*
D03*
Y222441D02*
D03*
X278346Y229528D02*
D03*
Y222441D02*
D03*
D93*
X445800Y115829D02*
D03*
Y106971D02*
D03*
X414173Y122539D02*
D03*
Y113681D02*
D03*
X433366Y142027D02*
D03*
Y133169D02*
D03*
X301181Y243012D02*
D03*
Y234154D02*
D03*
X330700Y235529D02*
D03*
Y226671D02*
D03*
X276772Y111909D02*
D03*
Y103051D02*
D03*
D94*
X330542Y171400D02*
D03*
X339400D02*
D03*
X319129Y107800D02*
D03*
X310271D02*
D03*
X359547Y164173D02*
D03*
X350689D02*
D03*
X359547Y172441D02*
D03*
X350689D02*
D03*
X291634Y104099D02*
D03*
X300492D02*
D03*
X371555Y124803D02*
D03*
X380413D02*
D03*
D95*
X282057Y256725D02*
D03*
X301743D02*
D03*
D96*
X278120Y265780D02*
D03*
X305679D02*
D03*
D97*
X286782Y258300D02*
D03*
X289341D02*
D03*
X291900D02*
D03*
X294459D02*
D03*
X297018D02*
D03*
D98*
X316118Y242200D02*
D03*
X330882D02*
D03*
D99*
X389659Y240449D02*
D03*
X387100D02*
D03*
X384541D02*
D03*
Y231000D02*
D03*
X387100D02*
D03*
X389659D02*
D03*
X400259Y240449D02*
D03*
X397700D02*
D03*
X395141D02*
D03*
Y231000D02*
D03*
X397700D02*
D03*
X400259D02*
D03*
X379059Y240449D02*
D03*
X376500D02*
D03*
X373941D02*
D03*
Y231000D02*
D03*
X376500D02*
D03*
X379059D02*
D03*
X368459Y240449D02*
D03*
X365900D02*
D03*
X363341D02*
D03*
Y231000D02*
D03*
X365900D02*
D03*
X368459D02*
D03*
D100*
X309433Y121405D02*
D03*
Y123373D02*
D03*
Y125342D02*
D03*
Y127310D02*
D03*
Y129279D02*
D03*
Y131247D02*
D03*
Y133216D02*
D03*
Y135184D02*
D03*
Y137153D02*
D03*
X284630D02*
D03*
Y135184D02*
D03*
Y133216D02*
D03*
Y131247D02*
D03*
Y129279D02*
D03*
Y127310D02*
D03*
Y125342D02*
D03*
Y123373D02*
D03*
Y121405D02*
D03*
D101*
X304906Y141680D02*
D03*
X302937D02*
D03*
X300969D02*
D03*
X299000D02*
D03*
X297031D02*
D03*
X295063D02*
D03*
X293094D02*
D03*
X291126D02*
D03*
X289158D02*
D03*
Y116877D02*
D03*
X291126D02*
D03*
X293094D02*
D03*
X295063D02*
D03*
X297031D02*
D03*
X299000D02*
D03*
X300969D02*
D03*
X302937D02*
D03*
X304906D02*
D03*
D102*
X388580Y86376D02*
D03*
Y88738D02*
D03*
Y91100D02*
D03*
X376572D02*
D03*
Y88738D02*
D03*
Y86376D02*
D03*
D103*
X383757Y94742D02*
D03*
X381395D02*
D03*
Y82734D02*
D03*
X383757D02*
D03*
D104*
X382576Y88738D02*
D03*
D105*
X300886Y162405D02*
D03*
X307972D02*
D03*
X213779Y101969D02*
D03*
X220866D02*
D03*
Y89370D02*
D03*
X213779D02*
D03*
X303150Y85202D02*
D03*
X296063D02*
D03*
X318343Y102000D02*
D03*
X311257D02*
D03*
X299394Y147444D02*
D03*
X306480D02*
D03*
X299394Y151987D02*
D03*
X306480D02*
D03*
X314961Y134452D02*
D03*
X322047D02*
D03*
X271141Y134191D02*
D03*
X278228D02*
D03*
X318343Y113600D02*
D03*
X311257D02*
D03*
X358661Y157087D02*
D03*
X351575D02*
D03*
X365354Y182283D02*
D03*
X358268D02*
D03*
X387057Y248500D02*
D03*
X394143D02*
D03*
X335948Y197137D02*
D03*
X343035D02*
D03*
X361543Y124900D02*
D03*
X354457D02*
D03*
X324443Y250500D02*
D03*
X317357D02*
D03*
D106*
X441185Y133902D02*
D03*
Y141382D02*
D03*
X452209D02*
D03*
Y137642D02*
D03*
Y133902D02*
D03*
X332405Y210424D02*
D03*
Y206684D02*
D03*
Y202944D02*
D03*
X343428D02*
D03*
Y210424D02*
D03*
X376772Y170079D02*
D03*
X365748Y173819D02*
D03*
Y166339D02*
D03*
X343428Y191527D02*
D03*
Y184046D02*
D03*
X332405D02*
D03*
Y187787D02*
D03*
Y191527D02*
D03*
D107*
X424016Y109055D02*
D03*
X434252D02*
D03*
D108*
X429134D02*
D03*
D109*
Y118898D02*
D03*
D110*
X437795Y117520D02*
D03*
Y114961D02*
D03*
Y112402D02*
D03*
X420472D02*
D03*
Y114961D02*
D03*
Y117520D02*
D03*
D111*
X225787Y89370D02*
D03*
X227756D02*
D03*
X229724D02*
D03*
X231693D02*
D03*
X225787Y101969D02*
D03*
X227756D02*
D03*
X229724D02*
D03*
X231693D02*
D03*
D112*
X223819Y93701D02*
D03*
Y97638D02*
D03*
Y95669D02*
D03*
X233661D02*
D03*
Y93701D02*
D03*
Y97638D02*
D03*
D113*
X202165Y196063D02*
D03*
Y158268D02*
D03*
D114*
X206693Y196063D02*
D03*
X210630D02*
D03*
X214567D02*
D03*
X218504D02*
D03*
X222441D02*
D03*
X226378D02*
D03*
X230315D02*
D03*
X234252D02*
D03*
X238189D02*
D03*
X242126D02*
D03*
X246063D02*
D03*
X250000D02*
D03*
Y158268D02*
D03*
X246063D02*
D03*
X242126D02*
D03*
X238189D02*
D03*
X234252D02*
D03*
X230315D02*
D03*
X226378D02*
D03*
X222441D02*
D03*
X218504D02*
D03*
X214567D02*
D03*
X210630D02*
D03*
X206693D02*
D03*
D115*
X252953Y185039D02*
D03*
Y181102D02*
D03*
Y177165D02*
D03*
Y173228D02*
D03*
Y169291D02*
D03*
D116*
X289567Y190354D02*
D03*
X291535D02*
D03*
X293504D02*
D03*
X295472D02*
D03*
X297441D02*
D03*
X299410D02*
D03*
X301378D02*
D03*
X303346D02*
D03*
X305315D02*
D03*
X307283D02*
D03*
X309252D02*
D03*
X311221D02*
D03*
X311221Y224606D02*
D03*
X309252D02*
D03*
X307283D02*
D03*
X305315D02*
D03*
X303346D02*
D03*
X301378D02*
D03*
X299409D02*
D03*
X297441D02*
D03*
X295472D02*
D03*
X293504D02*
D03*
X291535D02*
D03*
X289567D02*
D03*
D117*
X283268Y218307D02*
D03*
Y216339D02*
D03*
Y214370D02*
D03*
Y212402D02*
D03*
Y210433D02*
D03*
Y208465D02*
D03*
Y206496D02*
D03*
Y204527D02*
D03*
Y202559D02*
D03*
Y200591D02*
D03*
Y198622D02*
D03*
Y196653D02*
D03*
X317520D02*
D03*
Y198622D02*
D03*
Y200590D02*
D03*
Y202559D02*
D03*
Y204527D02*
D03*
Y206496D02*
D03*
Y208465D02*
D03*
Y210433D02*
D03*
Y212402D02*
D03*
Y214370D02*
D03*
Y216339D02*
D03*
Y218307D02*
D03*
D118*
X377559Y157087D02*
D03*
X365748D02*
D03*
D119*
X365453Y203246D02*
D03*
Y188482D02*
D03*
X356299Y203246D02*
D03*
Y188482D02*
D03*
X374606Y203246D02*
D03*
Y188482D02*
D03*
D120*
X341200Y143712D02*
D03*
X337460Y132688D02*
D03*
X344940D02*
D03*
X354360D02*
D03*
X358100D02*
D03*
X361840D02*
D03*
Y143712D02*
D03*
X354360D02*
D03*
X379724Y133071D02*
D03*
X372244D02*
D03*
X375984Y144095D02*
D03*
D121*
X303937Y97013D02*
D03*
X295276Y97013D02*
D03*
X295276Y90713D02*
D03*
X303937Y90713D02*
D03*
D122*
X419151Y171180D02*
D03*
X423118Y167213D02*
D03*
X427085Y163246D02*
D03*
X439056Y191085D02*
D03*
X443023Y187118D02*
D03*
X446990Y183151D02*
D03*
D123*
X421935Y188301D02*
D03*
X444206Y166030D02*
D03*
D124*
X339308Y219182D02*
D03*
Y221741D02*
D03*
X348757Y219182D02*
D03*
X339308Y224300D02*
D03*
X348757Y221741D02*
D03*
Y224300D02*
D03*
X339308Y231163D02*
D03*
X348757D02*
D03*
X339308Y233722D02*
D03*
Y236281D02*
D03*
X348757Y233722D02*
D03*
Y236281D02*
D03*
D125*
X405217Y100787D02*
D03*
X418405D02*
D03*
D126*
X273925Y219000D02*
D03*
X277075D02*
D03*
D127*
X320866Y267717D02*
D03*
X454331Y91732D02*
D03*
D128*
X297031Y129279D02*
D03*
D129*
X278724Y149090D02*
D03*
X318094D02*
D03*
X407800Y145700D02*
D03*
X410900Y149508D02*
D03*
X408600Y170600D02*
D03*
X412603Y175192D02*
D03*
X330500Y111900D02*
D03*
X326400Y107100D02*
D03*
X336500Y94000D02*
D03*
Y97000D02*
D03*
X334500Y91000D02*
D03*
X355000Y94000D02*
D03*
Y97000D02*
D03*
X361000Y87000D02*
D03*
X359000Y85000D02*
D03*
X357000Y87000D02*
D03*
Y83000D02*
D03*
X361000D02*
D03*
X359000Y89000D02*
D03*
X361000Y91000D02*
D03*
X357000D02*
D03*
X330500D02*
D03*
X332500Y89000D02*
D03*
X334500Y83000D02*
D03*
X330500D02*
D03*
Y87000D02*
D03*
X332500Y85000D02*
D03*
X334500Y87000D02*
D03*
X334055Y116240D02*
D03*
D130*
X400197Y258465D02*
D03*
Y263386D02*
D03*
X388189Y128150D02*
D03*
Y123228D02*
D03*
D131*
X427781Y182455D02*
D03*
X438360Y171876D02*
D03*
D132*
X381890Y267717D02*
D03*
X255906D02*
D03*
X259842Y86614D02*
D03*
D133*
X429134D02*
D03*
D134*
X408268Y87402D02*
D03*
Y92323D02*
D03*
D135*
X305315Y184843D02*
D03*
X302968Y180422D02*
D03*
X298800Y174413D02*
D03*
M02*
