G04 Layer_Color=65535*
%FSLAX25Y25*%
%MOIN*%
G70*
G01*
G75*
%ADD47C,0.01000*%
%ADD49C,0.00600*%
%ADD86C,0.00787*%
%ADD87C,0.01181*%
%ADD88C,0.00630*%
%ADD89C,0.00700*%
%ADD90R,0.02953X0.05906*%
%ADD91R,0.05906X0.02953*%
D47*
X393793Y239661D02*
X393249Y240410D01*
X392369Y240124D01*
Y239199D01*
X393249Y238913D01*
X393793Y239661D01*
X404393D02*
X403849Y240410D01*
X402969Y240124D01*
Y239199D01*
X403849Y238913D01*
X404393Y239661D01*
X383193D02*
X382649Y240410D01*
X381768Y240124D01*
Y239199D01*
X382649Y238913D01*
X383193Y239661D01*
X372593D02*
X372049Y240410D01*
X371168Y240124D01*
Y239199D01*
X372049Y238913D01*
X372593Y239661D01*
X313173Y116287D02*
X312729Y117210D01*
X311729Y117438D01*
X310928Y116799D01*
Y115774D01*
X311729Y115135D01*
X312729Y115363D01*
X313173Y116287D01*
X387695Y97793D02*
X387250Y98716D01*
X386251Y98944D01*
X385449Y98305D01*
Y97281D01*
X386251Y96641D01*
X387250Y96869D01*
X387695Y97793D01*
X237101Y101575D02*
X236661Y102337D01*
X235780D01*
X235340Y101575D01*
X235780Y100812D01*
X236661D01*
X237101Y101575D01*
X285827Y224016D02*
X285563Y225000D01*
X284842Y225721D01*
X283858Y225984D01*
X282874Y225721D01*
X282154Y225000D01*
X281890Y224016D01*
X282154Y223031D01*
X282874Y222311D01*
X283858Y222047D01*
X284842Y222311D01*
X285563Y223031D01*
X285827Y224016D01*
X340883Y227646D02*
X340339Y228395D01*
X339458Y228109D01*
Y227184D01*
X340339Y226898D01*
X340883Y227646D01*
X348757Y227817D02*
X348213Y228565D01*
X347332Y228279D01*
Y227354D01*
X348213Y227068D01*
X348757Y227817D01*
X319563Y245153D02*
X327437D01*
X319563Y239247D02*
Y245153D01*
Y239247D02*
X327437D01*
Y245153D01*
X391431Y233756D02*
Y237693D01*
X382769Y233756D02*
Y237693D01*
X402031Y233756D02*
Y237693D01*
X393369Y233756D02*
Y237693D01*
X380831Y233756D02*
Y237693D01*
X372169Y233756D02*
Y237693D01*
X370231Y233756D02*
Y237693D01*
X361569Y233756D02*
Y237693D01*
X409055Y97736D02*
Y103839D01*
X408268Y97736D02*
Y103839D01*
X288583Y221260D02*
X312205D01*
X286614Y219291D02*
X288583Y221260D01*
X286614Y195669D02*
Y219291D01*
X312205Y221260D02*
X314173Y219291D01*
Y195669D02*
Y219291D01*
X288583Y193701D02*
X312205D01*
X314173Y195669D01*
X286614Y195669D02*
X288583Y193701D01*
X362500Y199801D02*
X368406D01*
X362500Y191927D02*
Y199801D01*
X368406Y191927D02*
Y199801D01*
X362500Y191927D02*
X368406D01*
X353346D02*
Y199801D01*
Y191927D02*
X359252D01*
Y199801D01*
X353346D02*
X359252D01*
X371654D02*
X377559D01*
X371654Y191927D02*
Y199801D01*
X377559Y191927D02*
Y199801D01*
X371654Y191927D02*
X377559D01*
X298425Y98981D02*
X300787Y98981D01*
X298425Y88745D02*
X300787Y88745D01*
X305906Y94257D02*
X305906Y93469D01*
X293307Y94257D02*
X293307Y93469D01*
X414976Y177165D02*
X433071Y159070D01*
X451166Y177165D01*
X433071Y195261D02*
X451166Y177165D01*
X414976D02*
X433071Y195261D01*
X405232Y177165D02*
X412192D01*
X405232D02*
X407320Y179253D01*
X405232Y177165D02*
X407320Y179253D01*
X405232Y177165D02*
X407320Y175077D01*
X430983Y202916D02*
X433071Y205004D01*
X435159Y202916D01*
X433071Y205004D02*
X435159Y202916D01*
X433071Y198045D02*
Y205004D01*
Y149327D02*
X435159Y151414D01*
X430983D02*
X433071Y149327D01*
X430983Y151414D02*
X433071Y149327D01*
Y156286D01*
X458822Y179253D02*
X460910Y177165D01*
X458822Y175077D02*
X460910Y177165D01*
X458822Y175077D02*
X460910Y177165D01*
X453950D02*
X460910D01*
X342064Y217410D02*
X346001D01*
X342064Y226072D02*
X346001D01*
X342064Y229391D02*
X346001D01*
X342064Y238053D02*
X346001D01*
X347638Y155905D02*
Y159843D01*
X348425Y160630D01*
X205120Y140602D02*
X203453D01*
X204287D01*
Y136437D01*
X203453Y135604D01*
X202621D01*
X201787Y136437D01*
X207619Y138936D02*
X209285D01*
X210118Y138103D01*
Y135604D01*
X207619D01*
X206786Y136437D01*
X207619Y137270D01*
X210118D01*
X211784Y135604D02*
Y138936D01*
X214283D01*
X215116Y138103D01*
Y135604D01*
X221781Y140602D02*
X225113D01*
Y139769D01*
X221781Y136437D01*
Y135604D01*
X225113D01*
X227612Y138936D02*
X229278D01*
X230112Y138103D01*
Y135604D01*
X227612D01*
X226779Y136437D01*
X227612Y137270D01*
X230112D01*
X231778Y135604D02*
Y138936D01*
X232611D01*
X233444Y138103D01*
Y135604D01*
Y138103D01*
X234277Y138936D01*
X235110Y138103D01*
Y135604D01*
X236776Y140602D02*
Y135604D01*
X239275D01*
X240108Y136437D01*
Y137270D01*
Y138103D01*
X239275Y138936D01*
X236776D01*
X201787Y132204D02*
Y128872D01*
X203453Y127206D01*
X205120Y128872D01*
Y132204D01*
X207619Y130538D02*
X209285D01*
X210118Y129705D01*
Y127206D01*
X207619D01*
X206786Y128039D01*
X207619Y128872D01*
X210118D01*
X211784Y130538D02*
Y127206D01*
Y128872D01*
X212617Y129705D01*
X213450Y130538D01*
X214283D01*
X216782Y127206D02*
X218449D01*
X217616D01*
Y130538D01*
X216782D01*
X221781Y127206D02*
X223447D01*
X224280Y128039D01*
Y129705D01*
X223447Y130538D01*
X221781D01*
X220948Y129705D01*
Y128039D01*
X221781Y127206D01*
X230945D02*
X232611D01*
X231778D01*
Y132204D01*
X230945Y131371D01*
X235110Y127206D02*
Y128039D01*
X235943D01*
Y127206D01*
X235110D01*
X242607Y132204D02*
X239275D01*
Y129705D01*
X240941Y130538D01*
X241774D01*
X242607Y129705D01*
Y128039D01*
X241774Y127206D01*
X240108D01*
X239275Y128039D01*
X201787Y118808D02*
Y123806D01*
X203453Y122140D01*
X205120Y123806D01*
Y118808D01*
X207619Y122140D02*
X209285D01*
X210118Y121307D01*
Y118808D01*
X207619D01*
X206786Y119641D01*
X207619Y120474D01*
X210118D01*
X211784Y122140D02*
Y119641D01*
X212617Y118808D01*
X215116D01*
Y117975D01*
X214283Y117142D01*
X213450D01*
X215116Y118808D02*
Y122140D01*
X225113Y118808D02*
X221781D01*
X225113Y122140D01*
Y122973D01*
X224280Y123806D01*
X222614D01*
X221781Y122973D01*
X226779D02*
X227612Y123806D01*
X229278D01*
X230112Y122973D01*
Y119641D01*
X229278Y118808D01*
X227612D01*
X226779Y119641D01*
Y122973D01*
X235110Y118808D02*
X231778D01*
X235110Y122140D01*
Y122973D01*
X234277Y123806D01*
X232611D01*
X231778Y122973D01*
X236776Y118808D02*
X238442D01*
X237609D01*
Y123806D01*
X236776Y122973D01*
X404324Y109449D02*
Y105783D01*
X406157Y107616D02*
X402491D01*
X415741Y95276D02*
Y91610D01*
X417574Y93443D02*
X413908D01*
X415741Y89777D02*
Y86112D01*
D49*
X451931Y103408D02*
X452430Y103908D01*
Y104907D01*
X451931Y105407D01*
X449931D01*
X449432Y104907D01*
Y103908D01*
X449931Y103408D01*
X449432Y100909D02*
X452430D01*
X450931Y102408D01*
Y100409D01*
X452430Y97410D02*
X451931Y98409D01*
X450931Y99409D01*
X449931D01*
X449432Y98909D01*
Y97909D01*
X449931Y97410D01*
X450431D01*
X450931Y97909D01*
Y99409D01*
X444225Y103132D02*
X447224D01*
Y101633D01*
X446724Y101133D01*
X445725D01*
X445225Y101633D01*
Y103132D01*
Y102133D02*
X444225Y101133D01*
Y100133D02*
Y99134D01*
Y99633D01*
X447224D01*
X446724Y100133D01*
X444225Y97634D02*
Y96634D01*
Y97134D01*
X447224D01*
X446724Y97634D01*
X333800Y164100D02*
Y167099D01*
X335299D01*
X335799Y166599D01*
Y165600D01*
X335299Y165100D01*
X333800D01*
X334800D02*
X335799Y164100D01*
X336799Y164600D02*
X337299Y164100D01*
X338299D01*
X338798Y164600D01*
Y166599D01*
X338299Y167099D01*
X337299D01*
X336799Y166599D01*
Y166099D01*
X337299Y165600D01*
X338798D01*
X370100Y248099D02*
Y245100D01*
X371600D01*
X372099Y245600D01*
Y247599D01*
X371600Y248099D01*
X370100D01*
X375098D02*
X373099D01*
Y246600D01*
X374099Y247099D01*
X374599D01*
X375098Y246600D01*
Y245600D01*
X374599Y245100D01*
X373599D01*
X373099Y245600D01*
X363200Y248099D02*
Y245100D01*
X364700D01*
X365199Y245600D01*
Y247599D01*
X364700Y248099D01*
X363200D01*
X368198D02*
X367199Y247599D01*
X366199Y246600D01*
Y245600D01*
X366699Y245100D01*
X367699D01*
X368198Y245600D01*
Y246100D01*
X367699Y246600D01*
X366199D01*
X397400Y248099D02*
Y245100D01*
X398900D01*
X399399Y245600D01*
Y247599D01*
X398900Y248099D01*
X397400D01*
X400399Y247599D02*
X400899Y248099D01*
X401898D01*
X402398Y247599D01*
Y247099D01*
X401898Y246600D01*
X402398Y246100D01*
Y245600D01*
X401898Y245100D01*
X400899D01*
X400399Y245600D01*
Y246100D01*
X400899Y246600D01*
X400399Y247099D01*
Y247599D01*
X400899Y246600D02*
X401898D01*
X377000Y248099D02*
Y245100D01*
X378500D01*
X378999Y245600D01*
Y247599D01*
X378500Y248099D01*
X377000D01*
X379999Y245100D02*
X380999D01*
X380499D01*
Y248099D01*
X379999Y247599D01*
X382498D02*
X382998Y248099D01*
X383998D01*
X384498Y247599D01*
Y245600D01*
X383998Y245100D01*
X382998D01*
X382498Y245600D01*
Y247599D01*
X381599Y214499D02*
X381100Y214999D01*
X380100D01*
X379600Y214499D01*
Y212500D01*
X380100Y212000D01*
X381100D01*
X381599Y212500D01*
X382599Y212000D02*
X383599D01*
X383099D01*
Y214999D01*
X382599Y214499D01*
X375374D02*
X374874Y214999D01*
X373875D01*
X373375Y214499D01*
Y212500D01*
X373875Y212000D01*
X374874D01*
X375374Y212500D01*
X378373Y212000D02*
X376374D01*
X378373Y213999D01*
Y214499D01*
X377873Y214999D01*
X376874D01*
X376374Y214499D01*
X362924D02*
X362424Y214999D01*
X361425D01*
X360925Y214499D01*
Y212500D01*
X361425Y212000D01*
X362424D01*
X362924Y212500D01*
X365423Y212000D02*
Y214999D01*
X363924Y213499D01*
X365923D01*
X356699Y214499D02*
X356200Y214999D01*
X355200D01*
X354700Y214499D01*
Y212500D01*
X355200Y212000D01*
X356200D01*
X356699Y212500D01*
X359698Y214999D02*
X357699D01*
Y213499D01*
X358699Y213999D01*
X359198D01*
X359698Y213499D01*
Y212500D01*
X359198Y212000D01*
X358199D01*
X357699Y212500D01*
X404799Y214499D02*
X404299Y214999D01*
X403300D01*
X402800Y214499D01*
Y212500D01*
X403300Y212000D01*
X404299D01*
X404799Y212500D01*
X407798Y214999D02*
X406799Y214499D01*
X405799Y213499D01*
Y212500D01*
X406299Y212000D01*
X407299D01*
X407798Y212500D01*
Y213000D01*
X407299Y213499D01*
X405799D01*
X398399Y214499D02*
X397900Y214999D01*
X396900D01*
X396400Y214499D01*
Y212500D01*
X396900Y212000D01*
X397900D01*
X398399Y212500D01*
X399399Y214999D02*
X401398D01*
Y214499D01*
X399399Y212500D01*
Y212000D01*
X389099Y214499D02*
X388599Y214999D01*
X387600D01*
X387100Y214499D01*
Y212500D01*
X387600Y212000D01*
X388599D01*
X389099Y212500D01*
X390099D02*
X390599Y212000D01*
X391599D01*
X392098Y212500D01*
Y214499D01*
X391599Y214999D01*
X390599D01*
X390099Y214499D01*
Y213999D01*
X390599Y213499D01*
X392098D01*
X383699Y210399D02*
X383200Y210899D01*
X382200D01*
X381700Y210399D01*
Y208400D01*
X382200Y207900D01*
X383200D01*
X383699Y208400D01*
X384699Y207900D02*
X385699D01*
X385199D01*
Y210899D01*
X384699Y210399D01*
X387198D02*
X387698Y210899D01*
X388698D01*
X389198Y210399D01*
Y208400D01*
X388698Y207900D01*
X387698D01*
X387198Y208400D01*
Y210399D01*
X369149Y214499D02*
X368650Y214999D01*
X367650D01*
X367150Y214499D01*
Y212500D01*
X367650Y212000D01*
X368650D01*
X369149Y212500D01*
X370149Y214499D02*
X370649Y214999D01*
X371649D01*
X372148Y214499D01*
Y213999D01*
X371649Y213499D01*
X371149D01*
X371649D01*
X372148Y213000D01*
Y212500D01*
X371649Y212000D01*
X370649D01*
X370149Y212500D01*
X393599Y210299D02*
X393099Y210799D01*
X392100D01*
X391600Y210299D01*
Y208300D01*
X392100Y207800D01*
X393099D01*
X393599Y208300D01*
X394599Y210299D02*
X395099Y210799D01*
X396098D01*
X396598Y210299D01*
Y209799D01*
X396098Y209299D01*
X396598Y208800D01*
Y208300D01*
X396098Y207800D01*
X395099D01*
X394599Y208300D01*
Y208800D01*
X395099Y209299D01*
X394599Y209799D01*
Y210299D01*
X395099Y209299D02*
X396098D01*
X410267Y108798D02*
X409767Y109298D01*
X408768D01*
X408268Y108798D01*
Y106799D01*
X408768Y106299D01*
X409767D01*
X410267Y106799D01*
X413266Y109298D02*
X411267D01*
Y107799D01*
X412266Y108299D01*
X412766D01*
X413266Y107799D01*
Y106799D01*
X412766Y106299D01*
X411767D01*
X411267Y106799D01*
X414266Y109298D02*
X416265D01*
Y108798D01*
X414266Y106799D01*
Y106299D01*
X365748Y146306D02*
Y143807D01*
X366248Y143307D01*
X367248D01*
X367747Y143807D01*
Y146306D01*
X368747Y143807D02*
X369247Y143307D01*
X370247D01*
X370746Y143807D01*
Y145806D01*
X370247Y146306D01*
X369247D01*
X368747Y145806D01*
Y145306D01*
X369247Y144807D01*
X370746D01*
X357118Y121003D02*
X356618Y121503D01*
X355618D01*
X355118Y121003D01*
Y119004D01*
X355618Y118504D01*
X356618D01*
X357118Y119004D01*
X360117Y121503D02*
X358117D01*
Y120003D01*
X359117Y120503D01*
X359617D01*
X360117Y120003D01*
Y119004D01*
X359617Y118504D01*
X358617D01*
X358117Y119004D01*
X363116Y121503D02*
X362116Y121003D01*
X361116Y120003D01*
Y119004D01*
X361616Y118504D01*
X362616D01*
X363116Y119004D01*
Y119504D01*
X362616Y120003D01*
X361116D01*
X371804Y97244D02*
X374303D01*
X374803Y97744D01*
Y98744D01*
X374303Y99243D01*
X371804D01*
X374803Y100243D02*
Y101243D01*
Y100743D01*
X371804D01*
X372304Y100243D01*
X374303Y102742D02*
X374803Y103242D01*
Y104242D01*
X374303Y104742D01*
X372304D01*
X371804Y104242D01*
Y103242D01*
X372304Y102742D01*
X372804D01*
X373304Y103242D01*
Y104742D01*
X318962Y256936D02*
X318462Y257436D01*
X317463D01*
X316963Y256936D01*
Y254937D01*
X317463Y254437D01*
X318462D01*
X318962Y254937D01*
X321961Y257436D02*
X319962D01*
Y255937D01*
X320962Y256436D01*
X321462D01*
X321961Y255937D01*
Y254937D01*
X321462Y254437D01*
X320462D01*
X319962Y254937D01*
X324960Y257436D02*
X322961D01*
Y255937D01*
X323961Y256436D01*
X324461D01*
X324960Y255937D01*
Y254937D01*
X324461Y254437D01*
X323461D01*
X322961Y254937D01*
X274410Y99849D02*
Y96850D01*
X276409D01*
X277409Y99350D02*
X277908Y99849D01*
X278908D01*
X279408Y99350D01*
Y98850D01*
X278908Y98350D01*
X278408D01*
X278908D01*
X279408Y97850D01*
Y97350D01*
X278908Y96850D01*
X277908D01*
X277409Y97350D01*
X352101Y230000D02*
X354600D01*
X355100Y230500D01*
Y231500D01*
X354600Y231999D01*
X352101D01*
Y232999D02*
Y234998D01*
X352601D01*
X354600Y232999D01*
X355100D01*
X353117Y216705D02*
X355616D01*
X356116Y217205D01*
Y218204D01*
X355616Y218704D01*
X353117D01*
X356116Y219704D02*
Y220703D01*
Y220204D01*
X353117D01*
X353617Y219704D01*
Y222203D02*
X353117Y222703D01*
Y223703D01*
X353617Y224202D01*
X355616D01*
X356116Y223703D01*
Y222703D01*
X355616Y222203D01*
X353617D01*
X347601Y196899D02*
X347101Y196399D01*
Y195400D01*
X347601Y194900D01*
X349600D01*
X350100Y195400D01*
Y196399D01*
X349600Y196899D01*
X350100Y199399D02*
X347101D01*
X348601Y197899D01*
Y199898D01*
X347101Y200898D02*
Y202897D01*
X347601D01*
X349600Y200898D01*
X350100D01*
X326700Y224800D02*
X323701D01*
Y226300D01*
X324201Y226799D01*
X325201D01*
X325700Y226300D01*
Y224800D01*
Y225800D02*
X326700Y226799D01*
Y227799D02*
Y228799D01*
Y228299D01*
X323701D01*
X324201Y227799D01*
Y230298D02*
X323701Y230798D01*
Y231798D01*
X324201Y232298D01*
X324701D01*
X325201Y231798D01*
X325700Y232298D01*
X326200D01*
X326700Y231798D01*
Y230798D01*
X326200Y230298D01*
X325700D01*
X325201Y230798D01*
X324701Y230298D01*
X324201D01*
X325201Y230798D02*
Y231798D01*
X388099Y255199D02*
X387599Y255699D01*
X386600D01*
X386100Y255199D01*
Y253200D01*
X386600Y252700D01*
X387599D01*
X388099Y253200D01*
X391098Y255699D02*
X389099D01*
Y254200D01*
X390099Y254699D01*
X390599D01*
X391098Y254200D01*
Y253200D01*
X390599Y252700D01*
X389599D01*
X389099Y253200D01*
X393598Y252700D02*
Y255699D01*
X392098Y254200D01*
X394097D01*
X346901Y184500D02*
X349400D01*
X349900Y185000D01*
Y186000D01*
X349400Y186499D01*
X346901D01*
X349900Y187499D02*
Y188499D01*
Y187999D01*
X346901D01*
X347401Y187499D01*
X346901Y191998D02*
X347401Y190998D01*
X348400Y189998D01*
X349400D01*
X349900Y190498D01*
Y191498D01*
X349400Y191998D01*
X348900D01*
X348400Y191498D01*
Y189998D01*
X416339Y200834D02*
Y197835D01*
X417838D01*
X418338Y198335D01*
Y198834D01*
X417838Y199334D01*
X416339D01*
X417838D01*
X418338Y199834D01*
Y200334D01*
X417838Y200834D01*
X416339D01*
X419338D02*
Y198335D01*
X419837Y197835D01*
X420837D01*
X421337Y198335D01*
Y200834D01*
X422337D02*
X424336D01*
X423336D01*
Y197835D01*
X425336D02*
X426335D01*
X425836D01*
Y200834D01*
X425336Y200334D01*
X279528Y251030D02*
Y248531D01*
X280027Y248031D01*
X281027D01*
X281527Y248531D01*
Y251030D01*
X284526Y250531D02*
X284026Y251030D01*
X283026D01*
X282527Y250531D01*
Y250031D01*
X283026Y249531D01*
X284026D01*
X284526Y249031D01*
Y248531D01*
X284026Y248031D01*
X283026D01*
X282527Y248531D01*
X285526Y251030D02*
Y248031D01*
X287025D01*
X287525Y248531D01*
Y249031D01*
X287025Y249531D01*
X285526D01*
X287025D01*
X287525Y250031D01*
Y250531D01*
X287025Y251030D01*
X285526D01*
X288525Y247532D02*
X290524D01*
X291524Y248031D02*
Y251030D01*
X293023D01*
X293523Y250531D01*
Y249531D01*
X293023Y249031D01*
X291524D01*
X294523Y248031D02*
Y251030D01*
X296022D01*
X296522Y250531D01*
Y249531D01*
X296022Y249031D01*
X294523D01*
X295522D02*
X296522Y248031D01*
X299021Y251030D02*
X298022D01*
X297522Y250531D01*
Y248531D01*
X298022Y248031D01*
X299021D01*
X299521Y248531D01*
Y250531D01*
X299021Y251030D01*
X302520Y250531D02*
X302020Y251030D01*
X301021D01*
X300521Y250531D01*
Y248531D01*
X301021Y248031D01*
X302020D01*
X302520Y248531D01*
Y249531D01*
X301520D01*
X346881Y144594D02*
Y146594D01*
X346381Y147093D01*
X345382D01*
X344882Y146594D01*
Y144594D01*
X345382Y144095D01*
X346381D01*
X345882Y145094D02*
X346881Y144095D01*
X346381D02*
X346881Y144594D01*
X349880Y144095D02*
X347881D01*
X349880Y146094D01*
Y146594D01*
X349380Y147093D01*
X348381D01*
X347881Y146594D01*
X285433Y97244D02*
Y100243D01*
X286933D01*
X287432Y99743D01*
Y98744D01*
X286933Y98244D01*
X285433D01*
X286433D02*
X287432Y97244D01*
X288432Y99743D02*
X288932Y100243D01*
X289932D01*
X290431Y99743D01*
Y99243D01*
X289932Y98744D01*
X289432D01*
X289932D01*
X290431Y98244D01*
Y97744D01*
X289932Y97244D01*
X288932D01*
X288432Y97744D01*
X271301Y235499D02*
X270801Y234999D01*
Y234000D01*
X271301Y233500D01*
X273300D01*
X273800Y234000D01*
Y234999D01*
X273300Y235499D01*
X271301Y236499D02*
X270801Y236999D01*
Y237999D01*
X271301Y238498D01*
X271801D01*
X272301Y237999D01*
Y237499D01*
Y237999D01*
X272800Y238498D01*
X273300D01*
X273800Y237999D01*
Y236999D01*
X273300Y236499D01*
X271301Y239498D02*
X270801Y239998D01*
Y240998D01*
X271301Y241497D01*
X273300D01*
X273800Y240998D01*
Y239998D01*
X273300Y239498D01*
X271301D01*
X266001Y235199D02*
X265501Y234700D01*
Y233700D01*
X266001Y233200D01*
X268000D01*
X268500Y233700D01*
Y234700D01*
X268000Y235199D01*
X266001Y236199D02*
X265501Y236699D01*
Y237699D01*
X266001Y238198D01*
X266501D01*
X267001Y237699D01*
Y237199D01*
Y237699D01*
X267500Y238198D01*
X268000D01*
X268500Y237699D01*
Y236699D01*
X268000Y236199D01*
X268500Y239198D02*
Y240198D01*
Y239698D01*
X265501D01*
X266001Y239198D01*
X370503Y183208D02*
X370004Y183708D01*
X369004D01*
X368504Y183208D01*
Y181209D01*
X369004Y180709D01*
X370004D01*
X370503Y181209D01*
X373003Y180709D02*
Y183708D01*
X371503Y182208D01*
X373502D01*
X374502Y183208D02*
X375002Y183708D01*
X376002D01*
X376501Y183208D01*
Y182708D01*
X376002Y182208D01*
X376501Y181708D01*
Y181209D01*
X376002Y180709D01*
X375002D01*
X374502Y181209D01*
Y181708D01*
X375002Y182208D01*
X374502Y182708D01*
Y183208D01*
X375002Y182208D02*
X376002D01*
X353968Y152893D02*
X353468Y153393D01*
X352468D01*
X351969Y152893D01*
Y150893D01*
X352468Y150394D01*
X353468D01*
X353968Y150893D01*
X356967Y153393D02*
X354967D01*
Y151893D01*
X355967Y152393D01*
X356467D01*
X356967Y151893D01*
Y150893D01*
X356467Y150394D01*
X355467D01*
X354967Y150893D01*
X357967Y152893D02*
X358466Y153393D01*
X359466D01*
X359966Y152893D01*
Y152393D01*
X359466Y151893D01*
X359966Y151393D01*
Y150893D01*
X359466Y150394D01*
X358466D01*
X357967Y150893D01*
Y151393D01*
X358466Y151893D01*
X357967Y152393D01*
Y152893D01*
X358466Y151893D02*
X359466D01*
X322078Y128483D02*
X321578Y128983D01*
X320579D01*
X320079Y128483D01*
Y126484D01*
X320579Y125984D01*
X321578D01*
X322078Y126484D01*
X325077Y125984D02*
X323078D01*
X325077Y127984D01*
Y128483D01*
X324577Y128983D01*
X323578D01*
X323078Y128483D01*
X326077Y125984D02*
X327077D01*
X326577D01*
Y128983D01*
X326077Y128483D01*
X258692Y134783D02*
X258192Y135283D01*
X257193D01*
X256693Y134783D01*
Y132783D01*
X257193Y132283D01*
X258192D01*
X258692Y132783D01*
X261691Y132283D02*
X259692D01*
X261691Y134283D01*
Y134783D01*
X261192Y135283D01*
X260192D01*
X259692Y134783D01*
X264690Y132283D02*
X262691D01*
X264690Y134283D01*
Y134783D01*
X264191Y135283D01*
X263191D01*
X262691Y134783D01*
X317354Y140688D02*
X316854Y141188D01*
X315854D01*
X315354Y140688D01*
Y138689D01*
X315854Y138189D01*
X316854D01*
X317354Y138689D01*
X320353Y138189D02*
X318353D01*
X320353Y140188D01*
Y140688D01*
X319853Y141188D01*
X318853D01*
X318353Y140688D01*
X321352D02*
X321852Y141188D01*
X322852D01*
X323352Y140688D01*
Y140188D01*
X322852Y139689D01*
X322352D01*
X322852D01*
X323352Y139189D01*
Y138689D01*
X322852Y138189D01*
X321852D01*
X321352Y138689D01*
X288936Y153388D02*
X288437Y153888D01*
X287437D01*
X286937Y153388D01*
Y151389D01*
X287437Y150889D01*
X288437D01*
X288936Y151389D01*
X291935Y150889D02*
X289936D01*
X291935Y152888D01*
Y153388D01*
X291436Y153888D01*
X290436D01*
X289936Y153388D01*
X294435Y150889D02*
Y153888D01*
X292935Y152389D01*
X294934D01*
X288614Y148562D02*
X288114Y149062D01*
X287114D01*
X286614Y148562D01*
Y146563D01*
X287114Y146063D01*
X288114D01*
X288614Y146563D01*
X291613Y146063D02*
X289613D01*
X291613Y148062D01*
Y148562D01*
X291113Y149062D01*
X290113D01*
X289613Y148562D01*
X294612Y149062D02*
X292612D01*
Y147563D01*
X293612Y148062D01*
X294112D01*
X294612Y147563D01*
Y146563D01*
X294112Y146063D01*
X293112D01*
X292612Y146563D01*
X322472Y119428D02*
X321972Y119928D01*
X320972D01*
X320472Y119428D01*
Y117429D01*
X320972Y116929D01*
X321972D01*
X322472Y117429D01*
X325471Y116929D02*
X323471D01*
X325471Y118929D01*
Y119428D01*
X324971Y119928D01*
X323971D01*
X323471Y119428D01*
X328470Y119928D02*
X327470Y119428D01*
X326470Y118429D01*
Y117429D01*
X326970Y116929D01*
X327970D01*
X328470Y117429D01*
Y117929D01*
X327970Y118429D01*
X326470D01*
X302393Y169428D02*
X301893Y169928D01*
X300893D01*
X300394Y169428D01*
Y167429D01*
X300893Y166929D01*
X301893D01*
X302393Y167429D01*
X305392Y166929D02*
X303393D01*
X305392Y168929D01*
Y169428D01*
X304892Y169928D01*
X303893D01*
X303393Y169428D01*
X306392Y169928D02*
X308391D01*
Y169428D01*
X306392Y167429D01*
Y166929D01*
X308524Y81921D02*
X308025Y81421D01*
Y80421D01*
X308524Y79921D01*
X310524D01*
X311024Y80421D01*
Y81421D01*
X310524Y81921D01*
X311024Y84920D02*
Y82920D01*
X309024Y84920D01*
X308524D01*
X308025Y84420D01*
Y83420D01*
X308524Y82920D01*
Y85919D02*
X308025Y86419D01*
Y87419D01*
X308524Y87919D01*
X310524D01*
X311024Y87419D01*
Y86419D01*
X310524Y85919D01*
X308524D01*
X286251Y86357D02*
X285752Y86857D01*
X284752D01*
X284252Y86357D01*
Y84358D01*
X284752Y83858D01*
X285752D01*
X286251Y84358D01*
X289250Y83858D02*
X287251D01*
X289250Y85858D01*
Y86357D01*
X288751Y86857D01*
X287751D01*
X287251Y86357D01*
X290250Y84358D02*
X290750Y83858D01*
X291750D01*
X292249Y84358D01*
Y86357D01*
X291750Y86857D01*
X290750D01*
X290250Y86357D01*
Y85858D01*
X290750Y85358D01*
X292249D01*
X213810Y84389D02*
X213311Y84889D01*
X212311D01*
X211811Y84389D01*
Y82390D01*
X212311Y81890D01*
X213311D01*
X213810Y82390D01*
X214810Y84389D02*
X215310Y84889D01*
X216310D01*
X216809Y84389D01*
Y83889D01*
X216310Y83389D01*
X215810D01*
X216310D01*
X216809Y82889D01*
Y82390D01*
X216310Y81890D01*
X215310D01*
X214810Y82390D01*
X217809Y84389D02*
X218309Y84889D01*
X219309D01*
X219808Y84389D01*
Y83889D01*
X219309Y83389D01*
X218809D01*
X219309D01*
X219808Y82889D01*
Y82390D01*
X219309Y81890D01*
X218309D01*
X217809Y82390D01*
X214598Y109192D02*
X214098Y109692D01*
X213098D01*
X212598Y109192D01*
Y107193D01*
X213098Y106693D01*
X214098D01*
X214598Y107193D01*
X215598Y109192D02*
X216097Y109692D01*
X217097D01*
X217597Y109192D01*
Y108692D01*
X217097Y108192D01*
X216597D01*
X217097D01*
X217597Y107693D01*
Y107193D01*
X217097Y106693D01*
X216097D01*
X215598Y107193D01*
X220096Y106693D02*
Y109692D01*
X218597Y108192D01*
X220596D01*
X224174Y217058D02*
X223674Y216559D01*
Y215559D01*
X224174Y215059D01*
X226173D01*
X226673Y215559D01*
Y216559D01*
X226173Y217058D01*
X224174Y218058D02*
X223674Y218558D01*
Y219558D01*
X224174Y220057D01*
X224674D01*
X225174Y219558D01*
Y219058D01*
Y219558D01*
X225674Y220057D01*
X226173D01*
X226673Y219558D01*
Y218558D01*
X226173Y218058D01*
X223674Y223057D02*
Y221057D01*
X225174D01*
X224674Y222057D01*
Y222557D01*
X225174Y223057D01*
X226173D01*
X226673Y222557D01*
Y221557D01*
X226173Y221057D01*
X217580Y217354D02*
X217080Y216854D01*
Y215854D01*
X217580Y215354D01*
X219579D01*
X220079Y215854D01*
Y216854D01*
X219579Y217354D01*
X217580Y218353D02*
X217080Y218853D01*
Y219853D01*
X217580Y220353D01*
X218079D01*
X218579Y219853D01*
Y219353D01*
Y219853D01*
X219079Y220353D01*
X219579D01*
X220079Y219853D01*
Y218853D01*
X219579Y218353D01*
X217080Y223352D02*
X217580Y222352D01*
X218579Y221352D01*
X219579D01*
X220079Y221852D01*
Y222852D01*
X219579Y223352D01*
X219079D01*
X218579Y222852D01*
Y221352D01*
X259499Y205399D02*
X258999Y205899D01*
X258000D01*
X257500Y205399D01*
Y203400D01*
X258000Y202900D01*
X258999D01*
X259499Y203400D01*
X260499Y205399D02*
X260999Y205899D01*
X261999D01*
X262498Y205399D01*
Y204899D01*
X261999Y204399D01*
X261499D01*
X261999D01*
X262498Y203900D01*
Y203400D01*
X261999Y202900D01*
X260999D01*
X260499Y203400D01*
X263498Y205899D02*
X265497D01*
Y205399D01*
X263498Y203400D01*
Y202900D01*
X417973Y146094D02*
X417473Y145594D01*
Y144594D01*
X417973Y144095D01*
X419973D01*
X420472Y144594D01*
Y145594D01*
X419973Y146094D01*
X420472Y148593D02*
X417473D01*
X418973Y147093D01*
Y149093D01*
X420472Y152092D02*
Y150093D01*
X418473Y152092D01*
X417973D01*
X417473Y151592D01*
Y150592D01*
X417973Y150093D01*
X423091Y145700D02*
X422591Y145200D01*
Y144201D01*
X423091Y143701D01*
X425091D01*
X425591Y144201D01*
Y145200D01*
X425091Y145700D01*
X425591Y148199D02*
X422591D01*
X424091Y146700D01*
Y148699D01*
X423091Y149699D02*
X422591Y150199D01*
Y151198D01*
X423091Y151698D01*
X423591D01*
X424091Y151198D01*
Y150698D01*
Y151198D01*
X424591Y151698D01*
X425091D01*
X425591Y151198D01*
Y150199D01*
X425091Y149699D01*
X374016Y210086D02*
Y207087D01*
X375515D01*
X376015Y207587D01*
Y209586D01*
X375515Y210086D01*
X374016D01*
X377015Y207087D02*
X378014D01*
X377515D01*
Y210086D01*
X377015Y209586D01*
X355709Y210086D02*
Y207087D01*
X357208D01*
X357708Y207587D01*
Y209586D01*
X357208Y210086D01*
X355709D01*
X360707Y207087D02*
X358708D01*
X360707Y209086D01*
Y209586D01*
X360207Y210086D01*
X359208D01*
X358708Y209586D01*
X365256Y210086D02*
Y207087D01*
X366755D01*
X367255Y207587D01*
Y209586D01*
X366755Y210086D01*
X365256D01*
X368255Y209586D02*
X368755Y210086D01*
X369754D01*
X370254Y209586D01*
Y209086D01*
X369754Y208586D01*
X369255D01*
X369754D01*
X370254Y208086D01*
Y207587D01*
X369754Y207087D01*
X368755D01*
X368255Y207587D01*
X383465Y159298D02*
Y156299D01*
X385464D01*
X386464D02*
X387463D01*
X386963D01*
Y159298D01*
X386464Y158798D01*
X384677Y169397D02*
Y171397D01*
X384177Y171897D01*
X383177D01*
X382677Y171397D01*
Y169397D01*
X383177Y168898D01*
X384177D01*
X383677Y169897D02*
X384677Y168898D01*
X384177D02*
X384677Y169397D01*
X385676Y168898D02*
X386676D01*
X386176D01*
Y171897D01*
X385676Y171397D01*
X292126Y237500D02*
Y240499D01*
X293625D01*
X294125Y239999D01*
Y239000D01*
X293625Y238500D01*
X292126D01*
X293126D02*
X294125Y237500D01*
X295125D02*
X296125D01*
X295625D01*
Y240499D01*
X295125Y239999D01*
X351575Y176772D02*
Y179771D01*
X353074D01*
X353574Y179271D01*
Y178271D01*
X353074Y177771D01*
X351575D01*
X352574D02*
X353574Y176772D01*
X356573Y179771D02*
X355574Y179271D01*
X354574Y178271D01*
Y177271D01*
X355074Y176772D01*
X356073D01*
X356573Y177271D01*
Y177771D01*
X356073Y178271D01*
X354574D01*
X344882Y151181D02*
Y154180D01*
X346381D01*
X346881Y153680D01*
Y152681D01*
X346381Y152181D01*
X344882D01*
X345882D02*
X346881Y151181D01*
X347881Y154180D02*
X349880D01*
Y153680D01*
X347881Y151681D01*
Y151181D01*
X320472Y121653D02*
Y124653D01*
X321972D01*
X322472Y124153D01*
Y123153D01*
X321972Y122653D01*
X320472D01*
X321472D02*
X322472Y121653D01*
X323471D02*
X324471D01*
X323971D01*
Y124653D01*
X323471Y124153D01*
X325971D02*
X326470Y124653D01*
X327470D01*
X327970Y124153D01*
Y122153D01*
X327470Y121653D01*
X326470D01*
X325971Y122153D01*
Y124153D01*
X429921Y124803D02*
Y127802D01*
X431421D01*
X431921Y127302D01*
Y126303D01*
X431421Y125803D01*
X429921D01*
X430921D02*
X431921Y124803D01*
X432920D02*
X433920D01*
X433420D01*
Y127802D01*
X432920Y127302D01*
X437419Y124803D02*
X435420D01*
X437419Y126803D01*
Y127302D01*
X436919Y127802D01*
X435919D01*
X435420Y127302D01*
X409449Y114961D02*
X406450D01*
Y116460D01*
X406950Y116960D01*
X407949D01*
X408449Y116460D01*
Y114961D01*
Y115960D02*
X409449Y116960D01*
Y117960D02*
Y118959D01*
Y118459D01*
X406450D01*
X406950Y117960D01*
X409449Y121958D02*
X406450D01*
X407949Y120459D01*
Y122458D01*
X286614Y233314D02*
Y230815D01*
X287114Y230315D01*
X288114D01*
X288614Y230815D01*
Y233314D01*
X289613Y230315D02*
X290613D01*
X290113D01*
Y233314D01*
X289613Y232814D01*
X279527Y145227D02*
Y142727D01*
X280027Y142228D01*
X281027D01*
X281527Y142727D01*
Y145227D01*
X284526Y142228D02*
X282527D01*
X284526Y144227D01*
Y144727D01*
X284026Y145227D01*
X283026D01*
X282527Y144727D01*
X347401Y205800D02*
X349900D01*
X350400Y206300D01*
Y207299D01*
X349900Y207799D01*
X347401D01*
X350400Y210298D02*
X347401D01*
X348901Y208799D01*
Y210798D01*
X204100Y149200D02*
Y152199D01*
X205100Y151199D01*
X206099Y152199D01*
Y149200D01*
X207099Y148700D02*
X209098D01*
X212097Y151699D02*
X211598Y152199D01*
X210598D01*
X210098Y151699D01*
Y149700D01*
X210598Y149200D01*
X211598D01*
X212097Y149700D01*
Y150699D01*
X211098D01*
X213097Y149200D02*
Y152199D01*
X214597D01*
X215096Y151699D01*
Y150699D01*
X214597Y150200D01*
X213097D01*
X218095Y151699D02*
X217596Y152199D01*
X216596D01*
X216096Y151699D01*
Y151199D01*
X216596Y150699D01*
X217596D01*
X218095Y150200D01*
Y149700D01*
X217596Y149200D01*
X216596D01*
X216096Y149700D01*
X237946Y91732D02*
X240445D01*
X240945Y92232D01*
Y93232D01*
X240445Y93732D01*
X237946D01*
X238446Y94731D02*
X237946Y95231D01*
Y96231D01*
X238446Y96731D01*
X238946D01*
X239445Y96231D01*
X239945Y96731D01*
X240445D01*
X240945Y96231D01*
Y95231D01*
X240445Y94731D01*
X239945D01*
X239445Y95231D01*
X238946Y94731D01*
X238446D01*
X239445Y95231D02*
Y96231D01*
X425984Y104967D02*
Y102468D01*
X426484Y101969D01*
X427484D01*
X427984Y102468D01*
Y104967D01*
X428983Y101969D02*
X429983D01*
X429483D01*
Y104967D01*
X428983Y104468D01*
X431483D02*
X431982Y104967D01*
X432982D01*
X433482Y104468D01*
Y103968D01*
X432982Y103468D01*
X432482D01*
X432982D01*
X433482Y102968D01*
Y102468D01*
X432982Y101969D01*
X431982D01*
X431483Y102468D01*
X447638Y130164D02*
Y127665D01*
X448138Y127165D01*
X449137D01*
X449637Y127665D01*
Y130164D01*
X450637Y127165D02*
X451637D01*
X451137D01*
Y130164D01*
X450637Y129665D01*
X455135Y127165D02*
X453136D01*
X455135Y129165D01*
Y129665D01*
X454635Y130164D01*
X453636D01*
X453136Y129665D01*
X285039Y93944D02*
X287039Y90945D01*
Y93944D02*
X285039Y90945D01*
X290038D02*
X288038D01*
X290038Y92944D01*
Y93444D01*
X289538Y93944D01*
X288538D01*
X288038Y93444D01*
X374410Y116929D02*
Y119928D01*
X375909D01*
X376409Y119428D01*
Y118429D01*
X375909Y117929D01*
X374410D01*
X375409D02*
X376409Y116929D01*
X377409Y119428D02*
X377908Y119928D01*
X378908D01*
X379408Y119428D01*
Y118929D01*
X378908Y118429D01*
X379408Y117929D01*
Y117429D01*
X378908Y116929D01*
X377908D01*
X377409Y117429D01*
Y117929D01*
X377908Y118429D01*
X377409Y118929D01*
Y119428D01*
X377908Y118429D02*
X378908D01*
X383495Y143413D02*
Y145413D01*
X382996Y145912D01*
X381996D01*
X381496Y145413D01*
Y143413D01*
X381996Y142913D01*
X382996D01*
X382496Y143913D02*
X383495Y142913D01*
X382996D02*
X383495Y143413D01*
X385995Y142913D02*
Y145912D01*
X384495Y144413D01*
X386494D01*
X393957Y116566D02*
X393458Y116067D01*
Y115067D01*
X393957Y114567D01*
X395957D01*
X396457Y115067D01*
Y116067D01*
X395957Y116566D01*
X393458Y119065D02*
Y118066D01*
X393957Y117566D01*
X395957D01*
X396457Y118066D01*
Y119065D01*
X395957Y119565D01*
X393957D01*
X393458Y119065D01*
X396457Y120565D02*
X393458D01*
X396457Y122564D01*
X393458D01*
X396956Y123564D02*
Y125563D01*
X393458Y126563D02*
X396457D01*
X394957D01*
Y128562D01*
X393458D01*
X396457D01*
X393458Y131561D02*
Y129562D01*
X396457D01*
Y131561D01*
X394957Y129562D02*
Y130562D01*
X396457Y132561D02*
X394457D01*
X393458Y133561D01*
X394457Y134561D01*
X396457D01*
X394957D01*
Y132561D01*
X393458Y135560D02*
Y137559D01*
Y136560D01*
X396457D01*
X315200Y236499D02*
Y233500D01*
X316700D01*
X317199Y234000D01*
Y235999D01*
X316700Y236499D01*
X315200D01*
X318199Y233500D02*
X319199D01*
X318699D01*
Y236499D01*
X318199Y235999D01*
X320698Y233500D02*
X321698D01*
X321198D01*
Y236499D01*
X320698Y235999D01*
X408800Y179800D02*
Y183299D01*
X410549D01*
X411133Y182716D01*
Y181549D01*
X410549Y180966D01*
X408800D01*
X409966D02*
X411133Y179800D01*
X412299Y183299D02*
X414632Y179800D01*
Y183299D02*
X412299Y179800D01*
X407000Y166699D02*
X409333D01*
X408166D01*
Y163200D01*
X410499Y166699D02*
X412831Y163200D01*
Y166699D02*
X410499Y163200D01*
D86*
X450022Y111509D02*
Y112691D01*
X452778Y111509D02*
Y112691D01*
X443536Y110022D02*
Y112778D01*
X448064Y110022D02*
Y112778D01*
X333593Y173664D02*
X336349D01*
X333593Y169136D02*
X336349D01*
X277136Y256725D02*
Y274639D01*
Y256725D02*
X306664D01*
Y274639D01*
X277136D02*
X306664D01*
X404178Y221034D02*
Y222215D01*
X401422Y221034D02*
Y222215D01*
X399600Y221034D02*
Y222215D01*
X396844Y221034D02*
Y222215D01*
X395022Y221034D02*
Y222215D01*
X392267Y221034D02*
Y222215D01*
X390445Y221034D02*
Y222215D01*
X387689Y221034D02*
Y222215D01*
X385867Y221034D02*
Y222215D01*
X383111Y221034D02*
Y222215D01*
X379321Y221034D02*
Y222215D01*
X376565Y221034D02*
Y222215D01*
X374743Y221034D02*
Y222215D01*
X371987Y221034D02*
Y222215D01*
X370165Y221034D02*
Y222215D01*
X367409Y221034D02*
Y222215D01*
X365587Y221034D02*
Y222215D01*
X362831Y221034D02*
Y222215D01*
X361010Y221034D02*
Y222215D01*
X358254Y221034D02*
Y222215D01*
X303839Y161027D02*
X305020D01*
X303839Y163783D02*
X305020D01*
X421654Y120079D02*
X436614D01*
X421654Y109843D02*
Y120079D01*
Y109843D02*
X436614D01*
Y120079D01*
X223819Y89764D02*
X233661D01*
X223819D02*
Y101575D01*
X233661Y89764D02*
Y101575D01*
X223819D02*
X233661D01*
X411909Y116732D02*
Y119488D01*
X416437Y116732D02*
Y119488D01*
X435630Y136221D02*
Y138976D01*
X431102Y136221D02*
Y138976D01*
X313322Y110064D02*
X316078D01*
X313322Y105536D02*
X316078D01*
X353740Y161909D02*
X356496D01*
X353740Y166437D02*
X356496D01*
X353740Y174705D02*
X356496D01*
X353740Y170177D02*
X356496D01*
X303445Y237205D02*
Y239961D01*
X298917Y237205D02*
Y239961D01*
X369685Y160236D02*
X373622D01*
X369685Y153937D02*
X373622D01*
X425689Y136658D02*
Y137839D01*
X428445Y136658D02*
Y137839D01*
X419728Y136658D02*
Y137839D01*
X422484Y136658D02*
Y137839D01*
X258465Y193504D02*
Y194685D01*
X261221Y193504D02*
Y194685D01*
X219882Y207283D02*
Y208465D01*
X217126Y207283D02*
Y208465D01*
X223622Y207283D02*
Y208465D01*
X226378Y207283D02*
Y208465D01*
X216732Y103347D02*
X217913D01*
X216732Y100591D02*
X217913D01*
X216732Y87992D02*
X217913D01*
X216732Y90748D02*
X217913D01*
X299016Y83824D02*
X300197D01*
X299016Y86580D02*
X300197D01*
X308465Y93272D02*
Y94454D01*
X311221Y93272D02*
Y94454D01*
X314210Y103378D02*
X315390D01*
X314210Y100622D02*
X315390D01*
X302346Y146066D02*
X303527D01*
X302346Y148822D02*
X303527D01*
X302346Y150610D02*
X303527D01*
X302346Y153365D02*
X303527D01*
X317913Y135830D02*
X319094D01*
X317913Y133074D02*
X319094D01*
X274094Y135569D02*
X275275D01*
X274094Y132813D02*
X275275D01*
X314210Y114978D02*
X315390D01*
X314210Y112222D02*
X315390D01*
X354528Y158465D02*
X355709D01*
X354528Y155709D02*
X355709D01*
X361221Y180905D02*
X362402D01*
X361221Y183661D02*
X362402D01*
X272244Y225394D02*
Y226575D01*
X275000Y225394D02*
Y226575D01*
X276969Y225394D02*
Y226575D01*
X279724Y225394D02*
Y226575D01*
X294685Y101835D02*
X297441D01*
X294685Y106363D02*
X297441D01*
X390009Y247122D02*
X391191D01*
X390009Y249878D02*
X391191D01*
X332964Y229722D02*
Y232478D01*
X328436Y229722D02*
Y232478D01*
X338901Y198515D02*
X340082D01*
X338901Y195759D02*
X340082D01*
X279035Y106102D02*
Y108858D01*
X274508Y106102D02*
Y108858D01*
X408268Y103839D02*
X415354D01*
X408268Y97736D02*
X415354D01*
X357410Y123522D02*
X358591D01*
X357410Y126278D02*
X358591D01*
X320309Y249122D02*
X321491D01*
X320309Y251878D02*
X321491D01*
X374606Y127067D02*
X377362D01*
X374606Y122539D02*
X377362D01*
D87*
X389072Y82242D02*
Y95234D01*
X376080Y82242D02*
X389072D01*
X376080D02*
Y95234D01*
X389072D01*
D88*
X253150Y187520D02*
Y194685D01*
Y158268D02*
Y166929D01*
X252362Y158268D02*
X253150D01*
Y194685D02*
Y196063D01*
X252362D02*
X253150D01*
X198031D02*
X199213D01*
X198031Y158268D02*
Y196063D01*
Y158268D02*
X199213D01*
X216732Y162205D02*
Y192126D01*
X198031D02*
X216732D01*
X198031Y162205D02*
X216732D01*
D89*
X289427Y183206D02*
Y186205D01*
X290427Y185206D01*
X291427Y186205D01*
Y183206D01*
X292426Y186205D02*
X293426D01*
X292926D01*
Y183206D01*
X292426D01*
X293426D01*
X296925Y185706D02*
X296425Y186205D01*
X295425D01*
X294926Y185706D01*
Y185206D01*
X295425Y184706D01*
X296425D01*
X296925Y184206D01*
Y183706D01*
X296425Y183206D01*
X295425D01*
X294926Y183706D01*
X299424Y186205D02*
X298425D01*
X297925Y185706D01*
Y183706D01*
X298425Y183206D01*
X299424D01*
X299924Y183706D01*
Y185706D01*
X299424Y186205D01*
X291427Y180427D02*
X290927Y180927D01*
X289927D01*
X289427Y180427D01*
Y179927D01*
X289927Y179427D01*
X290927D01*
X291427Y178927D01*
Y178428D01*
X290927Y177928D01*
X289927D01*
X289427Y178428D01*
X294426Y180427D02*
X293926Y180927D01*
X292926D01*
X292426Y180427D01*
Y178428D01*
X292926Y177928D01*
X293926D01*
X294426Y178428D01*
X295425Y180927D02*
Y177928D01*
Y178927D01*
X297425Y180927D01*
X295925Y179427D01*
X297425Y177928D01*
X286428Y172649D02*
Y175648D01*
X287428Y174648D01*
X288428Y175648D01*
Y172649D01*
X290927Y175648D02*
X289927D01*
X289427Y175148D01*
Y173149D01*
X289927Y172649D01*
X290927D01*
X291427Y173149D01*
Y175148D01*
X290927Y175648D01*
X294426Y175148D02*
X293926Y175648D01*
X292926D01*
X292426Y175148D01*
Y174648D01*
X292926Y174148D01*
X293926D01*
X294426Y173649D01*
Y173149D01*
X293926Y172649D01*
X292926D01*
X292426Y173149D01*
X295425Y175648D02*
X296425D01*
X295925D01*
Y172649D01*
X295425D01*
X296425D01*
X405302Y133408D02*
X404802Y132908D01*
Y131909D01*
X405302Y131409D01*
X405801D01*
X406301Y131909D01*
Y132908D01*
X406801Y133408D01*
X407301D01*
X407801Y132908D01*
Y131909D01*
X407301Y131409D01*
X405302Y136407D02*
X404802Y135907D01*
Y134907D01*
X405302Y134408D01*
X407301D01*
X407801Y134907D01*
Y135907D01*
X407301Y136407D01*
X404802Y137407D02*
X407801D01*
Y139406D01*
X410580Y136407D02*
X410080Y135907D01*
Y134907D01*
X410580Y134408D01*
X411080D01*
X411580Y134907D01*
Y135907D01*
X412080Y136407D01*
X412580D01*
X413080Y135907D01*
Y134907D01*
X412580Y134408D01*
X410080Y137407D02*
X413080D01*
Y138906D01*
X412580Y139406D01*
X410580D01*
X410080Y138906D01*
Y137407D01*
X413080Y140406D02*
X411080D01*
X410080Y141405D01*
X411080Y142405D01*
X413080D01*
X411580D01*
Y140406D01*
X339197Y114558D02*
Y117557D01*
X340197Y116557D01*
X341196Y117557D01*
Y114558D01*
X342196Y117557D02*
X343196D01*
X342696D01*
Y114558D01*
X342196D01*
X343196D01*
X346695Y117057D02*
X346195Y117557D01*
X345195D01*
X344695Y117057D01*
Y116557D01*
X345195Y116057D01*
X346195D01*
X346695Y115557D01*
Y115058D01*
X346195Y114558D01*
X345195D01*
X344695Y115058D01*
X349194Y117557D02*
X348194D01*
X347694Y117057D01*
Y115058D01*
X348194Y114558D01*
X349194D01*
X349694Y115058D01*
Y117057D01*
X349194Y117557D01*
X335198Y111778D02*
X334699Y112278D01*
X333699D01*
X333199Y111778D01*
Y111278D01*
X333699Y110778D01*
X334699D01*
X335198Y110278D01*
Y109779D01*
X334699Y109279D01*
X333699D01*
X333199Y109779D01*
X338197Y111778D02*
X337698Y112278D01*
X336698D01*
X336198Y111778D01*
Y109779D01*
X336698Y109279D01*
X337698D01*
X338197Y109779D01*
X339197Y112278D02*
Y109279D01*
Y110278D01*
X341196Y112278D01*
X339697Y110778D01*
X341196Y109279D01*
X330200Y104000D02*
Y106999D01*
X331200Y105999D01*
X332199Y106999D01*
Y104000D01*
X334699Y106999D02*
X333699D01*
X333199Y106499D01*
Y104500D01*
X333699Y104000D01*
X334699D01*
X335198Y104500D01*
Y106499D01*
X334699Y106999D01*
X338197Y106499D02*
X337698Y106999D01*
X336698D01*
X336198Y106499D01*
Y105999D01*
X336698Y105499D01*
X337698D01*
X338197Y105000D01*
Y104500D01*
X337698Y104000D01*
X336698D01*
X336198Y104500D01*
X339197Y106999D02*
X340197D01*
X339697D01*
Y104000D01*
X339197D01*
X340197D01*
X347694Y106999D02*
X348694D01*
X348194D01*
Y104000D01*
X347694D01*
X348694D01*
X350194D02*
Y106999D01*
X351693D01*
X352193Y106499D01*
Y105499D01*
X351693Y105000D01*
X350194D01*
X351193D02*
X352193Y104000D01*
X355192Y104500D02*
Y106499D01*
X354692Y106999D01*
X353692D01*
X353193Y106499D01*
Y104500D01*
X353692Y104000D01*
X354692D01*
X354192Y105000D02*
X355192Y104000D01*
X354692D02*
X355192Y104500D01*
D90*
X321039Y242200D02*
D03*
D91*
X365453Y198325D02*
D03*
X356299Y193404D02*
D03*
X374606Y198325D02*
D03*
M02*
