G04 Layer_Color=32896*
%FSLAX25Y25*%
%MOIN*%
G70*
G01*
G75*
%ADD47C,0.01000*%
%ADD49C,0.00600*%
%ADD86C,0.00787*%
%ADD89C,0.00700*%
%ADD151C,0.00394*%
%ADD152R,0.04724X0.02362*%
D47*
X346550Y251575D02*
X346110Y252337D01*
X345229D01*
X344789Y251575D01*
X345229Y250812D01*
X346110D01*
X346550Y251575D01*
X317461Y251969D02*
X317270Y252925D01*
X316728Y253736D01*
X315917Y254278D01*
X314961Y254468D01*
X314004Y254278D01*
X313193Y253736D01*
X312651Y252925D01*
X312461Y251969D01*
X312651Y251012D01*
X313193Y250201D01*
X314004Y249659D01*
X314961Y249468D01*
X315917Y249659D01*
X316728Y250201D01*
X317270Y251012D01*
X317461Y251969D01*
X412711Y143504D02*
X412385Y144399D01*
X411561Y144875D01*
X410623Y144709D01*
X410011Y143980D01*
Y143028D01*
X410623Y142298D01*
X411561Y142133D01*
X412385Y142609D01*
X412711Y143504D01*
X342190Y103543D02*
X341825Y104424D01*
X340945Y104788D01*
X340065Y104424D01*
X339700Y103543D01*
X340065Y102663D01*
X340945Y102298D01*
X341825Y102663D01*
X342190Y103543D01*
X393404Y236571D02*
X392860Y237319D01*
X391980Y237033D01*
Y236108D01*
X392860Y235822D01*
X393404Y236571D01*
X391801Y244818D02*
X391257Y245567D01*
X390376Y245281D01*
Y244355D01*
X391257Y244069D01*
X391801Y244818D01*
X272208Y264509D02*
X299708D01*
X281608Y242847D02*
X289708D01*
X281608Y243847D02*
X289708D01*
X272208Y253509D02*
X299708D01*
X272208D02*
Y264509D01*
X299708Y253509D02*
Y264509D01*
X310039Y256890D02*
X319882D01*
X310039Y247047D02*
X319882D01*
X373181Y238219D02*
Y243337D01*
X368457Y238219D02*
X373181D01*
X368457D02*
Y243337D01*
X373181D01*
X375757Y237725D02*
Y242843D01*
X380481D01*
Y237725D02*
Y242843D01*
X375757Y237725D02*
X380481D01*
X391042Y238539D02*
Y242476D01*
X382381Y238539D02*
Y242476D01*
X392588Y238913D02*
Y242850D01*
X401250Y238913D02*
Y242850D01*
X207732Y118139D02*
X206066D01*
X206899D01*
Y122305D01*
X206066Y123138D01*
X205233D01*
X204400Y122305D01*
X210231Y119806D02*
X211898D01*
X212731Y120639D01*
Y123138D01*
X210231D01*
X209398Y122305D01*
X210231Y121472D01*
X212731D01*
X214397Y123138D02*
Y119806D01*
X216896D01*
X217729Y120639D01*
Y123138D01*
X224394Y118139D02*
X227726D01*
Y118972D01*
X224394Y122305D01*
Y123138D01*
X227726D01*
X230225Y119806D02*
X231891D01*
X232724Y120639D01*
Y123138D01*
X230225D01*
X229392Y122305D01*
X230225Y121472D01*
X232724D01*
X234390Y123138D02*
Y119806D01*
X235223D01*
X236056Y120639D01*
Y123138D01*
Y120639D01*
X236890Y119806D01*
X237722Y120639D01*
Y123138D01*
X239389Y118139D02*
Y123138D01*
X241888D01*
X242721Y122305D01*
Y121472D01*
Y120639D01*
X241888Y119806D01*
X239389D01*
X204400Y126537D02*
Y129870D01*
X206066Y131536D01*
X207732Y129870D01*
Y126537D01*
X210231Y128203D02*
X211898D01*
X212731Y129037D01*
Y131536D01*
X210231D01*
X209398Y130703D01*
X210231Y129870D01*
X212731D01*
X214397Y128203D02*
Y131536D01*
Y129870D01*
X215230Y129037D01*
X216063Y128203D01*
X216896D01*
X219395Y131536D02*
X221061D01*
X220228D01*
Y128203D01*
X219395D01*
X224394Y131536D02*
X226060D01*
X226893Y130703D01*
Y129037D01*
X226060Y128203D01*
X224394D01*
X223561Y129037D01*
Y130703D01*
X224394Y131536D01*
X233557D02*
X235223D01*
X234390D01*
Y126537D01*
X233557Y127371D01*
X237722Y131536D02*
Y130703D01*
X238556D01*
Y131536D01*
X237722D01*
X245220Y126537D02*
X241888D01*
Y129037D01*
X243554Y128203D01*
X244387D01*
X245220Y129037D01*
Y130703D01*
X244387Y131536D01*
X242721D01*
X241888Y130703D01*
X204400Y139934D02*
Y134935D01*
X206066Y136602D01*
X207732Y134935D01*
Y139934D01*
X210231Y136602D02*
X211898D01*
X212731Y137435D01*
Y139934D01*
X210231D01*
X209398Y139101D01*
X210231Y138268D01*
X212731D01*
X214397Y136602D02*
Y139101D01*
X215230Y139934D01*
X217729D01*
Y140767D01*
X216896Y141600D01*
X216063D01*
X217729Y139934D02*
Y136602D01*
X227726Y139934D02*
X224394D01*
X227726Y136602D01*
Y135769D01*
X226893Y134935D01*
X225227D01*
X224394Y135769D01*
X229392D02*
X230225Y134935D01*
X231891D01*
X232724Y135769D01*
Y139101D01*
X231891Y139934D01*
X230225D01*
X229392Y139101D01*
Y135769D01*
X237722Y139934D02*
X234390D01*
X237722Y136602D01*
Y135769D01*
X236890Y134935D01*
X235223D01*
X234390Y135769D01*
X239389Y139934D02*
X241055D01*
X240222D01*
Y134935D01*
X239389Y135769D01*
X416542Y94095D02*
Y90429D01*
X414710Y92262D02*
X418375D01*
X416542Y88596D02*
Y84931D01*
D49*
X406900Y163901D02*
X409233D01*
X408066D01*
Y167400D01*
X410399Y163901D02*
X412732Y167400D01*
Y163901D02*
X410399Y167400D01*
X408600Y182800D02*
Y179301D01*
X410349D01*
X410933Y179884D01*
Y181051D01*
X410349Y181634D01*
X408600D01*
X409766D02*
X410933Y182800D01*
X412099Y179301D02*
X414431Y182800D01*
Y179301D02*
X412099Y182800D01*
X314100Y203801D02*
Y206800D01*
X315599D01*
X316099Y206300D01*
Y204301D01*
X315599Y203801D01*
X314100D01*
X317099Y206300D02*
X317599Y206800D01*
X318599D01*
X319098Y206300D01*
Y204301D01*
X318599Y203801D01*
X317599D01*
X317099Y204301D01*
Y204801D01*
X317599Y205300D01*
X319098D01*
X442512Y116782D02*
Y119781D01*
X444011D01*
X444511Y119281D01*
Y118781D01*
X444011Y118282D01*
X442512D01*
X444011D01*
X444511Y117782D01*
Y117282D01*
X444011Y116782D01*
X442512D01*
X445511Y117282D02*
X446011Y116782D01*
X447010D01*
X447510Y117282D01*
Y117782D01*
X447010Y118282D01*
X446511D01*
X447010D01*
X447510Y118781D01*
Y119281D01*
X447010Y119781D01*
X446011D01*
X445511Y119281D01*
X331102Y257631D02*
Y260130D01*
X331602Y260630D01*
X332602D01*
X333102Y260130D01*
Y257631D01*
X334101Y260630D02*
X335101D01*
X334601D01*
Y257631D01*
X334101Y258131D01*
X336601D02*
X337100Y257631D01*
X338100D01*
X338600Y258131D01*
Y258631D01*
X338100Y259130D01*
X338600Y259630D01*
Y260130D01*
X338100Y260630D01*
X337100D01*
X336601Y260130D01*
Y259630D01*
X337100Y259130D01*
X336601Y258631D01*
Y258131D01*
X337100Y259130D02*
X338100D01*
X403800Y118473D02*
X403300Y118973D01*
Y119973D01*
X403800Y120472D01*
X405799D01*
X406299Y119973D01*
Y118973D01*
X405799Y118473D01*
X403300Y115974D02*
Y116974D01*
X403800Y117473D01*
X405799D01*
X406299Y116974D01*
Y115974D01*
X405799Y115474D01*
X403800D01*
X403300Y115974D01*
X406299Y114474D02*
X403300D01*
X406299Y112475D01*
X403300D01*
X406799Y111475D02*
Y109476D01*
X403300Y108476D02*
X406299D01*
Y106977D01*
X405799Y106477D01*
X405300D01*
X404800Y106977D01*
Y108476D01*
Y106977D01*
X404300Y106477D01*
X403800D01*
X403300Y106977D01*
Y108476D01*
X406299Y105477D02*
X404300D01*
X403300Y104478D01*
X404300Y103478D01*
X406299D01*
X404800D01*
Y105477D01*
X403300Y102478D02*
Y100479D01*
Y101479D01*
X406299D01*
X373091Y98394D02*
X372591Y98894D01*
Y99894D01*
X373091Y100394D01*
X375091D01*
X375590Y99894D01*
Y98894D01*
X375091Y98394D01*
X373091Y97395D02*
X372591Y96895D01*
Y95895D01*
X373091Y95395D01*
X373591D01*
X374091Y95895D01*
Y96395D01*
Y95895D01*
X374591Y95395D01*
X375091D01*
X375590Y95895D01*
Y96895D01*
X375091Y97395D01*
X375590Y92396D02*
Y94396D01*
X373591Y92396D01*
X373091D01*
X372591Y92896D01*
Y93896D01*
X373091Y94396D01*
X375299Y256401D02*
X374799Y255901D01*
X373800D01*
X373300Y256401D01*
Y258400D01*
X373800Y258900D01*
X374799D01*
X375299Y258400D01*
X377799Y255901D02*
X376799D01*
X376299Y256401D01*
Y258400D01*
X376799Y258900D01*
X377799D01*
X378298Y258400D01*
Y256401D01*
X377799Y255901D01*
X379298Y258900D02*
Y255901D01*
X381297Y258900D01*
Y255901D01*
X382297Y259400D02*
X384296D01*
X385296Y255901D02*
Y258900D01*
X386796D01*
X387296Y258400D01*
Y257900D01*
X386796Y257400D01*
X385296D01*
X386796D01*
X387296Y256901D01*
Y256401D01*
X386796Y255901D01*
X385296D01*
X388295D02*
Y258400D01*
X388795Y258900D01*
X389795D01*
X390295Y258400D01*
Y255901D01*
X391294D02*
X393293D01*
Y256401D01*
X391294Y258400D01*
Y258900D01*
X393293D01*
X348970Y124803D02*
X351469D01*
X351969Y124303D01*
Y123304D01*
X351469Y122804D01*
X348970D01*
X349469Y121804D02*
X348970Y121304D01*
Y120305D01*
X349469Y119805D01*
X349969D01*
X350469Y120305D01*
Y120804D01*
Y120305D01*
X350969Y119805D01*
X351469D01*
X351969Y120305D01*
Y121304D01*
X351469Y121804D01*
X414717Y129921D02*
X417217D01*
X417717Y129421D01*
Y128422D01*
X417217Y127922D01*
X414717D01*
X417717Y126922D02*
Y125923D01*
Y126422D01*
X414717D01*
X415217Y126922D01*
X417717Y122924D02*
X414717D01*
X416217Y124423D01*
Y122424D01*
X314370Y242277D02*
Y245276D01*
X315870D01*
X316369Y244776D01*
Y244276D01*
X315870Y243776D01*
X314370D01*
X315870D01*
X316369Y243276D01*
Y242776D01*
X315870Y242277D01*
X314370D01*
X317369Y245276D02*
X318369D01*
X317869D01*
Y242277D01*
X317369Y242776D01*
X307905Y198682D02*
X307405Y198182D01*
X306405D01*
X305906Y198682D01*
Y200681D01*
X306405Y201181D01*
X307405D01*
X307905Y200681D01*
X310904Y198182D02*
X308905D01*
Y199682D01*
X309904Y199182D01*
X310404D01*
X310904Y199682D01*
Y200681D01*
X310404Y201181D01*
X309404D01*
X308905Y200681D01*
X313903Y201181D02*
X311904D01*
X313903Y199182D01*
Y198682D01*
X313403Y198182D01*
X312403D01*
X311904Y198682D01*
X331499Y154401D02*
X330999Y153901D01*
X330000D01*
X329500Y154401D01*
Y156400D01*
X330000Y156900D01*
X330999D01*
X331499Y156400D01*
X333998Y156900D02*
Y153901D01*
X332499Y155401D01*
X334498D01*
X335498Y154401D02*
X335998Y153901D01*
X336998D01*
X337497Y154401D01*
Y156400D01*
X336998Y156900D01*
X335998D01*
X335498Y156400D01*
Y154401D01*
X317354Y222698D02*
X316854Y222198D01*
X315854D01*
X315354Y222698D01*
Y224697D01*
X315854Y225197D01*
X316854D01*
X317354Y224697D01*
X320353Y222198D02*
X318353D01*
Y223697D01*
X319353Y223198D01*
X319853D01*
X320353Y223697D01*
Y224697D01*
X319853Y225197D01*
X318853D01*
X318353Y224697D01*
X321352Y222698D02*
X321852Y222198D01*
X322852D01*
X323352Y222698D01*
Y223198D01*
X322852Y223697D01*
X322352D01*
X322852D01*
X323352Y224197D01*
Y224697D01*
X322852Y225197D01*
X321852D01*
X321352Y224697D01*
X331599Y159701D02*
X331100Y159201D01*
X330100D01*
X329600Y159701D01*
Y161700D01*
X330100Y162200D01*
X331100D01*
X331599Y161700D01*
X334099Y162200D02*
Y159201D01*
X332599Y160701D01*
X334598D01*
X337098Y162200D02*
Y159201D01*
X335598Y160701D01*
X337597D01*
X297669Y212068D02*
X297169Y211568D01*
X296169D01*
X295669Y212068D01*
Y214067D01*
X296169Y214567D01*
X297169D01*
X297669Y214067D01*
X300668Y211568D02*
X299668Y212068D01*
X298668Y213067D01*
Y214067D01*
X299168Y214567D01*
X300168D01*
X300668Y214067D01*
Y213567D01*
X300168Y213067D01*
X298668D01*
X301667Y212068D02*
X302167Y211568D01*
X303167D01*
X303667Y212068D01*
Y214067D01*
X303167Y214567D01*
X302167D01*
X301667Y214067D01*
Y212068D01*
X329755Y175651D02*
X329255Y175151D01*
X328256D01*
X327756Y175651D01*
Y177650D01*
X328256Y178150D01*
X329255D01*
X329755Y177650D01*
X332754Y175151D02*
X330755D01*
Y176650D01*
X331755Y176150D01*
X332255D01*
X332754Y176650D01*
Y177650D01*
X332255Y178150D01*
X331255D01*
X330755Y177650D01*
X333754D02*
X334254Y178150D01*
X335254D01*
X335753Y177650D01*
Y175651D01*
X335254Y175151D01*
X334254D01*
X333754Y175651D01*
Y176150D01*
X334254Y176650D01*
X335753D01*
X284410Y200461D02*
X283910Y200961D01*
Y201961D01*
X284410Y202461D01*
X286410D01*
X286910Y201961D01*
Y200961D01*
X286410Y200461D01*
X286910Y199462D02*
Y198462D01*
Y198962D01*
X283910D01*
X284410Y199462D01*
X286910Y196962D02*
Y195963D01*
Y196463D01*
X283910D01*
X284410Y196962D01*
X329755Y181078D02*
X329255Y180578D01*
X328256D01*
X327756Y181078D01*
Y183077D01*
X328256Y183577D01*
X329255D01*
X329755Y183077D01*
X330755Y183577D02*
X331755D01*
X331255D01*
Y180578D01*
X330755Y181078D01*
X335254Y183577D02*
X333254D01*
X335254Y181578D01*
Y181078D01*
X334754Y180578D01*
X333754D01*
X333254Y181078D01*
X295700Y227816D02*
X295200Y227316D01*
X294201D01*
X293701Y227816D01*
Y229815D01*
X294201Y230315D01*
X295200D01*
X295700Y229815D01*
X296700Y230315D02*
X297699D01*
X297200D01*
Y227316D01*
X296700Y227816D01*
X299199D02*
X299699Y227316D01*
X300698D01*
X301198Y227816D01*
Y228316D01*
X300698Y228815D01*
X300199D01*
X300698D01*
X301198Y229315D01*
Y229815D01*
X300698Y230315D01*
X299699D01*
X299199Y229815D01*
X329755Y186505D02*
X329255Y186005D01*
X328256D01*
X327756Y186505D01*
Y188505D01*
X328256Y189005D01*
X329255D01*
X329755Y188505D01*
X330755Y189005D02*
X331755D01*
X331255D01*
Y186005D01*
X330755Y186505D01*
X334754Y189005D02*
Y186005D01*
X333254Y187505D01*
X335254D01*
X329755Y191933D02*
X329255Y191433D01*
X328256D01*
X327756Y191933D01*
Y193932D01*
X328256Y194432D01*
X329255D01*
X329755Y193932D01*
X330755Y194432D02*
X331755D01*
X331255D01*
Y191433D01*
X330755Y191933D01*
X335254Y191433D02*
X333254D01*
Y192932D01*
X334254Y192433D01*
X334754D01*
X335254Y192932D01*
Y193932D01*
X334754Y194432D01*
X333754D01*
X333254Y193932D01*
X329755Y197360D02*
X329255Y196860D01*
X328256D01*
X327756Y197360D01*
Y199360D01*
X328256Y199859D01*
X329255D01*
X329755Y199360D01*
X330755Y199859D02*
X331755D01*
X331255D01*
Y196860D01*
X330755Y197360D01*
X335254Y196860D02*
X334254Y197360D01*
X333254Y198360D01*
Y199360D01*
X333754Y199859D01*
X334754D01*
X335254Y199360D01*
Y198860D01*
X334754Y198360D01*
X333254D01*
X329755Y202788D02*
X329255Y202288D01*
X328256D01*
X327756Y202788D01*
Y204787D01*
X328256Y205287D01*
X329255D01*
X329755Y204787D01*
X330755Y205287D02*
X331755D01*
X331255D01*
Y202288D01*
X330755Y202788D01*
X333254Y202288D02*
X335254D01*
Y202788D01*
X333254Y204787D01*
Y205287D01*
X329755Y208215D02*
X329255Y207715D01*
X328256D01*
X327756Y208215D01*
Y210214D01*
X328256Y210714D01*
X329255D01*
X329755Y210214D01*
X330755Y210714D02*
X331755D01*
X331255D01*
Y207715D01*
X330755Y208215D01*
X333254D02*
X333754Y207715D01*
X334754D01*
X335254Y208215D01*
Y208715D01*
X334754Y209215D01*
X335254Y209715D01*
Y210214D01*
X334754Y210714D01*
X333754D01*
X333254Y210214D01*
Y209715D01*
X333754Y209215D01*
X333254Y208715D01*
Y208215D01*
X333754Y209215D02*
X334754D01*
X329755Y213643D02*
X329255Y213143D01*
X328256D01*
X327756Y213643D01*
Y215642D01*
X328256Y216142D01*
X329255D01*
X329755Y215642D01*
X330755Y216142D02*
X331755D01*
X331255D01*
Y213143D01*
X330755Y213643D01*
X333254Y215642D02*
X333754Y216142D01*
X334754D01*
X335254Y215642D01*
Y213643D01*
X334754Y213143D01*
X333754D01*
X333254Y213643D01*
Y214142D01*
X333754Y214642D01*
X335254D01*
X373485Y87764D02*
X372985Y88264D01*
Y89264D01*
X373485Y89764D01*
X375484D01*
X375984Y89264D01*
Y88264D01*
X375484Y87764D01*
X373485Y86765D02*
X372985Y86265D01*
Y85265D01*
X373485Y84765D01*
X373985D01*
X374485Y85265D01*
Y85765D01*
Y85265D01*
X374985Y84765D01*
X375484D01*
X375984Y85265D01*
Y86265D01*
X375484Y86765D01*
X373485Y83766D02*
X372985Y83266D01*
Y82266D01*
X373485Y81766D01*
X373985D01*
X374485Y82266D01*
X374985Y81766D01*
X375484D01*
X375984Y82266D01*
Y83266D01*
X375484Y83766D01*
X374985D01*
X374485Y83266D01*
X373985Y83766D01*
X373485D01*
X374485Y83266D02*
Y82266D01*
X443338Y201438D02*
X442838Y200938D01*
X441838D01*
X441339Y201438D01*
Y203437D01*
X441838Y203937D01*
X442838D01*
X443338Y203437D01*
X444338Y201438D02*
X444837Y200938D01*
X445837D01*
X446337Y201438D01*
Y201938D01*
X445837Y202437D01*
X445337D01*
X445837D01*
X446337Y202937D01*
Y203437D01*
X445837Y203937D01*
X444837D01*
X444338Y203437D01*
X447337D02*
X447836Y203937D01*
X448836D01*
X449336Y203437D01*
Y201438D01*
X448836Y200938D01*
X447836D01*
X447337Y201438D01*
Y201938D01*
X447836Y202437D01*
X449336D01*
X441595Y126741D02*
X441095Y127241D01*
Y128240D01*
X441595Y128740D01*
X443595D01*
X444095Y128240D01*
Y127241D01*
X443595Y126741D01*
X444095Y123742D02*
Y125741D01*
X442095Y123742D01*
X441595D01*
X441095Y124242D01*
Y125241D01*
X441595Y125741D01*
Y122742D02*
X441095Y122242D01*
Y121243D01*
X441595Y120743D01*
X442095D01*
X442595Y121243D01*
X443095Y120743D01*
X443595D01*
X444095Y121243D01*
Y122242D01*
X443595Y122742D01*
X443095D01*
X442595Y122242D01*
X442095Y122742D01*
X441595D01*
X442595Y122242D02*
Y121243D01*
X435690Y126741D02*
X435190Y127241D01*
Y128240D01*
X435690Y128740D01*
X437689D01*
X438189Y128240D01*
Y127241D01*
X437689Y126741D01*
X438189Y124242D02*
X435190D01*
X436690Y125741D01*
Y123742D01*
X438189Y122742D02*
Y121742D01*
Y122242D01*
X435190D01*
X435690Y122742D01*
X428209Y105481D02*
X427710Y105981D01*
Y106981D01*
X428209Y107480D01*
X430209D01*
X430709Y106981D01*
Y105981D01*
X430209Y105481D01*
X430709Y102982D02*
X427710D01*
X429209Y104481D01*
Y102482D01*
X427710Y99483D02*
Y101482D01*
X429209D01*
X428709Y100483D01*
Y99983D01*
X429209Y99483D01*
X430209D01*
X430709Y99983D01*
Y100982D01*
X430209Y101482D01*
X272472Y240808D02*
X271972Y240308D01*
X270972D01*
X270472Y240808D01*
Y242807D01*
X270972Y243307D01*
X271972D01*
X272472Y242807D01*
X274971Y240308D02*
X273971D01*
X273471Y240808D01*
Y242807D01*
X273971Y243307D01*
X274971D01*
X275471Y242807D01*
Y240808D01*
X274971Y240308D01*
X276470Y243307D02*
Y240308D01*
X278470Y243307D01*
Y240308D01*
X279469Y243307D02*
X280469D01*
X279969D01*
Y240308D01*
X279469Y240808D01*
X366399Y211201D02*
X365899Y210701D01*
X364900D01*
X364400Y211201D01*
Y213200D01*
X364900Y213700D01*
X365899D01*
X366399Y213200D01*
X368899Y210701D02*
X367899D01*
X367399Y211201D01*
Y213200D01*
X367899Y213700D01*
X368899D01*
X369398Y213200D01*
Y211201D01*
X368899Y210701D01*
X370398Y213700D02*
Y210701D01*
X372397Y213700D01*
Y210701D01*
X375396Y213700D02*
X373397D01*
X375396Y211701D01*
Y211201D01*
X374897Y210701D01*
X373897D01*
X373397Y211201D01*
X359206Y118898D02*
X361705D01*
X362205Y118398D01*
Y117398D01*
X361705Y116898D01*
X359206D01*
X359705Y113899D02*
X359206Y114399D01*
Y115399D01*
X359705Y115899D01*
X360205D01*
X360705Y115399D01*
Y114399D01*
X361205Y113899D01*
X361705D01*
X362205Y114399D01*
Y115399D01*
X361705Y115899D01*
X359206Y112900D02*
X362205D01*
Y111400D01*
X361705Y110900D01*
X361205D01*
X360705Y111400D01*
Y112900D01*
Y111400D01*
X360205Y110900D01*
X359705D01*
X359206Y111400D01*
Y112900D01*
X362705Y109900D02*
Y107901D01*
X359705Y104902D02*
X359206Y105402D01*
Y106402D01*
X359705Y106902D01*
X360205D01*
X360705Y106402D01*
Y105402D01*
X361205Y104902D01*
X361705D01*
X362205Y105402D01*
Y106402D01*
X361705Y106902D01*
X359206Y103902D02*
X362205D01*
Y102403D01*
X361705Y101903D01*
X359705D01*
X359206Y102403D01*
Y103902D01*
X391095Y91339D02*
X394094D01*
Y89339D01*
Y86340D02*
Y88340D01*
X392095Y86340D01*
X391595D01*
X391095Y86840D01*
Y87840D01*
X391595Y88340D01*
X303937Y273622D02*
Y270623D01*
X305436D01*
X305936Y271123D01*
Y272123D01*
X305436Y272622D01*
X303937D01*
X304937D02*
X305936Y273622D01*
X308935D02*
X306936D01*
X308935Y271623D01*
Y271123D01*
X308436Y270623D01*
X307436D01*
X306936Y271123D01*
X401575Y131102D02*
X398576D01*
Y129603D01*
X399076Y129103D01*
X400075D01*
X400575Y129603D01*
Y131102D01*
Y130103D02*
X401575Y129103D01*
Y126604D02*
X398576D01*
X400075Y128103D01*
Y126104D01*
X395669Y130709D02*
X392670D01*
Y129209D01*
X393170Y128709D01*
X394170D01*
X394670Y129209D01*
Y130709D01*
Y129709D02*
X395669Y128709D01*
X392670Y125710D02*
Y127710D01*
X394170D01*
X393670Y126710D01*
Y126210D01*
X394170Y125710D01*
X395169D01*
X395669Y126210D01*
Y127210D01*
X395169Y127710D01*
X430315Y130315D02*
X427316D01*
Y128815D01*
X427816Y128316D01*
X428815D01*
X429315Y128815D01*
Y130315D01*
Y129315D02*
X430315Y128316D01*
Y127316D02*
Y126316D01*
Y126816D01*
X427316D01*
X427816Y127316D01*
Y124817D02*
X427316Y124317D01*
Y123317D01*
X427816Y122817D01*
X428316D01*
X428815Y123317D01*
Y123817D01*
Y123317D01*
X429315Y122817D01*
X429815D01*
X430315Y123317D01*
Y124317D01*
X429815Y124817D01*
X265385Y165217D02*
X264885Y164717D01*
X263886D01*
X263386Y165217D01*
Y165717D01*
X263886Y166217D01*
X264885D01*
X265385Y166717D01*
Y167217D01*
X264885Y167717D01*
X263886D01*
X263386Y167217D01*
X266385Y164717D02*
Y167717D01*
X267884D01*
X268384Y167217D01*
Y165217D01*
X267884Y164717D01*
X266385D01*
X269384Y167717D02*
X270384D01*
X269884D01*
Y164717D01*
X269384Y165217D01*
X425984Y157480D02*
X422985D01*
X423985Y156481D01*
X422985Y155481D01*
X425984D01*
X426484Y154481D02*
Y152482D01*
X422985Y151482D02*
X425984D01*
Y149983D01*
X425484Y149483D01*
X424985D01*
X424485Y149983D01*
Y151482D01*
Y149983D01*
X423985Y149483D01*
X423485D01*
X422985Y149983D01*
Y151482D01*
Y148483D02*
Y146484D01*
Y147484D01*
X425984D01*
X451725Y123622D02*
X454225D01*
X454724Y123122D01*
Y122123D01*
X454225Y121623D01*
X451725D01*
X454724Y120623D02*
Y119623D01*
Y120123D01*
X451725D01*
X452225Y120623D01*
X454724Y118124D02*
Y117124D01*
Y117624D01*
X451725D01*
X452225Y118124D01*
X266600Y214901D02*
X268599Y217900D01*
Y214901D02*
X266600Y217900D01*
X269599D02*
X270599D01*
X270099D01*
Y214901D01*
X269599Y215401D01*
X363249Y228834D02*
X362749Y229334D01*
Y230333D01*
X363249Y230833D01*
X365248D01*
X365748Y230333D01*
Y229334D01*
X365248Y228834D01*
X362749Y225835D02*
Y227834D01*
X364248D01*
X363749Y226834D01*
Y226335D01*
X364248Y225835D01*
X365248D01*
X365748Y226335D01*
Y227334D01*
X365248Y227834D01*
X363249Y224835D02*
X362749Y224335D01*
Y223336D01*
X363249Y222836D01*
X365248D01*
X365748Y223336D01*
Y224335D01*
X365248Y224835D01*
X363249D01*
X390188Y217310D02*
X389688Y216810D01*
X388689D01*
X388189Y217310D01*
Y219310D01*
X388689Y219810D01*
X389688D01*
X390188Y219310D01*
X392688Y219810D02*
Y216810D01*
X391188Y218310D01*
X393187D01*
X394187Y219310D02*
X394687Y219810D01*
X395687D01*
X396186Y219310D01*
Y217310D01*
X395687Y216810D01*
X394687D01*
X394187Y217310D01*
Y217810D01*
X394687Y218310D01*
X396186D01*
X390976Y212980D02*
X390476Y212480D01*
X389476D01*
X388976Y212980D01*
Y214979D01*
X389476Y215479D01*
X390476D01*
X390976Y214979D01*
X393975Y212480D02*
X391975D01*
Y213979D01*
X392975Y213479D01*
X393475D01*
X393975Y213979D01*
Y214979D01*
X393475Y215479D01*
X392475D01*
X391975Y214979D01*
X394974Y215479D02*
X395974D01*
X395474D01*
Y212480D01*
X394974Y212980D01*
X386614Y249488D02*
Y251987D01*
X387114Y252487D01*
X388114D01*
X388614Y251987D01*
Y249488D01*
X389613Y252487D02*
X390613D01*
X390113D01*
Y249488D01*
X389613Y249987D01*
X394112Y249488D02*
X392112D01*
Y250987D01*
X393112Y250487D01*
X393612D01*
X394112Y250987D01*
Y251987D01*
X393612Y252487D01*
X392612D01*
X392112Y251987D01*
X376772Y249094D02*
Y251593D01*
X377272Y252093D01*
X378271D01*
X378771Y251593D01*
Y249094D01*
X379771Y252093D02*
X380770D01*
X380271D01*
Y249094D01*
X379771Y249594D01*
X382270Y249094D02*
X384269D01*
Y249594D01*
X382270Y251593D01*
Y252093D01*
X376135Y231621D02*
X379134D01*
Y230121D01*
X378634Y229621D01*
X376635D01*
X376135Y230121D01*
Y231621D01*
X379134Y227122D02*
X376135D01*
X377634Y228621D01*
Y226622D01*
X369048Y231621D02*
X372047D01*
Y230121D01*
X371547Y229621D01*
X369548D01*
X369048Y230121D01*
Y231621D01*
Y228621D02*
Y226622D01*
X369548D01*
X371547Y228621D01*
X372047D01*
D86*
X341339Y251181D02*
X340794Y251930D01*
X339914Y251644D01*
Y250718D01*
X340794Y250432D01*
X341339Y251181D01*
X326464Y202422D02*
Y205178D01*
X321936Y202422D02*
Y205178D01*
X273925Y213094D02*
Y217032D01*
X271563Y188685D02*
Y213094D01*
X277075D02*
Y217032D01*
X271563Y213094D02*
X279437D01*
X271563Y188685D02*
X279437D01*
Y213094D01*
X330906Y77756D02*
Y95669D01*
X360433D01*
Y77756D02*
Y95669D01*
X330906Y77756D02*
X360433D01*
X433661Y203346D02*
X434842D01*
X433661Y200590D02*
X434842D01*
X430457Y137445D02*
Y140201D01*
X425929Y137445D02*
Y140201D01*
X394927Y137922D02*
Y140678D01*
X390399Y137922D02*
Y140678D01*
X402264Y137822D02*
Y140578D01*
X397736Y137822D02*
Y140578D01*
X430905Y113976D02*
Y115157D01*
X428150Y113976D02*
Y115157D01*
X437839Y134689D02*
Y135870D01*
X435083Y134689D02*
Y135870D01*
X443350Y134689D02*
Y135870D01*
X440594Y134689D02*
Y135870D01*
X343307Y215945D02*
X344488D01*
X343307Y213189D02*
X344488D01*
X343307Y210586D02*
X344488D01*
X343307Y207830D02*
X344488D01*
X343307Y205227D02*
X344488D01*
X343307Y202472D02*
X344488D01*
X343307Y199869D02*
X344488D01*
X343307Y197113D02*
X344488D01*
X343307Y194510D02*
X344488D01*
X343307Y191754D02*
X344488D01*
X343307Y189151D02*
X344488D01*
X343307Y186396D02*
X344488D01*
X298425Y224410D02*
X299606D01*
X298425Y221654D02*
X299606D01*
X343307Y183793D02*
X344488D01*
X343307Y181037D02*
X344488D01*
X286417Y208858D02*
Y210039D01*
X283661Y208858D02*
Y210039D01*
X343307Y178434D02*
X344488D01*
X343307Y175678D02*
X344488D01*
X298425Y219685D02*
X299606D01*
X298425Y216929D02*
X299606D01*
X343307Y162445D02*
X344488D01*
X343307Y159689D02*
X344488D01*
X319094Y214370D02*
Y215551D01*
X316339Y214370D02*
Y215551D01*
X343307Y156890D02*
X344488D01*
X343307Y154134D02*
X344488D01*
X298622Y201378D02*
X299803D01*
X298622Y198622D02*
X299803D01*
X422047Y133957D02*
Y143799D01*
X414173D02*
X422047D01*
X414173Y133957D02*
X422047D01*
X414173D02*
Y143799D01*
X391028Y225959D02*
X392210D01*
X391028Y223203D02*
X392210D01*
X391128Y231459D02*
X392309D01*
X391128Y228703D02*
X392309D01*
X366339Y238117D02*
Y239298D01*
X363583Y238117D02*
Y239298D01*
X422047Y159961D02*
Y195394D01*
X467323D01*
Y159961D02*
Y195394D01*
X422047Y159961D02*
X467323D01*
X309842Y261221D02*
Y263976D01*
X305315Y261221D02*
Y263976D01*
X382192Y86536D02*
X384948D01*
X382192Y91064D02*
X384948D01*
X382062Y81389D02*
X383243D01*
X382062Y84145D02*
X383243D01*
X382185Y93504D02*
X383366D01*
X382185Y96260D02*
X383366D01*
X342520Y253150D02*
X354331D01*
X342520Y264961D02*
X354331D01*
D89*
X407322Y158602D02*
X406822Y159101D01*
Y160101D01*
X407322Y160601D01*
X407822D01*
X408322Y160101D01*
Y159101D01*
X408821Y158602D01*
X409321D01*
X409821Y159101D01*
Y160101D01*
X409321Y160601D01*
X407322Y155603D02*
X406822Y156102D01*
Y157102D01*
X407322Y157602D01*
X409321D01*
X409821Y157102D01*
Y156102D01*
X409321Y155603D01*
X406822Y154603D02*
X409821D01*
Y152604D01*
X412601Y161601D02*
X412101Y162101D01*
Y163100D01*
X412601Y163600D01*
X413101D01*
X413600Y163100D01*
Y162101D01*
X414100Y161601D01*
X414600D01*
X415100Y162101D01*
Y163100D01*
X414600Y163600D01*
X412101Y160601D02*
X415100D01*
Y159101D01*
X414600Y158602D01*
X412601D01*
X412101Y159101D01*
Y160601D01*
X415100Y157602D02*
X413101D01*
X412101Y156602D01*
X413101Y155603D01*
X415100D01*
X413600D01*
Y157602D01*
X285739Y176538D02*
Y173539D01*
X286739Y174538D01*
X287739Y173539D01*
Y176538D01*
X290238Y173539D02*
X289238D01*
X288738Y174038D01*
Y176038D01*
X289238Y176538D01*
X290238D01*
X290738Y176038D01*
Y174038D01*
X290238Y173539D01*
X293737Y174038D02*
X293237Y173539D01*
X292237D01*
X291737Y174038D01*
Y174538D01*
X292237Y175038D01*
X293237D01*
X293737Y175538D01*
Y176038D01*
X293237Y176538D01*
X292237D01*
X291737Y176038D01*
X294737Y173539D02*
X295736D01*
X295236D01*
Y176538D01*
X294737D01*
X295736D01*
X290738Y179317D02*
X290238Y178817D01*
X289238D01*
X288738Y179317D01*
Y179817D01*
X289238Y180317D01*
X290238D01*
X290738Y180817D01*
Y181317D01*
X290238Y181816D01*
X289238D01*
X288738Y181317D01*
X293737Y179317D02*
X293237Y178817D01*
X292237D01*
X291737Y179317D01*
Y181317D01*
X292237Y181816D01*
X293237D01*
X293737Y181317D01*
X294737Y178817D02*
Y181816D01*
Y180817D01*
X296736Y178817D01*
X295236Y180317D01*
X296736Y181816D01*
X291737Y187095D02*
Y184096D01*
X292737Y185096D01*
X293737Y184096D01*
Y187095D01*
X294737Y184096D02*
X295736D01*
X295236D01*
Y187095D01*
X294737D01*
X295736D01*
X299235Y184596D02*
X298735Y184096D01*
X297736D01*
X297236Y184596D01*
Y185096D01*
X297736Y185596D01*
X298735D01*
X299235Y186096D01*
Y186595D01*
X298735Y187095D01*
X297736D01*
X297236Y186595D01*
X301734Y184096D02*
X300734D01*
X300235Y184596D01*
Y186595D01*
X300734Y187095D01*
X301734D01*
X302234Y186595D01*
Y184596D01*
X301734Y184096D01*
X330081Y125192D02*
X327082D01*
X328082Y124192D01*
X327082Y123192D01*
X330081D01*
X327082Y120693D02*
Y121693D01*
X327582Y122193D01*
X329581D01*
X330081Y121693D01*
Y120693D01*
X329581Y120193D01*
X327582D01*
X327082Y120693D01*
X327582Y117194D02*
X327082Y117694D01*
Y118694D01*
X327582Y119194D01*
X328082D01*
X328581Y118694D01*
Y117694D01*
X329081Y117194D01*
X329581D01*
X330081Y117694D01*
Y118694D01*
X329581Y119194D01*
X327082Y116195D02*
Y115195D01*
Y115695D01*
X330081D01*
Y116195D01*
Y115195D01*
X332861Y129190D02*
X332361Y129690D01*
Y130690D01*
X332861Y131190D01*
X333360D01*
X333860Y130690D01*
Y129690D01*
X334360Y129190D01*
X334860D01*
X335360Y129690D01*
Y130690D01*
X334860Y131190D01*
X332861Y126191D02*
X332361Y126691D01*
Y127691D01*
X332861Y128191D01*
X334860D01*
X335360Y127691D01*
Y126691D01*
X334860Y126191D01*
X332361Y125192D02*
X335360D01*
X334360D01*
X332361Y123192D01*
X333860Y124692D01*
X335360Y123192D01*
X340639Y131190D02*
X337640D01*
X338639Y130190D01*
X337640Y129190D01*
X340639D01*
X337640Y128191D02*
Y127191D01*
Y127691D01*
X340639D01*
Y128191D01*
Y127191D01*
X338139Y123692D02*
X337640Y124192D01*
Y125192D01*
X338139Y125691D01*
X338639D01*
X339139Y125192D01*
Y124192D01*
X339639Y123692D01*
X340139D01*
X340639Y124192D01*
Y125192D01*
X340139Y125691D01*
X337640Y121193D02*
Y122193D01*
X338139Y122693D01*
X340139D01*
X340639Y122193D01*
Y121193D01*
X340139Y120693D01*
X338139D01*
X337640Y121193D01*
D151*
X395105Y253937D02*
Y267126D01*
X406719D01*
X395105Y253937D02*
X406719D01*
X400000Y81496D02*
X412795D01*
Y98228D01*
X400000D02*
X412795D01*
X400000Y81496D02*
Y98228D01*
X406719Y253937D02*
Y267126D01*
D152*
X370819Y239400D02*
D03*
X378119Y241662D02*
D03*
M02*
