M48
;Layer_Color=9474304
;FILE_FORMAT=2:5
INCH,TZ
;TYPE=PLATED
T1F00S00C0.01181
T2F00S00C0.01378
T3F00S00C0.01575
T4F00S00C0.01968
T5F00S00C0.02362
T6F00S00C0.07874
T7F00S00C0.09055
;TYPE=NON_PLATED
T8F00S00C0.02953
T9F00S00C0.04134
T10F00S00C0.05906
T11F00S00C0.07874
%
T01
X273925Y219000
X277075
T02
X200787Y82677
Y94488
Y106299
X205709Y112205
X200787Y118110
Y129921
Y141732
Y151575
X206693
X220472
X226378
X232283
X233760Y130905
X215059
X224410Y112205
X243110
X259350Y112894
X270669Y113189
X271653Y103937
X267028Y101083
X281110Y104618
X282283Y107480
X281110Y110343
X283760Y112598
X284252Y118898
X286600Y140119
X291300Y146800
X296309Y148031
X294300Y153700
X270472Y153642
X275700Y144900
X273400Y142200
X252461Y130905
X248031Y82677
X236221
X224410
X212598
X215059Y93504
X307874Y114961
X314173Y120079
X325590Y120866
X325984Y124016
X323327Y115551
X339764Y118701
X338583Y127953
X335300Y137300
X341300Y139200
X344940Y138042
X347400Y139700
X353800Y150400
X359000Y151700
X343500Y153400
X335900Y147600
X326600Y144400
X321358Y154528
X315000Y137700
X318110Y96358
X330500Y91000
X334500
X332500Y89000
X330500Y87000
Y83000
X334500
X332500Y85000
X334500Y87000
X336500Y94000
Y97000
X342300Y100200
Y103400
X331000Y103000
X355000Y97000
Y94000
X357000Y91000
Y87000
X361000
X359000Y85000
X357000Y83000
X361000
X359000Y89000
X361000Y91000
X373370Y86300
X375984Y94882
X390158Y94784
X391929Y91043
X388900Y109400
X378800Y108800
X375492Y113091
X371654Y113484
X365600Y115700
X366000Y106500
X369000Y106600
X367600Y124800
X368100Y132600
X368600Y141900
X375100Y136911
X387800Y136500
X384300Y141100
X381496Y152362
X407700Y152100
X415256Y150984
X423622Y148819
X411811Y143012
X409449Y137795
X401968Y138976
X398425Y129921
X395276Y126772
X404600Y118500
X413484Y118504
X416535
X419685Y129921
X410630Y129921
X431890Y129134
X442000Y118700
X444500Y119900
X448000Y123800
X453400Y156100
X384154Y119882
X354360Y128200
X354634Y156693
X344000Y161100
X331988Y161811
X327461Y165551
X318898Y172539
X313779Y176772
X315800Y186300
X316142Y192126
X324000Y193500
X332400Y195600
X329400Y198800
X327500Y204900
X322286Y204640
X328000Y214000
X330400Y216300
X335100Y213700
X344000Y214600
X343000Y218200
X352500Y219000
X356298Y214960
X353136Y207100
X352362Y194488
X354331Y182087
X336600Y180700
X334100Y177800
X363779Y162598
X376378Y182283
X381496Y189764
X384251Y197244
X374803Y195669
X409842Y195276
X409893Y199559
X411700Y201800
X412100Y204700
X412598Y197638
X413700Y188000
X419300Y202600
X426772Y201969
X433858Y201575
X448000Y203300
X422835Y209842
X414100Y211800
X408000Y222000
X381800Y242200
X380000Y255000
X390000
X398031Y271260
X365000Y270000
Y255000
X351181Y252756
X345669
X330709Y251575
X335100Y239100
X342800Y238800
X355100Y236400
X360100Y239800
X351114Y265354
X333071Y271654
X313200Y254100
X320700Y240600
X323445Y235851
X326100Y233600
X332700Y230400
X326500Y221600
X325300Y218700
X312992Y232283
X310236Y233858
X307874Y231890
X303149Y229922
X292913Y233465
X288583Y231496
X286091Y229962
X287300Y225800
X288500Y214100
X277165Y213779
X277067Y207037
X272342Y205906
X268799Y207677
X261516
X265059Y194390
X270472
X275197Y197244
X275590Y201575
X286221Y191929
X291339Y185433
X293500Y180900
X298800Y183200
X307874Y179134
X311024Y178347
X286910Y179626
X269587Y165748
X270768Y161421
X270879Y158081
X259842Y169291
Y185039
X246063Y177165
X238189Y188976
X234252
X218504
Y177165
Y165354
X232283
X214567Y202756
X210630
X206693
X202756
X200787Y212598
Y224410
X205709Y224410
X200787Y236221
Y248031
Y259842
X205709Y261811
X200787Y271654
X212598
X224410
X224410Y261811
X243110
X248031Y271654
X236221
X233760Y243110
X215059
X224410Y224410
X243110
X252461Y243110
X286221Y242913
X290300Y239100
X295472Y243504
X305700Y242500
X308661Y240551
T03
X291100Y154300
X415594Y138823
X317083Y157680
X312682
X317717Y222441
X311811Y214173
X306693Y217717
X298818Y218110
X291732Y218504
X290100Y210900
X290354Y206791
X297244Y195669
X301575
X305315Y184843
X302968Y180422
X298800Y174413
X299738Y157680
X304053
X308367
X295424
X286795
X281874
T04
X408268Y87402
Y92323
X438189Y104724
X440945Y107480
X439764Y127165
X443701
X446456Y135039
X459842Y136221
Y131890
X464173
Y136221
X468504
Y131890
Y127559
Y123228
X464173
X459842
Y127559
X464173
Y142520
X461680Y146063
X456693
X451706
X454200Y149213
X449213
X459186
X464173Y149213
X427799Y147484
X410900Y149508
X407800Y145700
X424409Y128740
X388189Y128150
Y123228
X408600Y170600
X412603Y175192
X400197Y258465
Y263386
T05
X326400Y107100
X330500Y111900
X334055Y116240
T06
X297031Y129279
T07
X259842Y86614
X429134
X381890Y267717
X320866
X255906
T08
X427781Y182455
T09
X438360Y171876
T10
X278724Y149090
X318094
T11
X454331Y91732
M30
