M48
;Layer_Color=9474304
;FILE_FORMAT=2:5
INCH,TZ
;TYPE=PLATED
T1F00S00C0.01181
T2F00S00C0.01378
T3F00S00C0.01575
T4F00S00C0.01968
T5F00S00C0.02362
T6F00S00C0.07874
T7F00S00C0.09055
;TYPE=NON_PLATED
T8F00S00C0.02953
T9F00S00C0.04134
T10F00S00C0.05906
T11F00S00C0.07874
%
T01
X274016Y218898
X277165
T02
X200787Y82677
Y94488
Y106299
X205709Y112205
X200787Y118110
Y129921
Y141732
Y151575
X206693
X220472
X226378
X232283
X233760Y130905
X215059
X224410Y112205
X243110
X259350Y112894
X270669Y113189
X271653Y103937
X267028Y101083
X275591Y94488
X283465
X279528Y86614
X281110Y104618
X282283Y107480
X281110Y110343
X283760Y112598
X284252Y118898
X291339Y110236
X307874Y114961
X311024Y118110
X296309Y148031
X291300Y146800
X294300Y153700
X286600Y140119
X273400Y142200
X275700Y144900
X270472Y153642
X252461Y130905
X248031Y82677
X236221
X224410
X212598
X215059Y93504
X318110Y96358
X326772Y102362
X331594Y105315
X334646Y102362
X342300Y103400
Y100200
X339764Y118701
X338583Y127953
X346457Y125984
X354360Y128200
X350394Y133858
X347400Y139700
X344940Y138042
X341300Y139200
X335300Y137300
X334646Y149606
X342520
X343500Y153400
X350394Y149606
X359000Y151700
X370079Y141732
X375100Y136911
X381496Y152362
X407700Y152100
X415256Y150984
X423622Y148819
X411811Y143012
X409449Y137795
X401968Y138976
X398425Y129921
X395276Y126772
X405500Y124335
X404600Y118500
X413484Y118504
X416535
X418504Y109449
X419685Y129921
X410630Y129921
X431890Y129134
X440157Y114960
X448032Y118898
X460630Y118110
X468504
X464567Y110236
X456693
X452756Y102362
X460630
X468504
X464567Y94488
X440945
X444882Y86614
X401575Y94488
X390158Y94784
X391929Y91043
X375984Y94882
X373370Y86300
X369000Y106600
X366000Y106500
X362200Y104500
X359300Y104900
X359900Y118700
X365600Y115700
X371654Y113484
X375492Y113091
X378800Y108800
X385827Y110236
X388900Y109400
X393701Y110236
X384154Y119882
X325590Y120866
X325984Y124016
X323327Y115551
X314173Y120079
X315000Y137700
X326600Y144400
X321358Y154528
X327461Y165551
X331988Y161811
X334645Y174803
X332087Y180512
X331496Y187795
X326772Y185827
X315800Y186300
X316142Y192126
X322441Y202559
X327362Y207480
X332788Y214241
X335433Y218110
X328008Y222103
X325590Y220472
X328400Y233000
X312992Y232283
X319980Y244094
X314961Y251969
X318898Y259843
X330709Y267717
X333071Y271654
X330709Y251575
X345669Y252756
X351181
X362205Y251969
X366142Y259843
X374016
X370079Y267717
X362205
X351114Y265354
X357874Y240158
X365471Y234952
X368702Y237008
X369969Y229013
X369291Y225590
X384000Y220300
X393701Y220473
X401575
X409449
X405512Y228347
X400393Y230708
X389369Y214960
X384251Y197244
X381496Y189764
X374803Y195669
X366142Y196851
X352362Y194488
X354331Y182087
X343898Y172539
X341339Y170078
X318898Y172539
X313779Y176772
X335039Y199606
X351181Y209055
X356298Y214960
X351181Y233071
X347244Y231890
X341339Y237795
X389764Y259843
X393701Y267717
X398031Y271260
X401575Y267717
X412100Y204700
X411700Y201800
X409893Y199559
X409842Y195276
X412598Y197638
X420079Y202756
X426772Y201969
X433858Y201575
X440945Y204725
X448819
X452756Y196851
Y181103
X448819Y173228
X452756Y165354
X456693Y157480
X464567
X417323
X409449
X363779Y162598
X354634Y156693
X376378Y182283
X422835Y209842
X310236Y233858
X307874Y231890
X303149Y229922
X292913Y233465
X288583Y231496
X286091Y229962
X287300Y225800
X288500Y214100
X277165Y213779
X277067Y207037
X272342Y205906
X268799Y207677
X261516
X265059Y194390
X270472
X275197Y197244
X275590Y201575
X275591Y188977
X286221Y191929
X291339Y185433
X293500Y180900
X298800Y183200
X307874Y179134
X311024Y178347
X286910Y179626
X269587Y165748
X270768Y161421
X270879Y158081
X275591Y157480
X259842Y169291
Y185039
X246063Y177165
X238189Y188976
X234252
X218504
Y177165
Y165354
X232283
X214567Y202756
X210630
X206693
X202756
X200787Y212598
Y224410
X205709Y224410
X200787Y236221
Y248031
Y259842
X205709Y261811
X200787Y271654
X212598
X224410
X224410Y261811
X243110
X248031Y271654
X236221
X233760Y243110
X215059
X224410Y224410
X243110
X252461Y243110
X275591Y236221
X283465
X286221Y242913
X295472Y243504
X302362Y246850
X308661Y240551
T03
X291100Y154300
X415594Y138823
X317083Y157680
X312682
X317717Y222441
X311811Y214173
X306693Y217717
X298818Y218110
X291732Y218504
X290100Y210900
X290354Y206791
X297244Y195669
X301575
X305315Y184843
X302968Y180422
X298800Y174413
X299738Y157680
X304053
X308367
X295424
X286795
X281874
T04
X320866Y86614
Y91535
X408268Y92323
Y87402
X438189Y104724
X440945Y107480
X439764Y127165
X443701
X446456Y135039
X459842Y136221
Y131890
X464173
Y136221
X468504
Y131890
Y127559
Y123228
X464173
X459842
Y127559
X464173
Y142520
X461680Y146063
X456693
X451706
X454200Y149213
X449213
X459186
X464173Y149213
X427799Y147484
X424409Y128740
X388189Y128150
Y123228
X409055Y163386
X412205Y172441
X400197Y258465
Y263386
T05
X327756Y109350
X331004Y112589
X334055Y116240
X408268Y145669
X410925Y149508
X448819Y112205
T06
X297031Y129279
T07
X259842Y86614
X429134
X381890Y267717
X320866
X255906
T08
X427781Y182455
T09
X438360Y171876
T10
X278724Y149090
X318094
T11
X454331Y91732
M30
